<?xml version="1.0" standalone="no"?>
<!DOCTYPE svg PUBLIC "-//W3C//DTD SVG 1.1//EN" "http://www.w3.org/Graphics/SVG/1.1/DTD/svg11.dtd" >
<svg xmlns="http://www.w3.org/2000/svg" xmlns:xlink="http://www.w3.org/1999/xlink" version="1.1">
<metadata>
Created by FontForge 20201107 at Fri Jan 10 15:39:06 2025
 By 
Copyright 2019 IBM Corp. All rights reserved.
</metadata>
<defs>
<font id="IBMPlexSansCondensed-Regular" horiz-adv-x="540" >
  <font-face 
    font-family="IBM Plex Sans Condensed"
    font-weight="400"
    font-stretch="condensed"
    units-per-em="1000"
    panose-1="2 11 5 3 5 2 3 0 2 3"
    ascent="800"
    descent="-200"
    x-height="516"
    cap-height="698"
    bbox="-241 -246 1122 1126"
    underline-thickness="60"
    underline-position="-125"
    unicode-range="U+0020-FFFD"
  />
<missing-glyph horiz-adv-x="424" 
d="M32 0v780h360v-780h-360zM92 60h240v660h-240v-660z" />
    <glyph glyph-name="fi" unicode="fi" horiz-adv-x="522" 
d="M101 0v449h-75v67h75v126q0 51 23.5 74.5t74.5 23.5h77v-67h-99v-157h269v-516h-76v449h-193v-449h-76zM408 641q-25 0 -36 11t-11 30v16q0 20 11 30.5t36 10.5t36 -10.5t11 -30.5v-16q0 -19 -11 -30t-36 -11z" />
    <glyph glyph-name=".notdef" horiz-adv-x="424" 
d="M32 0v780h360v-780h-360zM92 60h240v660h-240v-660z" />
    <glyph glyph-name=".null" horiz-adv-x="0" 
 />
    <glyph glyph-name="nonmarkingreturn" horiz-adv-x="333" 
 />
    <glyph glyph-name="space" unicode=" " horiz-adv-x="212" 
 />
    <glyph glyph-name="exclam" unicode="!" horiz-adv-x="258" 
d="M148 183h-38l-23 311v204h84v-204zM129 -12q-29 0 -44 13t-15 38v16q0 25 15 38t44 13t44 -13t15 -38v-16q0 -25 -15 -38t-44 -13z" />
    <glyph glyph-name="quotedbl" unicode="&#x22;" horiz-adv-x="382" 
d="M144 463h-68v277h68v-277zM306 463h-68v277h68v-277z" />
    <glyph glyph-name="numbersign" unicode="#" horiz-adv-x="637" 
d="M333 0l31 207h-142l-31 -207h-58l31 207h-113v54h122l28 176h-114v54h123l31 207h58l-31 -207h142l31 207h58l-31 -207h113v-54h-122l-28 -176h114v-54h-123l-31 -207h-58zM231 261h142l28 176h-142z" />
    <glyph glyph-name="dollar" unicode="$" horiz-adv-x="538" 
d="M305 -82h-64v105l2 10v632l-2 10v105h64v-105l-2 -10v-632l2 -10v-105zM274 -4q-51 0 -94.5 15.5t-76.5 41.5t-55 56l55 51q16 -25 41 -47t56.5 -36t66.5 -15q48 0 81.5 14t50.5 42.5t17 70.5q0 36 -13 61t-39.5 41.5t-66.5 25.5l-46 11q-66 16 -107 41t-59.5 62
t-18.5 88q0 54 24 95t70.5 64.5t113.5 23.5q72 0 126.5 -29.5t83.5 -77.5l-56 -43q-19 33 -58.5 58.5t-93.5 25.5q-73 0 -104 -33t-31 -77q0 -36 12 -60t36 -39t61 -24l49 -12q67 -16 109 -40.5t62 -62t20 -92.5q0 -65 -25.5 -109.5t-73.5 -67.5t-117 -23z" />
    <glyph glyph-name="percent" unicode="%" horiz-adv-x="837" 
d="M237 0h-73l436 698h73zM202 314q-46 0 -78 20.5t-49 64t-17 113.5t17 113.5t49 64t78 20.5t78 -20.5t49 -64t17 -113.5t-17 -113.5t-49 -64t-78 -20.5zM202 364q26 0 42.5 11t25 35t8.5 62v80q0 39 -8.5 62.5t-25 34.5t-42.5 11q-25 0 -42 -11t-25.5 -34.5t-8.5 -62.5
v-80q0 -38 8.5 -62t25.5 -35t42 -11zM635 -12q-46 0 -78 20.5t-49 64t-17 113.5t17 113.5t49 64t78 20.5t78 -20.5t49 -64t17 -113.5t-17 -113.5t-49 -64t-78 -20.5zM635 38q26 0 42.5 11t25 35t8.5 62v80q0 39 -8.5 62.5t-25 34.5t-42.5 11q-25 0 -42 -11t-25.5 -34.5
t-8.5 -62.5v-80q0 -38 8.5 -62t25.5 -35t42 -11z" />
    <glyph glyph-name="ampersand" unicode="&#x26;" horiz-adv-x="626" 
d="M506 0l-81 103h-10q-4 -27 -24.5 -53.5t-54 -44t-77.5 -17.5q-63 0 -106.5 23.5t-66 67t-22.5 102.5q0 48 15.5 84.5t44.5 64.5t68 48q-33 38 -57 85t-24 93q0 48 19 82.5t55 53t86 18.5t86 -18.5t55 -53t19 -82.5q0 -43 -17.5 -76.5t-47.5 -60.5t-70 -52l138 -172
q14 38 21 82t9 89h124v-65h-63q-7 -44 -18 -82.5t-27 -71.5l124 -147h-98zM271 647q-39 0 -62.5 -21.5t-23.5 -62.5v-14q0 -20 9.5 -44t25.5 -48.5t35 -46.5q29 17 52 38t36.5 46.5t13.5 54.5v14q0 27 -10.5 45.5t-30 28.5t-45.5 10zM267 53q29 0 53.5 9t44 26t33.5 41
l-166 205q-30 -15 -50 -34t-30 -44t-10 -59v-29q0 -56 34.5 -85.5t90.5 -29.5z" />
    <glyph glyph-name="quotesingle" unicode="'" horiz-adv-x="220" 
d="M144 463h-68v277h68v-277z" />
    <glyph glyph-name="parenleft" unicode="(" horiz-adv-x="302" 
d="M72 311q0 103 21.5 188.5t58.5 151.5t83 109h72q-50 -50 -86.5 -115t-56.5 -136t-20 -140v-116q0 -69 20 -140t56.5 -136t86.5 -115h-72q-46 44 -83 109.5t-58.5 151.5t-21.5 188z" />
    <glyph glyph-name="parenright" unicode=")" horiz-adv-x="302" 
d="M230 311q0 -102 -21.5 -188t-58.5 -151.5t-83 -109.5h-72q50 50 86.5 115t56.5 136t20 140v116q0 69 -20 140t-56.5 136t-86.5 115h72q46 -43 83 -109t58.5 -151.5t21.5 -188.5z" />
    <glyph glyph-name="asterisk" unicode="*" horiz-adv-x="414" 
d="M172 747h70l-12 -139l7 -5l129 54l22 -66l-136 -32l-3 -8l92 -106l-57 -41l-73 120h-8l-73 -120l-57 41l92 106l-3 8l-136 32l22 66l129 -54l7 5z" />
    <glyph glyph-name="plus" unicode="+" 
d="M306 91h-72v182h-174v64h174v182h72v-182h174v-64h-174v-182z" />
    <glyph glyph-name="comma" unicode="," horiz-adv-x="248" 
d="M124 106q29 0 44 -13t15 -38v-16q0 -39 -23.5 -86.5t-62.5 -84.5h-62q27 32 44.5 59.5t24.5 62.5q-19 5 -29 17t-10 32v16q0 25 15 38t44 13z" />
    <glyph glyph-name="hyphen" unicode="-" horiz-adv-x="360" 
d="M300 263h-240v82h240v-82z" />
    <glyph glyph-name="period" unicode="." horiz-adv-x="248" 
d="M124 -12q-29 0 -44 13t-15 38v16q0 25 15 38t44 13t44 -13t15 -38v-16q0 -25 -15 -38t-44 -13z" />
    <glyph glyph-name="slash" unicode="/" horiz-adv-x="349" 
d="M75 -151h-67l237 891h67z" />
    <glyph glyph-name="zero" unicode="0" 
d="M270 -12q-75 0 -123.5 36.5t-71.5 116t-23 208.5t23 208.5t71.5 116t123.5 36.5q76 0 124 -36.5t71 -116t23 -208.5t-23 -208.5t-71 -116t-124 -36.5zM270 57q48 0 77.5 23.5t43 67.5t13.5 105v192q0 62 -13.5 105.5t-43 67t-77.5 23.5t-77.5 -23.5t-43 -67t-13.5 -105.5
v-192q0 -61 13.5 -105t43 -67.5t77.5 -23.5z" />
    <glyph glyph-name="one" unicode="1" 
d="M493 0h-414v70h174v569h-6l-148 -137l-45 49l158 147h121v-628h160v-70z" />
    <glyph glyph-name="two" unicode="2" 
d="M481 70v-70h-415v83l212 220q50 52 73 97t23 88v26q0 64 -26.5 94.5t-82.5 30.5q-53 0 -86 -28.5t-46 -78.5l-70 28q13 43 40.5 76.5t68.5 53.5t95 20q65 0 107.5 -22.5t63 -67t20.5 -109.5q0 -45 -11.5 -83t-40 -79t-80.5 -96l-174 -183h329z" />
    <glyph glyph-name="three" unicode="3" 
d="M167 401h68q62 0 94 31t32 83v15q0 59 -30 84t-81 25q-48 0 -78 -22.5t-50 -63.5l-58 45q16 29 41.5 54.5t62.5 41.5t87 16q57 0 100 -18.5t66.5 -57t23.5 -99.5q0 -70 -36.5 -110.5t-88.5 -51.5v-10q38 -4 69 -24t49.5 -56.5t18.5 -91.5q0 -62 -25 -107.5t-72.5 -70.5
t-116.5 -25q-54 0 -93 16.5t-66 43.5t-47 56l60 45q24 -40 55.5 -65t88.5 -25q65 0 98.5 32t33.5 96v16q0 65 -33.5 96.5t-98.5 31.5h-74v70z" />
    <glyph glyph-name="four" unicode="4" 
d="M411 0h-76v137h-301v71l260 490h117v-494h90v-67h-90v-137zM325 634l-218 -430h228v430h-10z" />
    <glyph glyph-name="five" unicode="5" 
d="M450 698v-70h-276l-18 -277h10q9 24 26 43t42.5 29.5t60.5 10.5q55 0 96.5 -24t65 -72t23.5 -120q0 -74 -25 -125.5t-72.5 -78t-114.5 -26.5q-46 0 -85.5 15.5t-68.5 42.5t-47 60l60 45q24 -44 58 -68t83 -24q65 0 96.5 36t31.5 105v24q0 69 -31.5 105t-96.5 36
q-45 0 -70 -17t-43 -42l-68 9l23 383h340z" />
    <glyph glyph-name="six" unicode="6" 
d="M270 -12q-69 0 -116.5 30.5t-72 89.5t-24.5 145q0 79 20.5 148t54 126t73 100.5t78.5 70.5h103q-68 -54 -116.5 -106t-80 -113t-49.5 -144h10q11 28 30.5 50.5t49 35.5t68.5 13q57 0 98.5 -24t64 -72t22.5 -120t-24.5 -123.5t-71.5 -79t-117 -27.5zM270 58q42 0 70.5 16
t43.5 47.5t15 79.5v20q0 48 -15 79.5t-43.5 47.5t-70.5 16q-41 0 -70 -16t-44 -47.5t-15 -79.5v-20q0 -48 15 -79.5t44 -47.5t70 -16z" />
    <glyph glyph-name="seven" unicode="7" 
d="M242 0h-85l238 629h-263v-130h-71v199h415v-70z" />
    <glyph glyph-name="eight" unicode="8" 
d="M270 -12q-71 0 -120 24.5t-74 70t-25 107.5q0 80 38 122t95 50v10q-49 11 -81.5 53t-32.5 111q0 87 53 130.5t147 43.5q95 0 147.5 -43.5t52.5 -130.5q0 -69 -32 -111t-82 -53v-10q57 -8 95 -50t38 -122q0 -62 -25 -107.5t-73.5 -70t-120.5 -24.5zM270 58q64 0 99.5 32
t35.5 93v26q0 61 -35.5 93t-99.5 32t-99.5 -32t-35.5 -93v-26q0 -61 35.5 -93t99.5 -32zM270 401q58 0 88 27.5t30 81.5v21q0 54 -30 81.5t-88 27.5t-88 -27.5t-30 -81.5v-21q0 -54 30 -81.5t88 -27.5z" />
    <glyph glyph-name="nine" unicode="9" 
d="M483 445q0 -79 -20.5 -148t-54 -126t-73 -100.5t-78.5 -70.5h-103q68 55 116.5 106.5t80.5 112.5t49 144h-10q-10 -28 -30 -50.5t-49 -35.5t-69 -13q-56 0 -98 24t-64.5 72t-22.5 120t24.5 123.5t72 79t116.5 27.5q70 0 117 -30.5t71.5 -89.5t24.5 -145zM270 334
q42 0 70.5 16t43.5 47.5t15 79.5v20q0 48 -15 80t-43.5 47.5t-70.5 15.5q-41 0 -70 -15.5t-44 -47.5t-15 -80v-20q0 -48 15 -79.5t44 -47.5t70 -16z" />
    <glyph glyph-name="colon" unicode=":" horiz-adv-x="258" 
d="M129 -12q-29 0 -44 13t-15 38v16q0 25 15 38t44 13t44 -13t15 -38v-16q0 -25 -15 -38t-44 -13zM129 404q-29 0 -44 13t-15 38v16q0 25 15 38t44 13t44 -13t15 -38v-16q0 -25 -15 -38t-44 -13z" />
    <glyph glyph-name="semicolon" unicode=";" horiz-adv-x="258" 
d="M129 106q29 0 44 -13t15 -38v-16q0 -39 -23.5 -86.5t-62.5 -84.5h-62q27 32 44.5 59.5t24.5 62.5q-19 5 -29 17t-10 32v16q0 25 15 38t44 13zM129 404q-29 0 -44 13t-15 38v16q0 25 15 38t44 13t44 -13t15 -38v-16q0 -25 -15 -38t-44 -13z" />
    <glyph glyph-name="less" unicode="&#x3c;" 
d="M458 -12l-376 248v78l376 248v-81l-306 -201v-10l306 -201v-81z" />
    <glyph glyph-name="equal" unicode="=" 
d="M480 372h-420v64h420v-64zM480 174h-420v64h420v-64z" />
    <glyph glyph-name="greater" unicode="&#x3e;" 
d="M82 -12v81l306 201v10l-306 201v81l376 -248v-78z" />
    <glyph glyph-name="question" unicode="?" horiz-adv-x="431" 
d="M233 206h-73v165q74 4 115 37.5t41 97.5v26q0 52 -28.5 80.5t-75.5 28.5q-48 0 -80.5 -29.5t-44.5 -87.5l-67 26q12 48 38 84t65 56t89 20q60 0 101.5 -21t63 -62.5t21.5 -104.5q0 -59 -19.5 -99.5t-56 -66t-89.5 -39.5v-111zM196 -12q-29 0 -44 13t-15 38v16q0 25 15 38
t44 13t44 -13t15 -38v-16q0 -25 -15 -38t-44 -13z" />
    <glyph glyph-name="at" unicode="@" horiz-adv-x="803" 
d="M611 -68v-52h-208q-108 0 -186 49t-120 140.5t-42 218.5q0 129 43 223.5t123 146.5t190 52q83 0 146 -26.5t105.5 -76.5t64 -122t21.5 -163q0 -76 -18.5 -133t-54.5 -88t-91 -31q-49 0 -74 21t-31 55h-10q-6 -34 -31 -55t-62 -21q-42 0 -77 22.5t-55.5 71t-20.5 127.5
t20.5 127.5t55.5 71t77 22.5q37 0 62 -21t31 -56h10v67h72v-306q0 -43 11.5 -56.5t35.5 -13.5q42 0 64.5 47.5t22.5 129.5v60q0 93 -35.5 159t-97.5 101t-142 35q-66 0 -119.5 -23.5t-91.5 -67.5t-58.5 -103.5t-20.5 -131.5v-81q0 -70 20 -128.5t57 -101.5t89.5 -66
t117.5 -23h207zM393 134q29 0 48 11.5t28.5 34t9.5 53.5v122q0 26 -9.5 47t-28.5 33t-48 12q-46 0 -69 -29.5t-23 -82.5v-89q0 -52 23 -82t69 -30z" />
    <glyph glyph-name="A" unicode="A" horiz-adv-x="579" 
d="M558 0h-82l-62 209h-251l-62 -209h-80l218 698h100zM396 275l-81 265l-22 87h-10l-22 -87l-79 -265h214z" />
    <glyph glyph-name="B" unicode="B" horiz-adv-x="589" 
d="M83 0v698h264q79 0 121.5 -44.5t42.5 -135.5q0 -55 -16.5 -86.5t-41.5 -45t-49 -15.5v-10q18 0 40.5 -8t42.5 -26t33 -48.5t13 -76.5q0 -63 -20 -108.5t-56 -69.5t-83 -24h-291zM163 326v-256h187q32 0 53.5 11t32.5 34.5t11 59.5v46q0 36 -11 59.5t-32.5 34.5t-53.5 11
h-187zM163 628v-232h174q29 0 48.5 10t30 30.5t10.5 52.5v46q0 32 -10.5 52.5t-30 30.5t-48.5 10h-174z" />
    <glyph glyph-name="C" unicode="C" horiz-adv-x="561" 
d="M305 -12q-79 0 -135.5 38.5t-87 118.5t-30.5 204q0 125 30.5 204.5t87 118t135.5 38.5q86 0 138 -37t82 -111l-64 -39q-19 56 -55 86t-101 30q-79 0 -123 -57.5t-44 -154.5v-156q0 -97 44 -154.5t123 -57.5q68 0 105 31.5t56 91.5l64 -40q-30 -75 -84.5 -114.5
t-140.5 -39.5z" />
    <glyph glyph-name="D" unicode="D" horiz-adv-x="607" 
d="M83 0v698h219q81 0 137.5 -36.5t86 -113.5t29.5 -199q0 -121 -29.5 -198.5t-86 -114t-137.5 -36.5h-219zM163 70h139q50 0 87.5 23.5t58.5 68.5t21 109v156q0 65 -21 109.5t-58.5 68t-87.5 23.5h-139v-558z" />
    <glyph glyph-name="E" unicode="E" horiz-adv-x="526" 
d="M469 0h-386v698h386v-70h-306v-240h287v-70h-287v-248h306v-70z" />
    <glyph glyph-name="F" unicode="F" horiz-adv-x="505" 
d="M163 0h-80v698h377v-70h-297v-240h270v-70h-270v-318z" />
    <glyph glyph-name="G" unicode="G" horiz-adv-x="627" 
d="M489 0v97h-10q-11 -46 -53.5 -77.5t-119.5 -31.5q-76 0 -133 38.5t-89 118.5t-32 204q0 125 31.5 204.5t91.5 118t144 38.5q92 0 147 -40t86 -108l-66 -40q-20 55 -61 86t-106 31q-57 0 -97.5 -26t-62 -73.5t-21.5 -112.5v-156q0 -64 21.5 -112t62 -74t97.5 -26
q46 0 83.5 18t60 52t22.5 82v76h-138v70h216v-357h-74z" />
    <glyph glyph-name="H" unicode="H" horiz-adv-x="637" 
d="M474 0v318h-311v-318h-80v698h80v-310h311v310h80v-698h-80z" />
    <glyph glyph-name="I" unicode="I" horiz-adv-x="362" 
d="M309 0h-256v66h88v566h-88v66h256v-66h-88v-566h88v-66z" />
    <glyph glyph-name="J" unicode="J" horiz-adv-x="462" 
d="M90 698h294v-538q0 -53 -22.5 -91.5t-63.5 -59.5t-95 -21q-79 0 -123 42.5t-57 111.5l72 18q9 -44 33 -72.5t75 -28.5q48 0 74.5 29t26.5 87v453h-214v70z" />
    <glyph glyph-name="K" unicode="K" horiz-adv-x="574" 
d="M457 0l-203 346l-91 -114v-232h-80v698h80v-233l-6 -144h10l103 144l174 233h92l-230 -299l245 -399h-94z" />
    <glyph glyph-name="L" unicode="L" horiz-adv-x="453" 
d="M428 0h-345v698h80v-628h265v-70z" />
    <glyph glyph-name="M" unicode="M" horiz-adv-x="730" 
d="M82 0v698h106l126 -271l47 -129h8l47 129l126 271h106v-698h-78v479l7 120h-10l-52 -120l-150 -308l-150 308l-52 118h-10l7 -118v-479h-78z" />
    <glyph glyph-name="N" unicode="N" horiz-adv-x="637" 
d="M457 0l-232 453l-61 144h-10l7 -144v-453h-78v698h98l232 -453l61 -144h10l-7 144v453h78v-698h-98z" />
    <glyph glyph-name="O" unicode="O" horiz-adv-x="638" 
d="M319 -12q-84 0 -144 38.5t-91.5 118.5t-31.5 204q0 125 31.5 204.5t91.5 118t144 38.5q85 0 144.5 -38.5t91 -118t31.5 -204.5q0 -124 -31.5 -204t-91 -118.5t-144.5 -38.5zM319 59q58 0 98 26t61.5 74t21.5 112v156q0 65 -21.5 112.5t-61.5 73.5t-98 26q-57 0 -97.5 -26
t-62 -73.5t-21.5 -112.5v-156q0 -64 21.5 -112t62 -74t97.5 -26z" />
    <glyph glyph-name="P" unicode="P" horiz-adv-x="548" 
d="M163 0h-80v698h257q57 0 95.5 -22t58 -66t19.5 -111t-19.5 -111t-58 -66t-95.5 -22h-177v-300zM163 628v-258h175q30 0 49.5 10.5t29.5 32t10 53.5v66q0 33 -10 54t-29.5 31.5t-49.5 10.5h-175z" />
    <glyph glyph-name="Q" unicode="Q" horiz-adv-x="638" 
d="M457 -96v-67h-92q-40 0 -60 22.5t-20 55.5v75q-74 7 -126 48t-79.5 118t-27.5 193q0 125 31.5 204.5t91.5 118t144 38.5q85 0 144.5 -38.5t91 -118t31.5 -204.5q0 -114 -26.5 -190.5t-76.5 -117.5t-122 -50v-87h96zM319 59q58 0 98 26t61.5 74t21.5 112v156
q0 65 -21.5 112.5t-61.5 73.5t-98 26q-57 0 -97.5 -26t-62 -73.5t-21.5 -112.5v-156q0 -64 21.5 -112t62 -74t97.5 -26z" />
    <glyph glyph-name="R" unicode="R" horiz-adv-x="578" 
d="M163 300v-300h-80v698h257q57 0 95.5 -22t58 -66t19.5 -111q0 -85 -31 -133t-93 -61l141 -305h-90l-131 300h-146zM163 368h175q30 0 49.5 10.5t29.5 32t10 53.5v68q0 33 -10 54t-29.5 31.5t-49.5 10.5h-175v-260z" />
    <glyph glyph-name="S" unicode="S" horiz-adv-x="525" 
d="M261 -12q-75 0 -131 32t-93 87l58 48q32 -46 72 -72t94 -26q70 0 106 33.5t36 99.5q0 36 -11 60t-36.5 40t-68.5 26l-52 13q-61 15 -100.5 39.5t-59 62t-19.5 91.5q0 62 26.5 104t74 63t111.5 21q73 0 122.5 -27t86.5 -85l-59 -42q-27 42 -62 63.5t-91 21.5
q-64 0 -97.5 -28t-33.5 -91q0 -33 12 -56t38 -37.5t66 -24.5l52 -13q65 -16 104.5 -41t57 -63.5t17.5 -96.5q0 -65 -26.5 -110.5t-76 -68.5t-117.5 -23z" />
    <glyph glyph-name="T" unicode="T" horiz-adv-x="516" 
d="M495 628h-197v-628h-80v628h-197v70h474v-70z" />
    <glyph glyph-name="U" unicode="U" horiz-adv-x="611" 
d="M78 698h80v-452q0 -62 14 -104t46 -62.5t87 -20.5t87 20.5t46 62.5t14 104v452h80v-436q0 -93 -22 -154t-71.5 -90.5t-133.5 -29.5t-133.5 29.5t-71.5 90.5t-22 154v436z" />
    <glyph glyph-name="V" unicode="V" horiz-adv-x="549" 
d="M324 0h-100l-205 698h84l132 -451l35 -177h10l35 177l133 451h82z" />
    <glyph glyph-name="W" unicode="W" horiz-adv-x="808" 
d="M272 0h-100l-153 698h83l94 -451l25 -167h10l25 167l95 451h108l95 -451l25 -167h10l25 167l94 451h81l-159 -698h-100l-96 451l-25 177h-10l-25 -177z" />
    <glyph glyph-name="X" unicode="X" horiz-adv-x="555" 
d="M21 0l206 355l-199 343h93l152 -274h10l157 274h88l-201 -340l206 -358h-93l-160 288h-10l-161 -288h-88z" />
    <glyph glyph-name="Y" unicode="Y" horiz-adv-x="534" 
d="M307 0h-80v276l-216 422h91l161 -332h10l161 332h89l-216 -422v-276z" />
    <glyph glyph-name="Z" unicode="Z" horiz-adv-x="524" 
d="M491 70v-70h-458v72l359 556h-343v70h430v-72l-359 -556h371z" />
    <glyph glyph-name="bracketleft" unicode="[" horiz-adv-x="286" 
d="M233 -138h-150v898h150v-60h-84v-778h84v-60z" />
    <glyph glyph-name="backslash" unicode="\" horiz-adv-x="349" 
d="M341 -151h-67l-237 891h67z" />
    <glyph glyph-name="bracketright" unicode="]" horiz-adv-x="286" 
d="M53 760h150v-898h-150v60h84v778h-84v60z" />
    <glyph glyph-name="asciicircum" unicode="^" 
d="M498 326l-61 -29l-162 333h-10l-163 -333l-59 29l184 372h86z" />
    <glyph glyph-name="underscore" unicode="_" horiz-adv-x="508" 
d="M481 -163h-454v66h454v-66z" />
    <glyph glyph-name="grave" unicode="`" 
d="M263 585l-97 158l69 36l77 -169z" />
    <glyph glyph-name="a" unicode="a" horiz-adv-x="483" 
d="M456 0h-54q-24 0 -40.5 8.5t-25 25t-8.5 40.5v20l10 -10h-20q-13 -46 -48 -71t-82 -25q-75 0 -112 38.5t-37 111.5q0 48 21 83t64.5 54t110.5 19h93v57q0 57 -25.5 84t-80.5 27q-44 0 -72 -19.5t-48 -56.5l-45 42q20 41 64.5 70t103.5 29q87 0 133 -42.5t46 -125.5v-292
h52v-67zM328 236h-95q-60 0 -87.5 -20t-27.5 -58v-28q0 -39 24.5 -57.5t64.5 -18.5q35 0 62.5 15t43 39t15.5 50v78z" />
    <glyph glyph-name="b" unicode="b" horiz-adv-x="524" 
d="M76 0v740h76v-308h10q15 50 48.5 73t81.5 23q62 0 103.5 -33t63 -93.5t21.5 -143.5t-21.5 -143.5t-63 -93.5t-103.5 -33q-48 0 -81.5 23t-48.5 73h-10v-84h-76zM269 56q63 0 96 40t33 110v104q0 71 -33 110.5t-96 39.5q-32 0 -58.5 -12.5t-42.5 -34.5t-16 -51v-208
q0 -29 16 -51t42.5 -34.5t58.5 -12.5z" />
    <glyph glyph-name="c" unicode="c" horiz-adv-x="454" 
d="M246 -12q-96 0 -150.5 63t-54.5 207t54.5 207t150.5 63q73 0 116.5 -33.5t63.5 -85.5l-63 -32q-13 40 -41 61.5t-76 21.5q-63 0 -93 -37t-30 -113v-104q0 -76 30 -113t93 -37q50 0 80.5 22.5t48.5 66.5l56 -39q-23 -53 -69.5 -85.5t-115.5 -32.5z" />
    <glyph glyph-name="d" unicode="d" horiz-adv-x="524" 
d="M372 0v84h-10q-15 -50 -48.5 -73t-81.5 -23q-61 0 -103 33t-63.5 93.5t-21.5 143.5t21.5 143.5t63.5 93.5t103 33q48 0 81.5 -23t48.5 -73h10v308h76v-740h-76zM255 56q32 0 58.5 12.5t42.5 34.5t16 51v208q0 29 -16 51t-42.5 34.5t-58.5 12.5q-63 0 -96 -39.5
t-33 -110.5v-104q0 -70 33 -110t96 -40z" />
    <glyph glyph-name="e" unicode="e" horiz-adv-x="495" 
d="M252 -12q-60 0 -108 27.5t-75.5 87t-27.5 155.5t27.5 155.5t75.5 87t108 27.5q61 0 106 -27.5t70 -87t25 -155.5v-19h-331v-33q0 -76 34.5 -113.5t95.5 -37.5q52 0 85 23t52 67l52 -38q-24 -52 -70.5 -85.5t-118.5 -33.5zM252 464q-41 0 -70 -17.5t-44.5 -51.5t-15.5 -85
v-13h250v13q0 51 -13.5 85t-40 51.5t-66.5 17.5z" />
    <glyph glyph-name="f" unicode="f" horiz-adv-x="294" 
d="M101 0v449h-75v67h75v126q0 51 23.5 74.5t74.5 23.5h77v-67h-99v-157h99v-67h-99v-449h-76z" />
    <glyph glyph-name="g" unicode="g" horiz-adv-x="477" 
d="M470 -58q0 -54 -24.5 -88t-75 -50t-127.5 -16q-74 0 -119.5 14.5t-66 43.5t-20.5 70t21 65.5t54 30.5v14q-20 11 -31.5 28.5t-11.5 41.5q0 32 19 55.5t60 27.5v11q-40 20 -62.5 60t-22.5 99t22 98.5t62 59.5t93 20q25 0 46.5 -4.5t40.5 -12.5v18q0 29 13 42t42 13h69v-67
h-89v-28q26 -22 40.5 -57t14.5 -82q0 -58 -22 -98t-61.5 -60t-93.5 -20q-13 0 -25.5 1.5t-23.5 3.5q-28 -5 -42.5 -22.5t-14.5 -35.5q0 -19 14.5 -29.5t45.5 -10.5h113q87 0 125 -35t38 -101zM399 -63q0 34 -21.5 51.5t-71.5 17.5h-157q-22 -11 -32 -28t-10 -43
q0 -39 24.5 -61.5t76.5 -22.5h66q62 0 93.5 20.5t31.5 65.5zM240 233q47 0 73 24.5t26 73.5v37q0 50 -26 74t-73 24q-46 0 -72.5 -24t-26.5 -74v-37q0 -49 26.5 -73.5t72.5 -24.5z" />
    <glyph glyph-name="h" unicode="h" horiz-adv-x="513" 
d="M76 0v740h76v-308h10q15 47 46.5 71.5t85.5 24.5q69 0 108.5 -47t39.5 -145v-336h-76v331q0 62 -25.5 95t-78.5 33q-30 0 -55 -13t-40 -36.5t-15 -57.5v-352h-76z" />
    <glyph glyph-name="i" unicode="i" horiz-adv-x="228" 
d="M114 641q-25 0 -36 11t-11 30v16q0 20 11 30.5t36 10.5t36 -10.5t11 -30.5v-16q0 -19 -11 -30t-36 -11zM76 0v516h76v-516h-76z" />
    <glyph glyph-name="j" unicode="j" horiz-adv-x="228" 
d="M76 -133v649h76v-618q0 -51 -23.5 -74.5t-74.5 -23.5h-54v67h76zM114 641q-25 0 -36 11t-11 30v16q0 20 11 30.5t36 10.5t36 -10.5t11 -30.5v-16q0 -19 -11 -30t-36 -11z" />
    <glyph glyph-name="k" unicode="k" horiz-adv-x="477" 
d="M76 0v740h76v-380l-6 -101h8l72 97l129 160h92l-171 -205l186 -311h-91l-151 266l-68 -80v-186h-76z" />
    <glyph glyph-name="l" unicode="l" horiz-adv-x="247" 
d="M217 0h-63q-40 0 -59 19t-19 59v662h76v-673h65v-67z" />
    <glyph glyph-name="m" unicode="m" horiz-adv-x="787" 
d="M152 0h-76v516h76v-84h10q15 47 44.5 71.5t81.5 24.5q47 0 81.5 -23.5t50.5 -72.5h10q16 47 50.5 71.5t89.5 24.5q66 0 106 -47t40 -145v-336h-76v331q0 62 -25 95t-75 33q-29 0 -53.5 -13t-38.5 -36.5t-14 -57.5v-352h-76v331q0 62 -25 95t-75 33q-29 0 -53.5 -13
t-38.5 -36.5t-14 -57.5v-352z" />
    <glyph glyph-name="n" unicode="n" horiz-adv-x="513" 
d="M152 0h-76v516h76v-84h10q15 47 46.5 71.5t85.5 24.5q69 0 108.5 -47t39.5 -145v-336h-76v331q0 62 -25.5 95t-78.5 33q-30 0 -55 -13t-40 -36.5t-15 -57.5v-352z" />
    <glyph glyph-name="o" unicode="o" horiz-adv-x="504" 
d="M252 -12q-60 0 -108 27.5t-75.5 87t-27.5 155.5t27.5 155.5t75.5 87t108 27.5q61 0 108.5 -27.5t75 -87t27.5 -155.5t-27.5 -155.5t-75 -87t-108.5 -27.5zM252 56q62 0 95.5 37t33.5 113v104q0 76 -33.5 113t-95.5 37q-61 0 -95 -37t-34 -113v-104q0 -76 34 -113t95 -37z
" />
    <glyph glyph-name="p" unicode="p" horiz-adv-x="524" 
d="M76 -200v716h76v-84h10q15 50 48.5 73t81.5 23q62 0 103.5 -33t63 -93.5t21.5 -143.5t-21.5 -143.5t-63 -93.5t-103.5 -33q-48 0 -81.5 23t-48.5 73h-10v-284h-76zM269 56q63 0 96 40t33 110v104q0 71 -33 110.5t-96 39.5q-32 0 -58.5 -12.5t-42.5 -34.5t-16 -51v-208
q0 -29 16 -51t42.5 -34.5t58.5 -12.5z" />
    <glyph glyph-name="q" unicode="q" horiz-adv-x="524" 
d="M372 -200v284h-10q-15 -50 -48.5 -73t-81.5 -23q-61 0 -103 33t-63.5 93.5t-21.5 143.5t21.5 143.5t63.5 93.5t103 33q48 0 81.5 -23t48.5 -73h10v84h76v-716h-76zM255 56q32 0 58.5 12.5t42.5 34.5t16 51v208q0 29 -16 51t-42.5 34.5t-58.5 12.5q-63 0 -96 -39.5
t-33 -110.5v-104q0 -70 33 -110t96 -40z" />
    <glyph glyph-name="r" unicode="r" horiz-adv-x="332" 
d="M152 0h-76v516h76v-96h10q9 30 26 51.5t42.5 33t58.5 11.5h28v-77h-50q-36 0 -61.5 -11t-39.5 -32t-14 -53v-343z" />
    <glyph glyph-name="s" unicode="s" horiz-adv-x="439" 
d="M219 -12q-64 0 -109.5 26t-77.5 72l53 44q27 -38 59 -58t75 -20q45 0 71.5 22.5t26.5 64.5q0 34 -17 55t-63 29l-39 7q-49 9 -82 26.5t-49.5 47t-16.5 73.5q0 79 46 114.5t119 35.5q39 0 69 -9t54 -27t43 -44l-49 -45q-16 24 -44.5 42.5t-72.5 18.5q-46 0 -68.5 -21
t-22.5 -62q0 -37 20 -55t63 -26l39 -7q79 -14 112 -49.5t33 -94.5q0 -50 -19.5 -86t-58 -55t-94.5 -19z" />
    <glyph glyph-name="t" unicode="t" horiz-adv-x="318" 
d="M273 0h-93q-40 0 -59 19t-19 59v371h-76v67h45q23 0 30.5 12t7.5 34v96h69v-142h100v-67h-100v-382h95v-67z" />
    <glyph glyph-name="u" unicode="u" horiz-adv-x="513" 
d="M361 0v84h-10q-15 -47 -46.5 -71.5t-85.5 -24.5q-69 0 -108.5 47.5t-39.5 144.5v336h76v-331q0 -61 26 -94.5t78 -33.5q31 0 55.5 13t39.5 37t15 57v352h76v-516h-76z" />
    <glyph glyph-name="v" unicode="v" horiz-adv-x="445" 
d="M268 0h-90l-162 516h76l79 -260l48 -189h10l48 189l79 260h74z" />
    <glyph glyph-name="w" unicode="w" horiz-adv-x="698" 
d="M151 0l-124 516h74l50 -224l44 -225h10l51 225l52 224h88l52 -224l51 -225h10l44 225l50 224h72l-124 -516h-96l-63 250l-35 189h-10l-37 -189l-63 -250h-96z" />
    <glyph glyph-name="x" unicode="x" horiz-adv-x="459" 
d="M19 0l170 263l-163 253h86l115 -188h10l117 188h83l-162 -250l167 -266h-86l-119 202h-10l-125 -202h-83z" />
    <glyph glyph-name="y" unicode="y" horiz-adv-x="451" 
d="M277 256l79 260h74l-204 -648q-8 -27 -18.5 -41.5t-27.5 -20.5t-46 -6h-56v67h79l30 105l-171 544h76l79 -260l48 -189h10z" />
    <glyph glyph-name="z" unicode="z" horiz-adv-x="421" 
d="M391 0h-361v58l263 391h-255v67h345v-58l-263 -391h271v-67z" />
    <glyph glyph-name="braceleft" unicode="{" horiz-adv-x="310" 
d="M257 -138h-85q-36 0 -50.5 14.5t-14.5 48.5v274q0 33 -24.5 53.5t-62.5 20.5v76q38 0 62.5 20.5t24.5 53.5v274q0 34 14.5 48.5t50.5 14.5h85v-60h-84v-277q0 -27 -13.5 -51t-37.5 -39t-54 -16v-12q30 0 54 -15.5t37.5 -39.5t13.5 -51v-277h84v-60z" />
    <glyph glyph-name="bar" unicode="|" horiz-adv-x="288" 
d="M176 -138h-64v898h64v-898z" />
    <glyph glyph-name="braceright" unicode="}" horiz-adv-x="310" 
d="M53 760h85q36 0 50.5 -14.5t14.5 -48.5v-274q0 -33 25 -53.5t62 -20.5v-76q-37 0 -62 -20.5t-25 -53.5v-274q0 -34 -14.5 -48.5t-50.5 -14.5h-85v60h84v277q0 27 14 51t37.5 39.5t53.5 15.5v12q-30 1 -53.5 16t-37.5 39.5t-14 50.5v277h-84v60z" />
    <glyph glyph-name="asciitilde" unicode="~" 
d="M377 237q-33 0 -59.5 9.5t-57.5 25.5q-25 13 -52 24.5t-50 11.5t-39.5 -7t-34.5 -24l-33 41q19 26 45.5 40.5t66.5 14.5q33 0 59.5 -9.5t57.5 -25.5q25 -13 52 -24.5t50 -11.5t39.5 7t34.5 23l33 -40q-19 -26 -45 -40.5t-67 -14.5z" />
    <glyph glyph-name="uni00A0" unicode="&#xa0;" horiz-adv-x="212" 
 />
    <glyph glyph-name="exclamdown" unicode="&#xa1;" horiz-adv-x="258" 
d="M171 -182h-84v204l23 311h38l23 -311v-204zM129 410q-29 0 -44 13t-15 38v16q0 25 15 38t44 13t44 -13t15 -38v-16q0 -25 -15 -38t-44 -13z" />
    <glyph glyph-name="cent" unicode="&#xa2;" horiz-adv-x="465" 
d="M274 -114h-64v104q-79 11 -124 74.5t-45 193.5t45 194t124 74v104h64v-103q60 -7 97 -39t55 -79l-63 -32q-11 34 -33 55t-58 26v-400q38 5 62.5 27t40.5 60l56 -39q-21 -48 -60 -79t-97 -37v-104zM123 206q0 -64 21.5 -101t67.5 -46v398q-46 -9 -67.5 -45.5t-21.5 -101.5
v-104z" />
    <glyph glyph-name="sterling" unicode="&#xa3;" horiz-adv-x="535" 
d="M466 0h-393v92q36 18 50.5 50.5t14.5 90.5q0 14 -1.5 27.5t-4.5 26.5h-80v65h63q-10 32 -18 67.5t-8 79.5q0 67 23.5 114t69 72t112.5 25q71 0 115.5 -27t72.5 -77l-59 -43q-21 37 -51 57t-80 20q-59 0 -90 -33t-31 -115q0 -42 7.5 -75.5t15.5 -64.5h189v-65h-172
q2 -12 3.5 -24.5t1.5 -26.5q0 -63 -26.5 -105t-66.5 -52v-9h343v-70z" />
    <glyph glyph-name="currency" unicode="&#xa4;" horiz-adv-x="544" 
d="M272 119q-26 0 -50 5t-44 15l-69 -118l-61 35l74 126q-26 30 -40 72.5t-14 94.5t14 94.5t40 72.5l-74 126l61 35l69 -118q20 10 44 15t50 5t50 -5t44 -15l69 118l61 -35l-74 -126q26 -30 40 -72.5t14 -94.5t-14 -94.5t-40 -72.5l74 -126l-61 -35l-69 118q-20 -10 -44 -15
t-50 -5zM272 186q53 0 86 32.5t33 98.5v64q0 66 -33 98.5t-86 32.5t-86 -32.5t-33 -98.5v-64q0 -66 33 -98.5t86 -32.5z" />
    <glyph glyph-name="yen" unicode="&#xa5;" horiz-adv-x="546" 
d="M470 145h-157v-145h-80v145h-157v65h157v98h-157v65h119l-164 325h91l147 -310h10l147 310h89l-164 -325h119v-65h-157v-98h157v-65z" />
    <glyph glyph-name="brokenbar" unicode="&#xa6;" horiz-adv-x="288" 
d="M176 406h-64v354h64v-354zM176 -138h-64v354h64v-354z" />
    <glyph glyph-name="section" unicode="&#xa7;" horiz-adv-x="526" 
d="M428 3q0 -52 -22.5 -87.5t-63 -53t-93.5 -17.5q-43 0 -82 12.5t-70 40.5l43 54q21 -19 48 -29.5t62 -10.5q49 0 77 21.5t28 68.5q0 27 -11 45t-32 30.5t-50 22.5l-58 19q-52 17 -82 40t-42.5 51.5t-12.5 62.5q0 47 26 85.5t72 53.5v10q-30 20 -48.5 52t-18.5 79
q0 52 22.5 86.5t62.5 52.5t93 18q43 0 83 -12t71 -41l-44 -54q-21 20 -48 30t-63 10q-49 0 -76.5 -21.5t-27.5 -68.5q0 -26 11 -44.5t32 -31t50 -22.5l57 -19q54 -18 84 -41t42.5 -51t12.5 -62q0 -46 -26 -85t-73 -54v-9q32 -21 49.5 -53t17.5 -78zM386 263q0 29 -9 50
t-31.5 36.5t-62.5 27.5l-57 17q-7 2 -14.5 5t-14.5 6q-26 -21 -41.5 -49t-15.5 -64q0 -43 21.5 -69.5t81.5 -44.5l56 -17q8 -2 15 -5l14 -6q26 22 42 49.5t16 63.5z" />
    <glyph glyph-name="dieresis" unicode="&#xa8;" 
d="M184 620q-25 0 -37.5 10.5t-12.5 29.5v18q0 19 12.5 29.5t37.5 10.5t37.5 -10.5t12.5 -29.5v-18q0 -19 -12.5 -29.5t-37.5 -10.5zM356 620q-25 0 -37.5 10.5t-12.5 29.5v18q0 19 12.5 29.5t37.5 10.5t37.5 -10.5t12.5 -29.5v-18q0 -19 -12.5 -29.5t-37.5 -10.5z" />
    <glyph glyph-name="copyright" unicode="&#xa9;" horiz-adv-x="700" 
d="M350 -12q-86 0 -155.5 41t-110.5 121.5t-41 198.5t41 198.5t110.5 121.5t155.5 41t155.5 -41t110.5 -121.5t41 -198.5t-41 -198.5t-110.5 -121.5t-155.5 -41zM350 45q71 0 125 33.5t84.5 93t30.5 137.5v80q0 78 -30.5 137.5t-84.5 93t-125 33.5q-70 0 -124.5 -33.5
t-85 -93t-30.5 -137.5v-80q0 -78 30.5 -137.5t85 -93t124.5 -33.5zM357 156q-79 0 -117 49.5t-38 143.5t38 143.5t117 49.5q49 0 78 -22.5t45 -59.5l-53 -31q-10 25 -25.5 39t-44.5 14q-40 0 -60.5 -25.5t-20.5 -69.5v-76q0 -44 20.5 -69.5t60.5 -25.5q31 0 47.5 15.5
t29.5 40.5l52 -33q-16 -37 -47 -60t-82 -23z" />
    <glyph glyph-name="ordfeminine" unicode="&#xaa;" horiz-adv-x="362" 
d="M327 413v-55h-37q-26 0 -41 12.5t-15 40.5v12l10 -10h-18q-10 -28 -34 -45.5t-59 -17.5q-48 0 -72.5 26.5t-24.5 71.5q0 55 34.5 79.5t100.5 24.5h63v34q0 41 -16 57.5t-51 16.5q-31 0 -51.5 -13.5t-29.5 -36.5l-39 33q13 25 42.5 46t81.5 21q59 0 90.5 -30.5t31.5 -90.5
v-176h34zM234 507h-64q-36 0 -55.5 -11t-19.5 -32v-19q0 -23 13.5 -34t40.5 -11q35 0 60 18t25 48v41z" />
    <glyph glyph-name="guillemotleft" unicode="&#xab;" horiz-adv-x="463" 
d="M231 151l-26 -53l-172 151v72l172 151l26 -53l-121 -130v-8zM420 151l-26 -53l-172 151v72l172 151l26 -53l-121 -130v-8z" />
    <glyph glyph-name="logicalnot" unicode="&#xac;" 
d="M480 78h-72v195h-348v64h420v-259z" />
    <glyph glyph-name="uni00AD" unicode="&#xad;" horiz-adv-x="0" 
 />
    <glyph glyph-name="registered" unicode="&#xae;" horiz-adv-x="428" 
d="M214 298q-53 0 -94.5 24.5t-65 71t-23.5 110.5q0 65 23.5 111t65 70.5t94.5 24.5t94.5 -24.5t65 -70.5t23.5 -111q0 -64 -23.5 -110.5t-65 -71t-94.5 -24.5zM214 335q45 0 75.5 20t46.5 53.5t16 72.5v46q0 40 -16 73t-46.5 53t-75.5 20q-44 0 -75 -20t-47 -53t-16 -73
v-46q0 -39 16 -72.5t47 -53.5t75 -20zM180 480v-80h-38v208h88q28 0 42.5 -15.5t14.5 -47.5q0 -25 -8.5 -40.5t-25.5 -20.5l43 -84h-42l-39 80h-35zM180 512h48q11 0 15 5.5t4 15.5v22q0 11 -4 16t-15 5h-48v-64z" />
    <glyph glyph-name="macron" unicode="&#xaf;" 
d="M143 639v64h254v-64h-254z" />
    <glyph glyph-name="degree" unicode="&#xb0;" horiz-adv-x="422" 
d="M212 384q-44 0 -80 19.5t-57 56.5t-21 87q0 51 21 87.5t57 56t80 19.5q45 0 80.5 -19.5t56.5 -56t21 -87.5q0 -50 -21 -87t-56.5 -56.5t-80.5 -19.5zM212 443q27 0 48 12.5t32.5 36t11.5 55.5q0 33 -11.5 56t-32.5 35.5t-48 12.5t-47.5 -12.5t-32.5 -35.5t-12 -56
q0 -32 12 -55.5t32.5 -36t47.5 -12.5z" />
    <glyph glyph-name="plusminus" unicode="&#xb1;" 
d="M306 169h-72v182h-174v64h174v182h72v-182h174v-64h-174v-182zM480 0h-420v64h420v-64z" />
    <glyph glyph-name="twosuperior" unicode="&#xb2;" horiz-adv-x="320" 
d="M286 377v-48h-246v54l115 105q26 24 41.5 46t15.5 47v23q0 22 -13.5 36t-44.5 14q-34 0 -48 -17t-21 -42l-51 20q11 35 38.5 62t85.5 27q61 0 88.5 -29.5t27.5 -79.5q0 -45 -24.5 -77t-62.5 -65l-87 -76h186z" />
    <glyph glyph-name="threesuperior" unicode="&#xb3;" horiz-adv-x="320" 
d="M111 544h35q34 0 50 13.5t16 33.5v20q0 22 -15.5 33.5t-41.5 11.5q-31 0 -46 -12t-27 -33l-40 32q16 25 41 43t74 18q50 0 83.5 -22t33.5 -73q0 -39 -21 -58.5t-50 -26.5v-6q32 -4 54.5 -25t22.5 -62q0 -55 -34.5 -81.5t-92.5 -26.5q-55 0 -81.5 20t-43.5 45l44 33
q13 -22 28 -36t51 -14q32 0 49.5 14.5t17.5 39.5v23q0 25 -18 36.5t-51 11.5h-38v48z" />
    <glyph glyph-name="acute" unicode="&#xb4;" 
d="M374 743l-97 -158l-49 25l77 169z" />
    <glyph glyph-name="mu" unicode="&#xb5;" horiz-adv-x="518" 
d="M151 -200h-75v716h76v-331q0 -61 26 -94.5t78 -33.5q31 0 55.5 13t39.5 37t15 57v352h76v-516h-76v84h-10q-15 -46 -42 -71t-74 -25q-29 0 -55 14.5t-35 39.5h-8l9 -83v-159z" />
    <glyph glyph-name="paragraph" unicode="&#xb6;" horiz-adv-x="588" 
d="M221 -149v451q-53 0 -92.5 25t-61 70t-21.5 103q0 59 21.5 103.5t61 69.5t92.5 25h295v-65h-60v-782h-70v782h-95v-782h-70z" />
    <glyph glyph-name="periodcentered" unicode="&#xb7;" horiz-adv-x="296" 
d="M148 245q-29 0 -44 13t-15 38v16q0 25 15 38t44 13t44 -13t15 -38v-16q0 -25 -15 -38t-44 -13z" />
    <glyph glyph-name="cedilla" unicode="&#xb8;" 
d="M280 -207q-37 0 -59 14t-33 27l35 39q10 -10 23.5 -19t33.5 -9q21 0 31.5 8t10.5 26t-10.5 26t-31.5 8h-49l18 97h46l-15 -80h8q5 7 13 11.5t23 4.5q28 0 43 -18t15 -52q0 -28 -14 -46.5t-37.5 -27.5t-50.5 -9z" />
    <glyph glyph-name="onesuperior" unicode="&#xb9;" horiz-adv-x="320" 
d="M291 329h-242v48h96v273h-6l-73 -74l-36 32l90 90h85v-321h86v-48z" />
    <glyph glyph-name="ordmasculine" unicode="&#xba;" horiz-adv-x="360" 
d="M180 350q-66 0 -103.5 43.5t-37.5 136.5t37.5 136.5t103.5 43.5t103.5 -43.5t37.5 -136.5t-37.5 -136.5t-103.5 -43.5zM180 400q39 0 58 23t19 66v82q0 44 -19 66.5t-58 22.5t-58 -22.5t-19 -66.5v-82q0 -43 19 -66t58 -23z" />
    <glyph glyph-name="guillemotright" unicode="&#xbb;" horiz-adv-x="463" 
d="M43 151l121 130v8l-121 130l26 53l172 -151v-72l-172 -151zM232 151l121 130v8l-121 130l26 53l172 -151v-72l-172 -151z" />
    <glyph glyph-name="onequarter" unicode="&#xbc;" horiz-adv-x="732" 
d="M291 329h-242v48h96v273h-6l-73 -74l-36 32l90 90h85v-321h86v-48zM196 0h-62l440 698h62zM660 0h-56v72h-170v50l142 247h84v-251h50v-46h-50v-72zM604 118v198h-6l-113 -198h119z" />
    <glyph glyph-name="onehalf" unicode="&#xbd;" horiz-adv-x="760" 
d="M291 329h-242v48h96v273h-6l-73 -74l-36 32l90 90h85v-321h86v-48zM196 0h-62l440 698h62zM726 48v-48h-246v54l115 105q26 24 41.5 46t15.5 47v23q0 22 -13.5 36t-44.5 14q-34 0 -48 -17t-21 -42l-51 20q11 35 38.5 62t85.5 27q61 0 88.5 -29.5t27.5 -79.5
q0 -45 -24.5 -77t-62.5 -65l-87 -76h186z" />
    <glyph glyph-name="threequarters" unicode="&#xbe;" horiz-adv-x="722" 
d="M111 544h35q34 0 50 13.5t16 33.5v20q0 22 -15.5 33.5t-41.5 11.5q-31 0 -46 -12t-27 -33l-40 32q16 25 41 43t74 18q50 0 83.5 -22t33.5 -73q0 -39 -21 -58.5t-50 -26.5v-6q32 -4 54.5 -25t22.5 -62q0 -55 -34.5 -81.5t-92.5 -26.5q-55 0 -81.5 20t-43.5 45l44 33
q13 -22 28 -36t51 -14q32 0 49.5 14.5t17.5 39.5v23q0 25 -18 36.5t-51 11.5h-38v48zM186 0h-62l440 698h62zM650 0h-56v72h-170v50l142 247h84v-251h50v-46h-50v-72zM594 118v198h-6l-113 -198h119z" />
    <glyph glyph-name="questiondown" unicode="&#xbf;" horiz-adv-x="422" 
d="M215 -195q-55 0 -96 23.5t-63.5 65.5t-22.5 99q0 65 24.5 107.5t62.5 66.5t78 32v110h73v-165q-73 -4 -115 -40.5t-42 -100.5v-14q0 -52 29 -83t75 -31q51 0 82 34t41 85l69 -26q-11 -43 -35 -80.5t-63.5 -60t-96.5 -22.5zM236 410q-29 0 -44 13t-15 38v16q0 25 15 38
t44 13t44 -13t15 -38v-16q0 -25 -15 -38t-44 -13z" />
    <glyph glyph-name="Agrave" unicode="&#xc0;" horiz-adv-x="579" 
d="M558 0h-82l-62 209h-251l-62 -209h-80l218 698h100zM396 275l-81 265l-22 87h-10l-22 -87l-79 -265h214zM284 755l-97 158l69 36l77 -169z" />
    <glyph glyph-name="Aacute" unicode="&#xc1;" horiz-adv-x="579" 
d="M558 0h-82l-62 209h-251l-62 -209h-80l218 698h100zM396 275l-81 265l-22 87h-10l-22 -87l-79 -265h214zM395 913l-97 -158l-49 25l77 169z" />
    <glyph glyph-name="Acircumflex" unicode="&#xc2;" horiz-adv-x="579" 
d="M558 0h-82l-62 209h-251l-62 -209h-80l218 698h100zM396 275l-81 265l-22 87h-10l-22 -87l-79 -265h214zM245 935h92l101 -144l-41 -30l-106 118l-106 -118l-41 30z" />
    <glyph glyph-name="Atilde" unicode="&#xc3;" horiz-adv-x="579" 
d="M558 0h-82l-62 209h-251l-62 -209h-80l218 698h100zM396 275l-81 265l-22 87h-10l-22 -87l-79 -265h214zM358 784q-16 0 -32.5 6t-41.5 20q-23 14 -37 19.5t-25 5.5q-15 0 -27 -7.5t-26 -20.5l-30 38q16 26 37.5 39t47.5 13q17 0 33 -6t41 -20q23 -13 37.5 -19t24.5 -6
q15 0 27.5 7.5t25.5 20.5l30 -38q-16 -25 -37.5 -38.5t-47.5 -13.5z" />
    <glyph glyph-name="Adieresis" unicode="&#xc4;" horiz-adv-x="579" 
d="M558 0h-82l-62 209h-251l-62 -209h-80l218 698h100zM396 275l-81 265l-22 87h-10l-22 -87l-79 -265h214zM205 792q-25 0 -37.5 10.5t-12.5 29.5v18q0 19 12.5 29.5t37.5 10.5t37.5 -10.5t12.5 -29.5v-18q0 -19 -12.5 -29.5t-37.5 -10.5zM377 792q-25 0 -37.5 10.5
t-12.5 29.5v18q0 19 12.5 29.5t37.5 10.5t37.5 -10.5t12.5 -29.5v-18q0 -19 -12.5 -29.5t-37.5 -10.5z" />
    <glyph glyph-name="Aring" unicode="&#xc5;" horiz-adv-x="579" 
d="M558 0h-82l-62 209h-251l-62 -209h-80l218 698h100zM396 275l-81 265l-22 87h-10l-22 -87l-79 -265h214zM291 746q-34 0 -58.5 15t-38 41t-13.5 59q0 34 13.5 59.5t38 40.5t58.5 15t58.5 -15t38 -40.5t13.5 -59.5q0 -33 -13.5 -59t-38 -41t-58.5 -15zM291 793
q25 0 39.5 13t14.5 38v34q0 25 -14.5 38t-39.5 13t-39.5 -13t-14.5 -38v-34q0 -25 14.5 -38t39.5 -13z" />
    <glyph glyph-name="AE" unicode="&#xc6;" horiz-adv-x="820" 
d="M377 0v208h-200l-92 -208h-82l320 698h440v-70h-306v-240h287v-70h-287v-248h306v-70h-386zM377 628h-13l-157 -354h170v354z" />
    <glyph glyph-name="Ccedilla" unicode="&#xc7;" horiz-adv-x="561" 
d="M305 639q-79 0 -123 -57.5t-44 -154.5v-156q0 -97 44 -154.5t123 -57.5q68 0 105 31.5t56 91.5l64 -40q-28 -70 -78 -109t-127 -44l-11 -59h8q5 7 13 11.5t23 4.5q28 0 43 -18t15 -52q0 -28 -14 -46.5t-37.5 -27.5t-50.5 -9q-37 0 -59 14t-33 27l35 39q10 -10 23.5 -19
t33.5 -9q21 0 31.5 8t10.5 26t-10.5 26t-31.5 8h-49l14 76q-71 6 -122 46.5t-78 118.5t-27 195q0 125 30.5 204.5t87 118t135.5 38.5q86 0 138 -37t82 -111l-64 -39q-19 56 -55 86t-101 30z" />
    <glyph glyph-name="Egrave" unicode="&#xc8;" horiz-adv-x="526" 
d="M469 0h-386v698h386v-70h-306v-240h287v-70h-287v-248h306v-70zM267 755l-97 158l69 36l77 -169z" />
    <glyph glyph-name="Eacute" unicode="&#xc9;" horiz-adv-x="526" 
d="M469 0h-386v698h386v-70h-306v-240h287v-70h-287v-248h306v-70zM378 913l-97 -158l-49 25l77 169z" />
    <glyph glyph-name="Ecircumflex" unicode="&#xca;" horiz-adv-x="526" 
d="M469 0h-386v698h386v-70h-306v-240h287v-70h-287v-248h306v-70zM228 935h92l101 -144l-41 -30l-106 118l-106 -118l-41 30z" />
    <glyph glyph-name="Edieresis" unicode="&#xcb;" horiz-adv-x="526" 
d="M469 0h-386v698h386v-70h-306v-240h287v-70h-287v-248h306v-70zM188 792q-25 0 -37.5 10.5t-12.5 29.5v18q0 19 12.5 29.5t37.5 10.5t37.5 -10.5t12.5 -29.5v-18q0 -19 -12.5 -29.5t-37.5 -10.5zM360 792q-25 0 -37.5 10.5t-12.5 29.5v18q0 19 12.5 29.5t37.5 10.5
t37.5 -10.5t12.5 -29.5v-18q0 -19 -12.5 -29.5t-37.5 -10.5z" />
    <glyph glyph-name="Igrave" unicode="&#xcc;" horiz-adv-x="362" 
d="M309 0h-256v66h88v566h-88v66h256v-66h-88v-566h88v-66zM174 755l-97 158l69 36l77 -169z" />
    <glyph glyph-name="Iacute" unicode="&#xcd;" horiz-adv-x="362" 
d="M309 0h-256v66h88v566h-88v66h256v-66h-88v-566h88v-66zM285 913l-97 -158l-49 25l77 169z" />
    <glyph glyph-name="Icircumflex" unicode="&#xce;" horiz-adv-x="362" 
d="M309 0h-256v66h88v566h-88v66h256v-66h-88v-566h88v-66zM135 935h92l101 -144l-41 -30l-106 118l-106 -118l-41 30z" />
    <glyph glyph-name="Idieresis" unicode="&#xcf;" horiz-adv-x="362" 
d="M309 0h-256v66h88v566h-88v66h256v-66h-88v-566h88v-66zM95 792q-25 0 -37.5 10.5t-12.5 29.5v18q0 19 12.5 29.5t37.5 10.5t37.5 -10.5t12.5 -29.5v-18q0 -19 -12.5 -29.5t-37.5 -10.5zM267 792q-25 0 -37.5 10.5t-12.5 29.5v18q0 19 12.5 29.5t37.5 10.5t37.5 -10.5
t12.5 -29.5v-18q0 -19 -12.5 -29.5t-37.5 -10.5z" />
    <glyph glyph-name="Eth" unicode="&#xd0;" horiz-adv-x="610" 
d="M86 0v336h-64v60h64v302h219q81 0 137.5 -36.5t86 -113.5t29.5 -199q0 -121 -29.5 -198.5t-86 -114t-137.5 -36.5h-219zM166 70h139q50 0 87.5 23.5t58.5 68.5t21 109v156q0 65 -21 109.5t-58.5 68t-87.5 23.5h-139v-232h124v-60h-124v-266z" />
    <glyph glyph-name="Ntilde" unicode="&#xd1;" horiz-adv-x="637" 
d="M457 0l-232 453l-61 144h-10l7 -144v-453h-78v698h98l232 -453l61 -144h10l-7 144v453h78v-698h-98zM385 784q-16 0 -32.5 6t-41.5 20q-23 14 -37 19.5t-25 5.5q-15 0 -27 -7.5t-26 -20.5l-30 38q16 26 37.5 39t47.5 13q17 0 33 -6t41 -20q23 -13 37.5 -19t24.5 -6
q15 0 27.5 7.5t25.5 20.5l30 -38q-16 -25 -37.5 -38.5t-47.5 -13.5z" />
    <glyph glyph-name="Ograve" unicode="&#xd2;" horiz-adv-x="638" 
d="M319 -12q-84 0 -144 38.5t-91.5 118.5t-31.5 204q0 125 31.5 204.5t91.5 118t144 38.5q85 0 144.5 -38.5t91 -118t31.5 -204.5q0 -124 -31.5 -204t-91 -118.5t-144.5 -38.5zM319 59q58 0 98 26t61.5 74t21.5 112v156q0 65 -21.5 112.5t-61.5 73.5t-98 26q-57 0 -97.5 -26
t-62 -73.5t-21.5 -112.5v-156q0 -64 21.5 -112t62 -74t97.5 -26zM312 755l-97 158l69 36l77 -169z" />
    <glyph glyph-name="Oacute" unicode="&#xd3;" horiz-adv-x="638" 
d="M319 -12q-84 0 -144 38.5t-91.5 118.5t-31.5 204q0 125 31.5 204.5t91.5 118t144 38.5q85 0 144.5 -38.5t91 -118t31.5 -204.5q0 -124 -31.5 -204t-91 -118.5t-144.5 -38.5zM319 59q58 0 98 26t61.5 74t21.5 112v156q0 65 -21.5 112.5t-61.5 73.5t-98 26q-57 0 -97.5 -26
t-62 -73.5t-21.5 -112.5v-156q0 -64 21.5 -112t62 -74t97.5 -26zM423 913l-97 -158l-49 25l77 169z" />
    <glyph glyph-name="Ocircumflex" unicode="&#xd4;" horiz-adv-x="638" 
d="M319 -12q-84 0 -144 38.5t-91.5 118.5t-31.5 204q0 125 31.5 204.5t91.5 118t144 38.5q85 0 144.5 -38.5t91 -118t31.5 -204.5q0 -124 -31.5 -204t-91 -118.5t-144.5 -38.5zM319 59q58 0 98 26t61.5 74t21.5 112v156q0 65 -21.5 112.5t-61.5 73.5t-98 26q-57 0 -97.5 -26
t-62 -73.5t-21.5 -112.5v-156q0 -64 21.5 -112t62 -74t97.5 -26zM273 935h92l101 -144l-41 -30l-106 118l-106 -118l-41 30z" />
    <glyph glyph-name="Otilde" unicode="&#xd5;" horiz-adv-x="638" 
d="M319 -12q-84 0 -144 38.5t-91.5 118.5t-31.5 204q0 125 31.5 204.5t91.5 118t144 38.5q85 0 144.5 -38.5t91 -118t31.5 -204.5q0 -124 -31.5 -204t-91 -118.5t-144.5 -38.5zM319 59q58 0 98 26t61.5 74t21.5 112v156q0 65 -21.5 112.5t-61.5 73.5t-98 26q-57 0 -97.5 -26
t-62 -73.5t-21.5 -112.5v-156q0 -64 21.5 -112t62 -74t97.5 -26zM386 784q-16 0 -32.5 6t-41.5 20q-23 14 -37 19.5t-25 5.5q-15 0 -27 -7.5t-26 -20.5l-30 38q16 26 37.5 39t47.5 13q17 0 33 -6t41 -20q23 -13 37.5 -19t24.5 -6q15 0 27.5 7.5t25.5 20.5l30 -38
q-16 -25 -37.5 -38.5t-47.5 -13.5z" />
    <glyph glyph-name="Odieresis" unicode="&#xd6;" horiz-adv-x="638" 
d="M319 -12q-84 0 -144 38.5t-91.5 118.5t-31.5 204q0 125 31.5 204.5t91.5 118t144 38.5q85 0 144.5 -38.5t91 -118t31.5 -204.5q0 -124 -31.5 -204t-91 -118.5t-144.5 -38.5zM319 59q58 0 98 26t61.5 74t21.5 112v156q0 65 -21.5 112.5t-61.5 73.5t-98 26q-57 0 -97.5 -26
t-62 -73.5t-21.5 -112.5v-156q0 -64 21.5 -112t62 -74t97.5 -26zM233 792q-25 0 -37.5 10.5t-12.5 29.5v18q0 19 12.5 29.5t37.5 10.5t37.5 -10.5t12.5 -29.5v-18q0 -19 -12.5 -29.5t-37.5 -10.5zM405 792q-25 0 -37.5 10.5t-12.5 29.5v18q0 19 12.5 29.5t37.5 10.5
t37.5 -10.5t12.5 -29.5v-18q0 -19 -12.5 -29.5t-37.5 -10.5z" />
    <glyph glyph-name="multiply" unicode="&#xd7;" 
d="M415 115l-145 145l-145 -145l-45 45l145 145l-145 145l45 45l145 -145l145 145l45 -45l-145 -145l145 -145z" />
    <glyph glyph-name="Oslash" unicode="&#xd8;" horiz-adv-x="638" 
d="M319 -12q-47 0 -86.5 12t-71.5 36l-50 -80l-53 36l57 92q-31 44 -47 110.5t-16 154.5q0 125 31.5 204.5t91.5 118t144 38.5q47 0 87 -12t71 -36l50 80l53 -36l-57 -92q31 -44 47 -110t16 -155q0 -124 -31.5 -204t-91 -118.5t-144.5 -38.5zM319 639q-57 0 -97.5 -26
t-62 -73.5t-21.5 -112.5v-186q0 -22 5 -49t9 -41h11l156 259l119 186q-22 21 -52 32t-67 11zM319 59q58 0 98 26t61.5 74t21.5 112v186q0 23 -5 49.5t-9 40.5h-11l-156 -259l-119 -186q23 -21 52.5 -32t66.5 -11z" />
    <glyph glyph-name="Ugrave" unicode="&#xd9;" horiz-adv-x="611" 
d="M78 698h80v-452q0 -62 14 -104t46 -62.5t87 -20.5t87 20.5t46 62.5t14 104v452h80v-436q0 -93 -22 -154t-71.5 -90.5t-133.5 -29.5t-133.5 29.5t-71.5 90.5t-22 154v436zM297 755l-97 158l69 36l77 -169z" />
    <glyph glyph-name="Uacute" unicode="&#xda;" horiz-adv-x="611" 
d="M78 698h80v-452q0 -62 14 -104t46 -62.5t87 -20.5t87 20.5t46 62.5t14 104v452h80v-436q0 -93 -22 -154t-71.5 -90.5t-133.5 -29.5t-133.5 29.5t-71.5 90.5t-22 154v436zM408 913l-97 -158l-49 25l77 169z" />
    <glyph glyph-name="Ucircumflex" unicode="&#xdb;" horiz-adv-x="611" 
d="M78 698h80v-452q0 -62 14 -104t46 -62.5t87 -20.5t87 20.5t46 62.5t14 104v452h80v-436q0 -93 -22 -154t-71.5 -90.5t-133.5 -29.5t-133.5 29.5t-71.5 90.5t-22 154v436zM258 935h92l101 -144l-41 -30l-106 118l-106 -118l-41 30z" />
    <glyph glyph-name="Udieresis" unicode="&#xdc;" horiz-adv-x="611" 
d="M78 698h80v-452q0 -62 14 -104t46 -62.5t87 -20.5t87 20.5t46 62.5t14 104v452h80v-436q0 -93 -22 -154t-71.5 -90.5t-133.5 -29.5t-133.5 29.5t-71.5 90.5t-22 154v436zM218 792q-25 0 -37.5 10.5t-12.5 29.5v18q0 19 12.5 29.5t37.5 10.5t37.5 -10.5t12.5 -29.5v-18
q0 -19 -12.5 -29.5t-37.5 -10.5zM390 792q-25 0 -37.5 10.5t-12.5 29.5v18q0 19 12.5 29.5t37.5 10.5t37.5 -10.5t12.5 -29.5v-18q0 -19 -12.5 -29.5t-37.5 -10.5z" />
    <glyph glyph-name="Yacute" unicode="&#xdd;" horiz-adv-x="534" 
d="M307 0h-80v276l-216 422h91l161 -332h10l161 332h89l-216 -422v-276zM373 913l-97 -158l-49 25l77 169z" />
    <glyph glyph-name="Thorn" unicode="&#xde;" horiz-adv-x="548" 
d="M163 0h-80v698h80v-144h177q57 0 95.5 -22t58 -66t19.5 -111t-19.5 -111t-58 -66t-95.5 -22h-177v-156zM163 484v-258h175q30 0 49.5 10.5t29.5 32t10 53.5v66q0 33 -10 54t-29.5 31.5t-49.5 10.5h-175z" />
    <glyph glyph-name="germandbls" unicode="&#xdf;" horiz-adv-x="579" 
d="M557 147q0 -74 -42 -116.5t-123 -42.5q-57 0 -95.5 22t-66.5 61l51 45q23 -31 50.5 -47t65.5 -16q46 0 66.5 23t20.5 63q0 32 -14.5 52t-49.5 30l-26 8q-46 14 -75.5 32.5t-43.5 46t-14 69.5q0 69 42 106.5t118 38.5v13q0 81 -26.5 116.5t-95.5 35.5t-95.5 -35.5
t-26.5 -116.5v-535h-76v449h-75v67h75v23q0 67 21.5 114.5t65.5 73t110 25.5q67 0 110.5 -25.5t65 -73t21.5 -114.5v-79h-74q-26 0 -46 -8t-30.5 -25.5t-10.5 -45.5q0 -35 17 -52.5t57 -30.5l25 -8q66 -21 95 -52.5t29 -90.5z" />
    <glyph glyph-name="agrave" unicode="&#xe0;" horiz-adv-x="483" 
d="M456 0h-54q-24 0 -40.5 8.5t-25 25t-8.5 40.5v20l10 -10h-20q-13 -46 -48 -71t-82 -25q-75 0 -112 38.5t-37 111.5q0 48 21 83t64.5 54t110.5 19h93v57q0 57 -25.5 84t-80.5 27q-44 0 -72 -19.5t-48 -56.5l-45 42q20 41 64.5 70t103.5 29q87 0 133 -42.5t46 -125.5v-292
h52v-67zM328 236h-95q-60 0 -87.5 -20t-27.5 -58v-28q0 -39 24.5 -57.5t64.5 -18.5q35 0 62.5 15t43 39t15.5 50v78zM221 585l-97 158l69 36l77 -169z" />
    <glyph glyph-name="aacute" unicode="&#xe1;" horiz-adv-x="483" 
d="M456 0h-54q-24 0 -40.5 8.5t-25 25t-8.5 40.5v20l10 -10h-20q-13 -46 -48 -71t-82 -25q-75 0 -112 38.5t-37 111.5q0 48 21 83t64.5 54t110.5 19h93v57q0 57 -25.5 84t-80.5 27q-44 0 -72 -19.5t-48 -56.5l-45 42q20 41 64.5 70t103.5 29q87 0 133 -42.5t46 -125.5v-292
h52v-67zM328 236h-95q-60 0 -87.5 -20t-27.5 -58v-28q0 -39 24.5 -57.5t64.5 -18.5q35 0 62.5 15t43 39t15.5 50v78zM332 743l-97 -158l-49 25l77 169z" />
    <glyph glyph-name="acircumflex" unicode="&#xe2;" horiz-adv-x="483" 
d="M456 0h-54q-24 0 -40.5 8.5t-25 25t-8.5 40.5v20l10 -10h-20q-13 -46 -48 -71t-82 -25q-75 0 -112 38.5t-37 111.5q0 48 21 83t64.5 54t110.5 19h93v57q0 57 -25.5 84t-80.5 27q-44 0 -72 -19.5t-48 -56.5l-45 42q20 41 64.5 70t103.5 29q87 0 133 -42.5t46 -125.5v-292
h52v-67zM328 236h-95q-60 0 -87.5 -20t-27.5 -58v-28q0 -39 24.5 -57.5t64.5 -18.5q35 0 62.5 15t43 39t15.5 50v78zM182 765h92l101 -144l-41 -30l-106 118l-106 -118l-41 30z" />
    <glyph glyph-name="atilde" unicode="&#xe3;" horiz-adv-x="483" 
d="M456 0h-54q-24 0 -40.5 8.5t-25 25t-8.5 40.5v20l10 -10h-20q-13 -46 -48 -71t-82 -25q-75 0 -112 38.5t-37 111.5q0 48 21 83t64.5 54t110.5 19h93v57q0 57 -25.5 84t-80.5 27q-44 0 -72 -19.5t-48 -56.5l-45 42q20 41 64.5 70t103.5 29q87 0 133 -42.5t46 -125.5v-292
h52v-67zM328 236h-95q-60 0 -87.5 -20t-27.5 -58v-28q0 -39 24.5 -57.5t64.5 -18.5q35 0 62.5 15t43 39t15.5 50v78zM295 613q-16 0 -32.5 6t-41.5 20q-23 14 -37 19.5t-25 5.5q-15 0 -27 -7.5t-26 -20.5l-30 38q16 26 37.5 39t47.5 13q17 0 33 -6t41 -20q23 -13 37.5 -19
t24.5 -6q15 0 27.5 7.5t25.5 20.5l30 -38q-16 -25 -37.5 -38.5t-47.5 -13.5z" />
    <glyph glyph-name="adieresis" unicode="&#xe4;" horiz-adv-x="483" 
d="M456 0h-54q-24 0 -40.5 8.5t-25 25t-8.5 40.5v20l10 -10h-20q-13 -46 -48 -71t-82 -25q-75 0 -112 38.5t-37 111.5q0 48 21 83t64.5 54t110.5 19h93v57q0 57 -25.5 84t-80.5 27q-44 0 -72 -19.5t-48 -56.5l-45 42q20 41 64.5 70t103.5 29q87 0 133 -42.5t46 -125.5v-292
h52v-67zM328 236h-95q-60 0 -87.5 -20t-27.5 -58v-28q0 -39 24.5 -57.5t64.5 -18.5q35 0 62.5 15t43 39t15.5 50v78zM142 620q-25 0 -37.5 10.5t-12.5 29.5v18q0 19 12.5 29.5t37.5 10.5t37.5 -10.5t12.5 -29.5v-18q0 -19 -12.5 -29.5t-37.5 -10.5zM314 620
q-25 0 -37.5 10.5t-12.5 29.5v18q0 19 12.5 29.5t37.5 10.5t37.5 -10.5t12.5 -29.5v-18q0 -19 -12.5 -29.5t-37.5 -10.5z" />
    <glyph glyph-name="aring" unicode="&#xe5;" horiz-adv-x="483" 
d="M456 0h-54q-24 0 -40.5 8.5t-25 25t-8.5 40.5v20l10 -10h-20q-13 -46 -48 -71t-82 -25q-75 0 -112 38.5t-37 111.5q0 48 21 83t64.5 54t110.5 19h93v57q0 57 -25.5 84t-80.5 27q-44 0 -72 -19.5t-48 -56.5l-45 42q20 41 64.5 70t103.5 29q87 0 133 -42.5t46 -125.5v-292
h52v-67zM328 236h-95q-60 0 -87.5 -20t-27.5 -58v-28q0 -39 24.5 -57.5t64.5 -18.5q35 0 62.5 15t43 39t15.5 50v78zM228 576q-34 0 -58.5 15t-38 41t-13.5 59q0 34 13.5 59.5t38 40.5t58.5 15t58.5 -15t38 -40.5t13.5 -59.5q0 -33 -13.5 -59t-38 -41t-58.5 -15zM228 623
q25 0 39.5 13t14.5 38v34q0 25 -14.5 38t-39.5 13t-39.5 -13t-14.5 -38v-34q0 -25 14.5 -38t39.5 -13z" />
    <glyph glyph-name="ae" unicode="&#xe6;" horiz-adv-x="782" 
d="M333 238h-100q-60 0 -87.5 -21t-27.5 -59v-28q0 -39 24.5 -57.5t64.5 -18.5q35 0 63.5 15t45.5 39t17 50v80zM409 296h250v14q0 51 -13.5 85t-40 51.5t-66.5 17.5q-41 0 -70 -17.5t-44.5 -51.5t-15.5 -85v-14zM539 55q52 0 85 23t52 67l52 -38q-24 -52 -70.5 -85.5
t-118.5 -33.5q-40 0 -74 15.5t-57.5 42t-31.5 60.5h-10q-8 -34 -33 -60.5t-62 -42t-83 -15.5q-75 0 -112 38.5t-37 111.5q0 49 21 84t64.5 54.5t110.5 19.5h98v52q0 57 -27.5 85.5t-83.5 28.5q-44 0 -72 -19.5t-48 -56.5l-45 42q20 41 64.5 70t103.5 29q40 0 70 -14.5
t49.5 -40.5t25.5 -62h10q8 34 31 60.5t56 42t72 15.5q61 0 106 -27.5t70 -87t25 -156.5v-19h-331v-32q0 -76 34.5 -113.5t95.5 -37.5z" />
    <glyph glyph-name="ccedilla" unicode="&#xe7;" horiz-adv-x="454" 
d="M246 528q73 0 116.5 -33.5t63.5 -85.5l-63 -32q-13 40 -41 61.5t-76 21.5q-63 0 -93 -37t-30 -113v-104q0 -76 30 -113t93 -37q50 0 80.5 22.5t48.5 66.5l56 -39q-21 -49 -62 -80.5t-100 -36.5l-11 -59h8q5 7 13 11.5t23 4.5q28 0 43 -18t15 -52q0 -28 -14 -46.5
t-37.5 -27.5t-50.5 -9q-37 0 -59 14t-33 27l35 39q10 -10 23.5 -19t33.5 -9q21 0 31.5 8t10.5 26t-10.5 26t-31.5 8h-49l14 76q-85 7 -133.5 70.5t-48.5 198.5q0 144 54.5 207t150.5 63z" />
    <glyph glyph-name="egrave" unicode="&#xe8;" horiz-adv-x="495" 
d="M252 -12q-60 0 -108 27.5t-75.5 87t-27.5 155.5t27.5 155.5t75.5 87t108 27.5q61 0 106 -27.5t70 -87t25 -155.5v-19h-331v-33q0 -76 34.5 -113.5t95.5 -37.5q52 0 85 23t52 67l52 -38q-24 -52 -70.5 -85.5t-118.5 -33.5zM252 464q-41 0 -70 -17.5t-44.5 -51.5t-15.5 -85
v-13h250v13q0 51 -13.5 85t-40 51.5t-66.5 17.5zM245 585l-97 158l69 36l77 -169z" />
    <glyph glyph-name="eacute" unicode="&#xe9;" horiz-adv-x="495" 
d="M252 -12q-60 0 -108 27.5t-75.5 87t-27.5 155.5t27.5 155.5t75.5 87t108 27.5q61 0 106 -27.5t70 -87t25 -155.5v-19h-331v-33q0 -76 34.5 -113.5t95.5 -37.5q52 0 85 23t52 67l52 -38q-24 -52 -70.5 -85.5t-118.5 -33.5zM252 464q-41 0 -70 -17.5t-44.5 -51.5t-15.5 -85
v-13h250v13q0 51 -13.5 85t-40 51.5t-66.5 17.5zM356 743l-97 -158l-49 25l77 169z" />
    <glyph glyph-name="ecircumflex" unicode="&#xea;" horiz-adv-x="495" 
d="M252 -12q-60 0 -108 27.5t-75.5 87t-27.5 155.5t27.5 155.5t75.5 87t108 27.5q61 0 106 -27.5t70 -87t25 -155.5v-19h-331v-33q0 -76 34.5 -113.5t95.5 -37.5q52 0 85 23t52 67l52 -38q-24 -52 -70.5 -85.5t-118.5 -33.5zM252 464q-41 0 -70 -17.5t-44.5 -51.5t-15.5 -85
v-13h250v13q0 51 -13.5 85t-40 51.5t-66.5 17.5zM206 765h92l101 -144l-41 -30l-106 118l-106 -118l-41 30z" />
    <glyph glyph-name="edieresis" unicode="&#xeb;" horiz-adv-x="495" 
d="M252 -12q-60 0 -108 27.5t-75.5 87t-27.5 155.5t27.5 155.5t75.5 87t108 27.5q61 0 106 -27.5t70 -87t25 -155.5v-19h-331v-33q0 -76 34.5 -113.5t95.5 -37.5q52 0 85 23t52 67l52 -38q-24 -52 -70.5 -85.5t-118.5 -33.5zM252 464q-41 0 -70 -17.5t-44.5 -51.5t-15.5 -85
v-13h250v13q0 51 -13.5 85t-40 51.5t-66.5 17.5zM166 620q-25 0 -37.5 10.5t-12.5 29.5v18q0 19 12.5 29.5t37.5 10.5t37.5 -10.5t12.5 -29.5v-18q0 -19 -12.5 -29.5t-37.5 -10.5zM338 620q-25 0 -37.5 10.5t-12.5 29.5v18q0 19 12.5 29.5t37.5 10.5t37.5 -10.5t12.5 -29.5
v-18q0 -19 -12.5 -29.5t-37.5 -10.5z" />
    <glyph glyph-name="igrave" unicode="&#xec;" horiz-adv-x="228" 
d="M152 0h-76v516h76v-516zM107 585l-97 158l69 36l77 -169z" />
    <glyph glyph-name="iacute" unicode="&#xed;" horiz-adv-x="228" 
d="M152 0h-76v516h76v-516zM218 743l-97 -158l-49 25l77 169z" />
    <glyph glyph-name="icircumflex" unicode="&#xee;" horiz-adv-x="228" 
d="M152 0h-76v516h76v-516zM68 765h92l88 -144l-41 -30l-93 118l-93 -118l-41 30z" />
    <glyph glyph-name="idieresis" unicode="&#xef;" horiz-adv-x="228" 
d="M152 0h-76v516h76v-516zM32 620q-25 0 -37.5 10.5t-12.5 29.5v18q0 19 12.5 29.5t37.5 10.5t37.5 -10.5t12.5 -29.5v-18q0 -19 -12.5 -29.5t-37.5 -10.5zM196 620q-25 0 -37.5 10.5t-12.5 29.5v18q0 19 12.5 29.5t37.5 10.5t37.5 -10.5t12.5 -29.5v-18q0 -19 -12.5 -29.5
t-37.5 -10.5z" />
    <glyph glyph-name="eth" unicode="&#xf0;" horiz-adv-x="502" 
d="M351 752l29 -40l-70 -51q41 -44 74.5 -102.5t53.5 -131t20 -158.5q0 -99 -25 -161t-71.5 -91t-111.5 -29q-67 0 -113.5 29.5t-70.5 87.5t-24 141q0 84 23.5 141.5t67.5 87t105 29.5q45 0 74 -23t45 -63h10q-10 51 -40 103t-74 98l-78 -57l-29 40l71 52q-27 25 -57 47
t-62 39h116q15 -9 30 -20t30 -24zM250 56q40 0 68 15t43 47.5t15 84.5v86q0 52 -15 84.5t-43 47.5t-68 15t-68 -15t-43 -47.5t-15 -84.5v-86q0 -52 15 -84.5t43 -47.5t68 -15z" />
    <glyph glyph-name="ntilde" unicode="&#xf1;" horiz-adv-x="513" 
d="M152 0h-76v516h76v-84h10q15 47 46.5 71.5t85.5 24.5q69 0 108.5 -47t39.5 -145v-336h-76v331q0 62 -25.5 95t-78.5 33q-30 0 -55 -13t-40 -36.5t-15 -57.5v-352zM327 613q-16 0 -32.5 6t-41.5 20q-23 14 -37 19.5t-25 5.5q-15 0 -27 -7.5t-26 -20.5l-30 38
q16 26 37.5 39t47.5 13q17 0 33 -6t41 -20q23 -13 37.5 -19t24.5 -6q15 0 27.5 7.5t25.5 20.5l30 -38q-16 -25 -37.5 -38.5t-47.5 -13.5z" />
    <glyph glyph-name="ograve" unicode="&#xf2;" horiz-adv-x="504" 
d="M252 -12q-60 0 -108 27.5t-75.5 87t-27.5 155.5t27.5 155.5t75.5 87t108 27.5q61 0 108.5 -27.5t75 -87t27.5 -155.5t-27.5 -155.5t-75 -87t-108.5 -27.5zM252 56q62 0 95.5 37t33.5 113v104q0 76 -33.5 113t-95.5 37q-61 0 -95 -37t-34 -113v-104q0 -76 34 -113t95 -37z
M245 585l-97 158l69 36l77 -169z" />
    <glyph glyph-name="oacute" unicode="&#xf3;" horiz-adv-x="504" 
d="M252 -12q-60 0 -108 27.5t-75.5 87t-27.5 155.5t27.5 155.5t75.5 87t108 27.5q61 0 108.5 -27.5t75 -87t27.5 -155.5t-27.5 -155.5t-75 -87t-108.5 -27.5zM252 56q62 0 95.5 37t33.5 113v104q0 76 -33.5 113t-95.5 37q-61 0 -95 -37t-34 -113v-104q0 -76 34 -113t95 -37z
M356 743l-97 -158l-49 25l77 169z" />
    <glyph glyph-name="ocircumflex" unicode="&#xf4;" horiz-adv-x="504" 
d="M252 -12q-60 0 -108 27.5t-75.5 87t-27.5 155.5t27.5 155.5t75.5 87t108 27.5q61 0 108.5 -27.5t75 -87t27.5 -155.5t-27.5 -155.5t-75 -87t-108.5 -27.5zM252 56q62 0 95.5 37t33.5 113v104q0 76 -33.5 113t-95.5 37q-61 0 -95 -37t-34 -113v-104q0 -76 34 -113t95 -37z
M206 765h92l101 -144l-41 -30l-106 118l-106 -118l-41 30z" />
    <glyph glyph-name="otilde" unicode="&#xf5;" horiz-adv-x="504" 
d="M252 -12q-60 0 -108 27.5t-75.5 87t-27.5 155.5t27.5 155.5t75.5 87t108 27.5q61 0 108.5 -27.5t75 -87t27.5 -155.5t-27.5 -155.5t-75 -87t-108.5 -27.5zM252 56q62 0 95.5 37t33.5 113v104q0 76 -33.5 113t-95.5 37q-61 0 -95 -37t-34 -113v-104q0 -76 34 -113t95 -37z
M319 613q-16 0 -32.5 6t-41.5 20q-23 14 -37 19.5t-25 5.5q-15 0 -27 -7.5t-26 -20.5l-30 38q16 26 37.5 39t47.5 13q17 0 33 -6t41 -20q23 -13 37.5 -19t24.5 -6q15 0 27.5 7.5t25.5 20.5l30 -38q-16 -25 -37.5 -38.5t-47.5 -13.5z" />
    <glyph glyph-name="odieresis" unicode="&#xf6;" horiz-adv-x="504" 
d="M252 -12q-60 0 -108 27.5t-75.5 87t-27.5 155.5t27.5 155.5t75.5 87t108 27.5q61 0 108.5 -27.5t75 -87t27.5 -155.5t-27.5 -155.5t-75 -87t-108.5 -27.5zM252 56q62 0 95.5 37t33.5 113v104q0 76 -33.5 113t-95.5 37q-61 0 -95 -37t-34 -113v-104q0 -76 34 -113t95 -37z
M166 620q-25 0 -37.5 10.5t-12.5 29.5v18q0 19 12.5 29.5t37.5 10.5t37.5 -10.5t12.5 -29.5v-18q0 -19 -12.5 -29.5t-37.5 -10.5zM338 620q-25 0 -37.5 10.5t-12.5 29.5v18q0 19 12.5 29.5t37.5 10.5t37.5 -10.5t12.5 -29.5v-18q0 -19 -12.5 -29.5t-37.5 -10.5z" />
    <glyph glyph-name="divide" unicode="&#xf7;" 
d="M480 273h-420v64h420v-64zM270 59q-31 0 -44 13.5t-13 32.5v20q0 20 13 33t44 13q32 0 44.5 -13t12.5 -33v-20q0 -19 -12.5 -32.5t-44.5 -13.5zM270 439q-31 0 -44 13.5t-13 32.5v20q0 20 13 33t44 13q32 0 44.5 -13t12.5 -33v-20q0 -19 -12.5 -32.5t-44.5 -13.5z" />
    <glyph glyph-name="oslash" unicode="&#xf8;" horiz-adv-x="504" 
d="M69 -36l-44 32l58 79q-20 32 -31 77.5t-11 105.5q0 96 27.5 155.5t75.5 87t108 27.5q38 0 72 -11t60 -34l51 69l44 -32l-58 -79q20 -32 31 -77.5t11 -105.5q0 -96 -27.5 -155.5t-75 -87t-108.5 -27.5q-38 0 -72 11t-60 34zM252 56q62 0 95.5 37t33.5 113v95q1 19 1 30.5
t0.5 23t0.5 30.5h-9l-56 -81l-158 -215q16 -16 39.5 -24.5t52.5 -8.5zM252 460q-61 0 -95 -37t-34 -113v-95q0 -20 -0.5 -31t-0.5 -22t-1 -31h9l56 81l158 215q-16 16 -39.5 24.5t-52.5 8.5z" />
    <glyph glyph-name="ugrave" unicode="&#xf9;" horiz-adv-x="513" 
d="M361 0v84h-10q-15 -47 -46.5 -71.5t-85.5 -24.5q-69 0 -108.5 47.5t-39.5 144.5v336h76v-331q0 -61 26 -94.5t78 -33.5q31 0 55.5 13t39.5 37t15 57v352h76v-516h-76zM248 585l-97 158l69 36l77 -169z" />
    <glyph glyph-name="uacute" unicode="&#xfa;" horiz-adv-x="513" 
d="M361 0v84h-10q-15 -47 -46.5 -71.5t-85.5 -24.5q-69 0 -108.5 47.5t-39.5 144.5v336h76v-331q0 -61 26 -94.5t78 -33.5q31 0 55.5 13t39.5 37t15 57v352h76v-516h-76zM359 743l-97 -158l-49 25l77 169z" />
    <glyph glyph-name="ucircumflex" unicode="&#xfb;" horiz-adv-x="513" 
d="M361 0v84h-10q-15 -47 -46.5 -71.5t-85.5 -24.5q-69 0 -108.5 47.5t-39.5 144.5v336h76v-331q0 -61 26 -94.5t78 -33.5q31 0 55.5 13t39.5 37t15 57v352h76v-516h-76zM209 765h92l101 -144l-41 -30l-106 118l-106 -118l-41 30z" />
    <glyph glyph-name="udieresis" unicode="&#xfc;" horiz-adv-x="513" 
d="M361 0v84h-10q-15 -47 -46.5 -71.5t-85.5 -24.5q-69 0 -108.5 47.5t-39.5 144.5v336h76v-331q0 -61 26 -94.5t78 -33.5q31 0 55.5 13t39.5 37t15 57v352h76v-516h-76zM169 620q-25 0 -37.5 10.5t-12.5 29.5v18q0 19 12.5 29.5t37.5 10.5t37.5 -10.5t12.5 -29.5v-18
q0 -19 -12.5 -29.5t-37.5 -10.5zM341 620q-25 0 -37.5 10.5t-12.5 29.5v18q0 19 12.5 29.5t37.5 10.5t37.5 -10.5t12.5 -29.5v-18q0 -19 -12.5 -29.5t-37.5 -10.5z" />
    <glyph glyph-name="yacute" unicode="&#xfd;" horiz-adv-x="451" 
d="M277 256l79 260h74l-204 -648q-8 -27 -18.5 -41.5t-27.5 -20.5t-46 -6h-56v67h79l30 105l-171 544h76l79 -260l48 -189h10zM330 743l-97 -158l-49 25l77 169z" />
    <glyph glyph-name="thorn" unicode="&#xfe;" horiz-adv-x="524" 
d="M76 -200v940h76v-308h10q15 50 48.5 73t81.5 23q62 0 103.5 -33t63 -93.5t21.5 -143.5t-21.5 -143.5t-63 -93.5t-103.5 -33q-48 0 -81.5 23t-48.5 73h-10v-284h-76zM269 56q63 0 96 40t33 110v104q0 71 -33 110.5t-96 39.5q-32 0 -58.5 -12.5t-42.5 -34.5t-16 -51v-208
q0 -29 16 -51t42.5 -34.5t58.5 -12.5z" />
    <glyph glyph-name="ydieresis" unicode="&#xff;" horiz-adv-x="451" 
d="M277 256l79 260h74l-204 -648q-8 -27 -18.5 -41.5t-27.5 -20.5t-46 -6h-56v67h79l30 105l-171 544h76l79 -260l48 -189h10zM140 620q-25 0 -37.5 10.5t-12.5 29.5v18q0 19 12.5 29.5t37.5 10.5t37.5 -10.5t12.5 -29.5v-18q0 -19 -12.5 -29.5t-37.5 -10.5zM312 620
q-25 0 -37.5 10.5t-12.5 29.5v18q0 19 12.5 29.5t37.5 10.5t37.5 -10.5t12.5 -29.5v-18q0 -19 -12.5 -29.5t-37.5 -10.5z" />
    <glyph glyph-name="Amacron" unicode="&#x100;" horiz-adv-x="579" 
d="M558 0h-82l-62 209h-251l-62 -209h-80l218 698h100zM396 275l-81 265l-22 87h-10l-22 -87l-79 -265h214zM164 809v64h254v-64h-254z" />
    <glyph glyph-name="amacron" unicode="&#x101;" horiz-adv-x="483" 
d="M456 0h-54q-24 0 -40.5 8.5t-25 25t-8.5 40.5v20l10 -10h-20q-13 -46 -48 -71t-82 -25q-75 0 -112 38.5t-37 111.5q0 48 21 83t64.5 54t110.5 19h93v57q0 57 -25.5 84t-80.5 27q-44 0 -72 -19.5t-48 -56.5l-45 42q20 41 64.5 70t103.5 29q87 0 133 -42.5t46 -125.5v-292
h52v-67zM328 236h-95q-60 0 -87.5 -20t-27.5 -58v-28q0 -39 24.5 -57.5t64.5 -18.5q35 0 62.5 15t43 39t15.5 50v78zM101 639v64h254v-64h-254z" />
    <glyph glyph-name="Abreve" unicode="&#x102;" horiz-adv-x="579" 
d="M558 0h-82l-62 209h-251l-62 -209h-80l218 698h100zM396 275l-81 265l-22 87h-10l-22 -87l-79 -265h214zM291 766q-26 0 -47.5 7.5t-39 23t-31 39t-23.5 56.5l43 21l18 -33q15 -28 33.5 -40t46.5 -12q29 0 47 12t33 40l18 33l43 -21q-13 -43 -33 -71t-46.5 -41.5
t-61.5 -13.5z" />
    <glyph glyph-name="abreve" unicode="&#x103;" horiz-adv-x="483" 
d="M456 0h-54q-24 0 -40.5 8.5t-25 25t-8.5 40.5v20l10 -10h-20q-13 -46 -48 -71t-82 -25q-75 0 -112 38.5t-37 111.5q0 48 21 83t64.5 54t110.5 19h93v57q0 57 -25.5 84t-80.5 27q-44 0 -72 -19.5t-48 -56.5l-45 42q20 41 64.5 70t103.5 29q87 0 133 -42.5t46 -125.5v-292
h52v-67zM328 236h-95q-60 0 -87.5 -20t-27.5 -58v-28q0 -39 24.5 -57.5t64.5 -18.5q35 0 62.5 15t43 39t15.5 50v78zM228 596q-26 0 -47.5 7.5t-39 23t-31 39t-23.5 56.5l43 21l18 -33q15 -28 33.5 -40t46.5 -12q29 0 47 12t33 40l18 33l43 -21q-10 -33 -23.5 -56.5t-31 -39
t-39 -23t-47.5 -7.5z" />
    <glyph glyph-name="Aogonek" unicode="&#x104;" horiz-adv-x="579" 
d="M21 0l218 698h100l219 -698q-36 -26 -57 -46t-30 -37.5t-9 -36.5q0 -16 9.5 -25t26.5 -9q14 0 25.5 5.5t19.5 16.5l35 -36q-10 -15 -32.5 -27t-51.5 -12t-50.5 8.5t-33 24t-11.5 36.5q0 24 12 46t36.5 43t61.5 40l-2 9h-31l-62 209h-251l-62 -209h-80zM396 275l-81 265
l-22 87h-10l-22 -87l-79 -265h214z" />
    <glyph glyph-name="aogonek" unicode="&#x105;" horiz-adv-x="483" 
d="M456 67v-67q-35 -25 -56 -45t-30.5 -37.5t-9.5 -37.5q0 -18 10.5 -26t25.5 -8q14 0 25.5 5.5t19.5 16.5l35 -36q-10 -15 -32.5 -27t-51.5 -12q-27 0 -48.5 7.5t-34 23t-12.5 38.5q0 42 32 73.5t78 55.5l-20 35l45 -26h-30q-24 0 -40.5 8.5t-25 25t-8.5 40.5v20l10 -10
h-20q-13 -46 -48 -71t-82 -25q-75 0 -112 38.5t-37 111.5q0 48 21 83t64.5 54t110.5 19h93v57q0 57 -25.5 84t-80.5 27q-44 0 -72 -19.5t-48 -56.5l-45 42q20 41 64.5 70t103.5 29q87 0 133 -42.5t46 -125.5v-292h52zM328 236h-95q-60 0 -87.5 -20t-27.5 -58v-28
q0 -39 24.5 -57.5t64.5 -18.5q35 0 62.5 15t43 39t15.5 50v78z" />
    <glyph glyph-name="Cacute" unicode="&#x106;" horiz-adv-x="561" 
d="M305 -12q-79 0 -135.5 38.5t-87 118.5t-30.5 204q0 125 30.5 204.5t87 118t135.5 38.5q86 0 138 -37t82 -111l-64 -39q-19 56 -55 86t-101 30q-79 0 -123 -57.5t-44 -154.5v-156q0 -97 44 -154.5t123 -57.5q68 0 105 31.5t56 91.5l64 -40q-30 -75 -84.5 -114.5
t-140.5 -39.5zM409 913l-97 -158l-49 25l77 169z" />
    <glyph glyph-name="cacute" unicode="&#x107;" horiz-adv-x="454" 
d="M246 -12q-96 0 -150.5 63t-54.5 207t54.5 207t150.5 63q73 0 116.5 -33.5t63.5 -85.5l-63 -32q-13 40 -41 61.5t-76 21.5q-63 0 -93 -37t-30 -113v-104q0 -76 30 -113t93 -37q50 0 80.5 22.5t48.5 66.5l56 -39q-23 -53 -69.5 -85.5t-115.5 -32.5zM352 743l-97 -158
l-49 25l77 169z" />
    <glyph glyph-name="Ccircumflex" unicode="&#x108;" horiz-adv-x="561" 
d="M305 -12q-79 0 -135.5 38.5t-87 118.5t-30.5 204q0 125 30.5 204.5t87 118t135.5 38.5q86 0 138 -37t82 -111l-64 -39q-19 56 -55 86t-101 30q-79 0 -123 -57.5t-44 -154.5v-156q0 -97 44 -154.5t123 -57.5q68 0 105 31.5t56 91.5l64 -40q-30 -75 -84.5 -114.5
t-140.5 -39.5zM259 935h92l101 -144l-41 -30l-106 118l-106 -118l-41 30z" />
    <glyph glyph-name="ccircumflex" unicode="&#x109;" horiz-adv-x="454" 
d="M246 -12q-96 0 -150.5 63t-54.5 207t54.5 207t150.5 63q73 0 116.5 -33.5t63.5 -85.5l-63 -32q-13 40 -41 61.5t-76 21.5q-63 0 -93 -37t-30 -113v-104q0 -76 30 -113t93 -37q50 0 80.5 22.5t48.5 66.5l56 -39q-23 -53 -69.5 -85.5t-115.5 -32.5zM202 765h92l101 -144
l-41 -30l-106 118l-106 -118l-41 30z" />
    <glyph glyph-name="Cdotaccent" unicode="&#x10a;" horiz-adv-x="561" 
d="M305 -12q-79 0 -135.5 38.5t-87 118.5t-30.5 204q0 125 30.5 204.5t87 118t135.5 38.5q86 0 138 -37t82 -111l-64 -39q-19 56 -55 86t-101 30q-79 0 -123 -57.5t-44 -154.5v-156q0 -97 44 -154.5t123 -57.5q68 0 105 31.5t56 91.5l64 -40q-30 -75 -84.5 -114.5
t-140.5 -39.5zM305 792q-25 0 -37.5 10.5t-12.5 29.5v18q0 19 12.5 29.5t37.5 10.5t37.5 -10.5t12.5 -29.5v-18q0 -19 -12.5 -29.5t-37.5 -10.5z" />
    <glyph glyph-name="cdotaccent" unicode="&#x10b;" horiz-adv-x="454" 
d="M246 -12q-96 0 -150.5 63t-54.5 207t54.5 207t150.5 63q73 0 116.5 -33.5t63.5 -85.5l-63 -32q-13 40 -41 61.5t-76 21.5q-63 0 -93 -37t-30 -113v-104q0 -76 30 -113t93 -37q50 0 80.5 22.5t48.5 66.5l56 -39q-23 -53 -69.5 -85.5t-115.5 -32.5zM248 618
q-25 0 -37.5 10.5t-12.5 29.5v18q0 19 12.5 29.5t37.5 10.5t37.5 -10.5t12.5 -29.5v-18q0 -19 -12.5 -29.5t-37.5 -10.5z" />
    <glyph glyph-name="Ccaron" unicode="&#x10c;" horiz-adv-x="561" 
d="M305 -12q-79 0 -135.5 38.5t-87 118.5t-30.5 204q0 125 30.5 204.5t87 118t135.5 38.5q86 0 138 -37t82 -111l-64 -39q-19 56 -55 86t-101 30q-79 0 -123 -57.5t-44 -154.5v-156q0 -97 44 -154.5t123 -57.5q68 0 105 31.5t56 91.5l64 -40q-30 -75 -84.5 -114.5
t-140.5 -39.5zM351 769h-92l-101 144l41 30l106 -118l106 118l41 -30z" />
    <glyph glyph-name="ccaron" unicode="&#x10d;" horiz-adv-x="454" 
d="M246 -12q-96 0 -150.5 63t-54.5 207t54.5 207t150.5 63q73 0 116.5 -33.5t63.5 -85.5l-63 -32q-13 40 -41 61.5t-76 21.5q-63 0 -93 -37t-30 -113v-104q0 -76 30 -113t93 -37q50 0 80.5 22.5t48.5 66.5l56 -39q-23 -53 -69.5 -85.5t-115.5 -32.5zM294 599h-92l-101 144
l41 30l106 -118l106 118l41 -30z" />
    <glyph glyph-name="Dcaron" unicode="&#x10e;" horiz-adv-x="607" 
d="M83 0v698h219q81 0 137.5 -36.5t86 -113.5t29.5 -199q0 -121 -29.5 -198.5t-86 -114t-137.5 -36.5h-219zM163 70h139q50 0 87.5 23.5t58.5 68.5t21 109v156q0 65 -21 109.5t-58.5 68t-87.5 23.5h-139v-558zM323 769h-92l-101 144l41 30l106 -118l106 118l41 -30z" />
    <glyph glyph-name="dcaron" unicode="&#x10f;" horiz-adv-x="534" 
d="M372 0v84h-10q-15 -50 -48.5 -73t-81.5 -23q-61 0 -103 33t-63.5 93.5t-21.5 143.5t21.5 143.5t63.5 93.5t103 33q48 0 81.5 -23t48.5 -73h10v308h76v-740h-76zM255 56q32 0 58.5 12.5t42.5 34.5t16 51v208q0 29 -16 51t-42.5 34.5t-58.5 12.5q-63 0 -96 -39.5
t-33 -110.5v-104q0 -70 33 -110t96 -40zM600 740l-47 -185h-51l11 185h87z" />
    <glyph glyph-name="Dcroat" unicode="&#x110;" horiz-adv-x="610" 
d="M86 0v336h-64v60h64v302h219q81 0 137.5 -36.5t86 -113.5t29.5 -199q0 -121 -29.5 -198.5t-86 -114t-137.5 -36.5h-219zM166 70h139q50 0 87.5 23.5t58.5 68.5t21 109v156q0 65 -21 109.5t-58.5 68t-87.5 23.5h-139v-232h124v-60h-124v-266z" />
    <glyph glyph-name="dcroat" unicode="&#x111;" horiz-adv-x="524" 
d="M372 0v84h-10q-15 -50 -48.5 -73t-81.5 -23q-61 0 -103 33t-63.5 93.5t-21.5 143.5t21.5 143.5t63.5 93.5t103 33q48 0 81.5 -23t48.5 -73h10v182h-135v56h135v70h76v-70h60v-56h-60v-614h-76zM255 56q32 0 58.5 12.5t42.5 34.5t16 51v208q0 29 -16 51t-42.5 34.5
t-58.5 12.5q-63 0 -96 -39.5t-33 -110.5v-104q0 -70 33 -110t96 -40z" />
    <glyph glyph-name="Emacron" unicode="&#x112;" horiz-adv-x="526" 
d="M469 0h-386v698h386v-70h-306v-240h287v-70h-287v-248h306v-70zM147 809v64h254v-64h-254z" />
    <glyph glyph-name="emacron" unicode="&#x113;" horiz-adv-x="495" 
d="M252 -12q-60 0 -108 27.5t-75.5 87t-27.5 155.5t27.5 155.5t75.5 87t108 27.5q61 0 106 -27.5t70 -87t25 -155.5v-19h-331v-33q0 -76 34.5 -113.5t95.5 -37.5q52 0 85 23t52 67l52 -38q-24 -52 -70.5 -85.5t-118.5 -33.5zM252 464q-41 0 -70 -17.5t-44.5 -51.5t-15.5 -85
v-13h250v13q0 51 -13.5 85t-40 51.5t-66.5 17.5zM125 639v64h254v-64h-254z" />
    <glyph glyph-name="Ebreve" unicode="&#x114;" horiz-adv-x="526" 
d="M469 0h-386v698h386v-70h-306v-240h287v-70h-287v-248h306v-70zM274 766q-26 0 -47.5 7.5t-39 23t-31 39t-23.5 56.5l43 21l18 -33q15 -28 33.5 -40t46.5 -12q29 0 47 12t33 40l18 33l43 -21q-13 -43 -33 -71t-46.5 -41.5t-61.5 -13.5z" />
    <glyph glyph-name="ebreve" unicode="&#x115;" horiz-adv-x="495" 
d="M252 -12q-60 0 -108 27.5t-75.5 87t-27.5 155.5t27.5 155.5t75.5 87t108 27.5q61 0 106 -27.5t70 -87t25 -155.5v-19h-331v-33q0 -76 34.5 -113.5t95.5 -37.5q52 0 85 23t52 67l52 -38q-24 -52 -70.5 -85.5t-118.5 -33.5zM252 464q-41 0 -70 -17.5t-44.5 -51.5t-15.5 -85
v-13h250v13q0 51 -13.5 85t-40 51.5t-66.5 17.5zM252 596q-26 0 -47.5 7.5t-39 23t-31 39t-23.5 56.5l43 21l18 -33q15 -28 33.5 -40t46.5 -12q29 0 47 12t33 40l18 33l43 -21q-10 -33 -23.5 -56.5t-31 -39t-39 -23t-47.5 -7.5z" />
    <glyph glyph-name="Edotaccent" unicode="&#x116;" horiz-adv-x="526" 
d="M469 0h-386v698h386v-70h-306v-240h287v-70h-287v-248h306v-70zM274 792q-25 0 -37.5 10.5t-12.5 29.5v18q0 19 12.5 29.5t37.5 10.5t37.5 -10.5t12.5 -29.5v-18q0 -19 -12.5 -29.5t-37.5 -10.5z" />
    <glyph glyph-name="edotaccent" unicode="&#x117;" horiz-adv-x="495" 
d="M252 -12q-60 0 -108 27.5t-75.5 87t-27.5 155.5t27.5 155.5t75.5 87t108 27.5q61 0 106 -27.5t70 -87t25 -155.5v-19h-331v-33q0 -76 34.5 -113.5t95.5 -37.5q52 0 85 23t52 67l52 -38q-24 -52 -70.5 -85.5t-118.5 -33.5zM252 464q-41 0 -70 -17.5t-44.5 -51.5t-15.5 -85
v-13h250v13q0 51 -13.5 85t-40 51.5t-66.5 17.5zM252 618q-25 0 -37.5 10.5t-12.5 29.5v18q0 19 12.5 29.5t37.5 10.5t37.5 -10.5t12.5 -29.5v-18q0 -19 -12.5 -29.5t-37.5 -10.5z" />
    <glyph glyph-name="Eogonek" unicode="&#x118;" horiz-adv-x="526" 
d="M83 0v698h386v-70h-306v-240h287v-70h-287v-248h306v-70q-36 -26 -57 -46t-30 -37.5t-9 -36.5q0 -16 9.5 -25t26.5 -9q14 0 25.5 5.5t19.5 16.5l35 -36q-11 -17 -34.5 -28t-49.5 -11q-29 0 -50.5 8.5t-33 24t-11.5 36.5q0 36 27.5 68t82.5 61l-1 9h-336z" />
    <glyph glyph-name="eogonek" unicode="&#x119;" horiz-adv-x="495" 
d="M305 -207q-27 0 -48.5 7.5t-34 23t-12.5 38.5q0 28 13 49.5t36.5 40t52.5 36.5l-3 7q-13 -4 -27 -5.5t-30 -1.5q-60 0 -108 27.5t-75.5 87t-27.5 155.5t27.5 155.5t75.5 87t108 27.5q61 0 106 -27.5t70 -87t25 -155.5v-19h-331v-33q0 -76 34.5 -113.5t95.5 -37.5
q52 0 85 23t52 67l52 -38q-9 -19 -20.5 -35.5t-26.5 -31.5q-38 -38 -62 -64t-37 -43t-17.5 -29t-4.5 -24q0 -18 10.5 -26t25.5 -8q14 0 25.5 5.5t19.5 16.5l35 -36q-10 -15 -32.5 -27t-51.5 -12zM122 297h250v13q0 51 -13.5 85t-40 51.5t-66.5 17.5q-41 0 -70 -17.5
t-44.5 -51.5t-15.5 -85v-13z" />
    <glyph glyph-name="Ecaron" unicode="&#x11a;" horiz-adv-x="526" 
d="M469 0h-386v698h386v-70h-306v-240h287v-70h-287v-248h306v-70zM320 769h-92l-101 144l41 30l106 -118l106 118l41 -30z" />
    <glyph glyph-name="ecaron" unicode="&#x11b;" horiz-adv-x="495" 
d="M252 -12q-60 0 -108 27.5t-75.5 87t-27.5 155.5t27.5 155.5t75.5 87t108 27.5q61 0 106 -27.5t70 -87t25 -155.5v-19h-331v-33q0 -76 34.5 -113.5t95.5 -37.5q52 0 85 23t52 67l52 -38q-24 -52 -70.5 -85.5t-118.5 -33.5zM252 464q-41 0 -70 -17.5t-44.5 -51.5t-15.5 -85
v-13h250v13q0 51 -13.5 85t-40 51.5t-66.5 17.5zM298 599h-92l-101 144l41 30l106 -118l106 118l41 -30z" />
    <glyph glyph-name="Gcircumflex" unicode="&#x11c;" horiz-adv-x="627" 
d="M489 0v97h-10q-11 -46 -53.5 -77.5t-119.5 -31.5q-76 0 -133 38.5t-89 118.5t-32 204q0 125 31.5 204.5t91.5 118t144 38.5q92 0 147 -40t86 -108l-66 -40q-20 55 -61 86t-106 31q-57 0 -97.5 -26t-62 -73.5t-21.5 -112.5v-156q0 -64 21.5 -112t62 -74t97.5 -26
q46 0 83.5 18t60 52t22.5 82v76h-138v70h216v-357h-74zM274 935h92l101 -144l-41 -30l-106 118l-106 -118l-41 30z" />
    <glyph glyph-name="gcircumflex" unicode="&#x11d;" horiz-adv-x="480" 
d="M470 -58q0 -54 -24.5 -88t-75 -50t-127.5 -16q-74 0 -119.5 14.5t-66 43.5t-20.5 70t21 65.5t54 30.5v14q-20 11 -31.5 28.5t-11.5 41.5q0 32 19 55.5t60 27.5v11q-40 20 -62.5 60t-22.5 99t22 98.5t62 59.5t93 20q21 0 39 -3t33 -8h144v-61h-110v-8q34 -8 52.5 -34.5
t18.5 -63.5q0 -58 -22 -98t-61.5 -60t-93.5 -20q-13 0 -25.5 1.5t-23.5 3.5q-28 -5 -42.5 -22.5t-14.5 -35.5q0 -19 14.5 -29.5t45.5 -10.5h113q87 0 125 -35t38 -101zM240 233q47 0 73 24.5t26 73.5v37q0 50 -26 74t-73 24q-46 0 -72.5 -24t-26.5 -74v-37q0 -49 26.5 -73.5
t72.5 -24.5zM399 -63q0 34 -21.5 51.5t-71.5 17.5h-157q-22 -11 -32 -28t-10 -43q0 -39 24.5 -61.5t76.5 -22.5h66q62 0 93.5 20.5t31.5 65.5zM194 765h92l101 -144l-41 -30l-106 118l-106 -118l-41 30z" />
    <glyph glyph-name="Gbreve" unicode="&#x11e;" horiz-adv-x="627" 
d="M489 0v97h-10q-11 -46 -53.5 -77.5t-119.5 -31.5q-76 0 -133 38.5t-89 118.5t-32 204q0 125 31.5 204.5t91.5 118t144 38.5q92 0 147 -40t86 -108l-66 -40q-20 55 -61 86t-106 31q-57 0 -97.5 -26t-62 -73.5t-21.5 -112.5v-156q0 -64 21.5 -112t62 -74t97.5 -26
q46 0 83.5 18t60 52t22.5 82v76h-138v70h216v-357h-74zM320 766q-26 0 -47.5 7.5t-39 23t-31 39t-23.5 56.5l43 21l18 -33q15 -28 33.5 -40t46.5 -12q29 0 47 12t33 40l18 33l43 -21q-13 -43 -33 -71t-46.5 -41.5t-61.5 -13.5z" />
    <glyph glyph-name="gbreve" unicode="&#x11f;" horiz-adv-x="480" 
d="M470 -58q0 -54 -24.5 -88t-75 -50t-127.5 -16q-74 0 -119.5 14.5t-66 43.5t-20.5 70t21 65.5t54 30.5v14q-20 11 -31.5 28.5t-11.5 41.5q0 32 19 55.5t60 27.5v11q-40 20 -62.5 60t-22.5 99t22 98.5t62 59.5t93 20q21 0 39 -3t33 -8h144v-61h-110v-8q34 -8 52.5 -34.5
t18.5 -63.5q0 -58 -22 -98t-61.5 -60t-93.5 -20q-13 0 -25.5 1.5t-23.5 3.5q-28 -5 -42.5 -22.5t-14.5 -35.5q0 -19 14.5 -29.5t45.5 -10.5h113q87 0 125 -35t38 -101zM240 233q47 0 73 24.5t26 73.5v37q0 50 -26 74t-73 24q-46 0 -72.5 -24t-26.5 -74v-37q0 -49 26.5 -73.5
t72.5 -24.5zM399 -63q0 34 -21.5 51.5t-71.5 17.5h-157q-22 -11 -32 -28t-10 -43q0 -39 24.5 -61.5t76.5 -22.5h66q62 0 93.5 20.5t31.5 65.5zM240 596q-26 0 -47.5 7.5t-39 23t-31 39t-23.5 56.5l43 21l18 -33q15 -28 33.5 -40t46.5 -12q29 0 47 12t33 40l18 33l43 -21
q-10 -33 -23.5 -56.5t-31 -39t-39 -23t-47.5 -7.5z" />
    <glyph glyph-name="Gdotaccent" unicode="&#x120;" horiz-adv-x="627" 
d="M489 0v97h-10q-11 -46 -53.5 -77.5t-119.5 -31.5q-76 0 -133 38.5t-89 118.5t-32 204q0 125 31.5 204.5t91.5 118t144 38.5q92 0 147 -40t86 -108l-66 -40q-20 55 -61 86t-106 31q-57 0 -97.5 -26t-62 -73.5t-21.5 -112.5v-156q0 -64 21.5 -112t62 -74t97.5 -26
q46 0 83.5 18t60 52t22.5 82v76h-138v70h216v-357h-74zM320 792q-25 0 -37.5 10.5t-12.5 29.5v18q0 19 12.5 29.5t37.5 10.5t37.5 -10.5t12.5 -29.5v-18q0 -19 -12.5 -29.5t-37.5 -10.5z" />
    <glyph glyph-name="gdotaccent" unicode="&#x121;" horiz-adv-x="480" 
d="M470 -58q0 -54 -24.5 -88t-75 -50t-127.5 -16q-74 0 -119.5 14.5t-66 43.5t-20.5 70t21 65.5t54 30.5v14q-20 11 -31.5 28.5t-11.5 41.5q0 32 19 55.5t60 27.5v11q-40 20 -62.5 60t-22.5 99t22 98.5t62 59.5t93 20q21 0 39 -3t33 -8h144v-61h-110v-8q34 -8 52.5 -34.5
t18.5 -63.5q0 -58 -22 -98t-61.5 -60t-93.5 -20q-13 0 -25.5 1.5t-23.5 3.5q-28 -5 -42.5 -22.5t-14.5 -35.5q0 -19 14.5 -29.5t45.5 -10.5h113q87 0 125 -35t38 -101zM240 233q47 0 73 24.5t26 73.5v37q0 50 -26 74t-73 24q-46 0 -72.5 -24t-26.5 -74v-37q0 -49 26.5 -73.5
t72.5 -24.5zM399 -63q0 34 -21.5 51.5t-71.5 17.5h-157q-22 -11 -32 -28t-10 -43q0 -39 24.5 -61.5t76.5 -22.5h66q62 0 93.5 20.5t31.5 65.5zM240 618q-25 0 -37.5 10.5t-12.5 29.5v18q0 19 12.5 29.5t37.5 10.5t37.5 -10.5t12.5 -29.5v-18q0 -19 -12.5 -29.5t-37.5 -10.5z
" />
    <glyph glyph-name="Gcommaaccent" unicode="&#x122;" horiz-adv-x="627" 
d="M489 0v97h-10q-11 -46 -53.5 -77.5t-119.5 -31.5q-76 0 -133 38.5t-89 118.5t-32 204q0 125 31.5 204.5t91.5 118t144 38.5q92 0 147 -40t86 -108l-66 -40q-20 55 -61 86t-106 31q-57 0 -97.5 -26t-62 -73.5t-21.5 -112.5v-156q0 -64 21.5 -112t62 -74t97.5 -26
q46 0 83.5 18t60 52t22.5 82v76h-138v70h216v-357h-74zM313 -68q25 0 37.5 -10.5t12.5 -29.5v-18q0 -35 -17 -66t-40 -54h-54q20 23 32.5 40.5t18.5 40.5q-20 2 -30 12.5t-10 26.5v18q0 19 12.5 29.5t37.5 10.5z" />
    <glyph glyph-name="gcommaaccent" unicode="&#x123;" horiz-adv-x="480" 
d="M470 -58q0 -54 -24.5 -88t-75 -50t-127.5 -16q-74 0 -119.5 14.5t-66 43.5t-20.5 70t21 65.5t54 30.5v14q-20 11 -31.5 28.5t-11.5 41.5q0 32 19 55.5t60 27.5v11q-40 20 -62.5 60t-22.5 99t22 98.5t62 59.5t93 20q21 0 39 -3t33 -8h144v-61h-110v-8q34 -8 52.5 -34.5
t18.5 -63.5q0 -58 -22 -98t-61.5 -60t-93.5 -20q-13 0 -25.5 1.5t-23.5 3.5q-28 -5 -42.5 -22.5t-14.5 -35.5q0 -19 14.5 -29.5t45.5 -10.5h113q87 0 125 -35t38 -101zM240 233q47 0 73 24.5t26 73.5v37q0 50 -26 74t-73 24q-46 0 -72.5 -24t-26.5 -74v-37q0 -49 26.5 -73.5
t72.5 -24.5zM399 -63q0 34 -21.5 51.5t-71.5 17.5h-157q-22 -11 -32 -28t-10 -43q0 -39 24.5 -61.5t76.5 -22.5h66q62 0 93.5 20.5t31.5 65.5zM240 596q-25 0 -37.5 10.5t-12.5 29.5v18q0 35 17.5 66t39.5 54h54q-20 -22 -32.5 -40t-18.5 -41q20 -1 30 -11.5t10 -27.5v-18
q0 -19 -12.5 -29.5t-37.5 -10.5z" />
    <glyph glyph-name="Hcircumflex" unicode="&#x124;" horiz-adv-x="637" 
d="M474 0v318h-311v-318h-80v698h80v-310h311v310h80v-698h-80zM273 935h92l101 -144l-41 -30l-106 118l-106 -118l-41 30z" />
    <glyph glyph-name="hcircumflex" unicode="&#x125;" horiz-adv-x="513" 
d="M76 0v740h76v-308h10q15 47 46.5 71.5t85.5 24.5q69 0 108.5 -47t39.5 -145v-336h-76v331q0 62 -25.5 95t-78.5 33q-30 0 -55 -13t-40 -36.5t-15 -57.5v-352h-76zM69 923h92l101 -144l-41 -30l-106 118l-106 -118l-41 30z" />
    <glyph glyph-name="Hbar" unicode="&#x126;" horiz-adv-x="644" 
d="M477 0v318h-311v-318h-80v519h-64v60h64v119h80v-119h311v119h81v-119h64v-60h-64v-519h-81zM166 388h311v131h-311v-131z" />
    <glyph glyph-name="hbar" unicode="&#x127;" horiz-adv-x="513" 
d="M152 0h-76v614h-60v56h60v70h76v-70h135v-56h-135v-182h10q15 47 46.5 71.5t85.5 24.5q69 0 108.5 -47t39.5 -145v-336h-76v331q0 62 -25.5 95t-78.5 33q-30 0 -55 -13t-40 -36.5t-15 -57.5v-352z" />
    <glyph glyph-name="Itilde" unicode="&#x128;" horiz-adv-x="362" 
d="M309 0h-256v66h88v566h-88v66h256v-66h-88v-566h88v-66zM248 784q-16 0 -32.5 6t-41.5 20q-23 14 -37 19.5t-25 5.5q-15 0 -27 -7.5t-26 -20.5l-30 38q16 26 37.5 39t47.5 13q17 0 33 -6t41 -20q23 -13 37.5 -19t24.5 -6q15 0 27.5 7.5t25.5 20.5l30 -38
q-16 -25 -37.5 -38.5t-47.5 -13.5z" />
    <glyph glyph-name="itilde" unicode="&#x129;" horiz-adv-x="228" 
d="M152 0h-76v516h76v-516zM170 618q-21 0 -35.5 7t-26.5 14q-16 11 -27 15.5t-24 4.5t-25.5 -6.5t-25.5 -19.5l-29 38q15 25 36 38t45 13q21 0 35.5 -6.5t26.5 -14.5q17 -10 27.5 -15t23.5 -5q14 0 26 6.5t25 19.5l29 -38q-15 -25 -36 -38t-45 -13z" />
    <glyph glyph-name="Imacron" unicode="&#x12a;" horiz-adv-x="362" 
d="M309 0h-256v66h88v566h-88v66h256v-66h-88v-566h88v-66zM54 809v64h254v-64h-254z" />
    <glyph glyph-name="imacron" unicode="&#x12b;" horiz-adv-x="228" 
d="M152 0h-76v516h76v-516zM-7 639v64h242v-64h-242z" />
    <glyph glyph-name="Ibreve" unicode="&#x12c;" horiz-adv-x="362" 
d="M309 0h-256v66h88v566h-88v66h256v-66h-88v-566h88v-66zM181 766q-26 0 -47.5 7.5t-39 23t-31 39t-23.5 56.5l43 21l18 -33q15 -28 33.5 -40t46.5 -12q29 0 47 12t33 40l18 33l43 -21q-13 -43 -33 -71t-46.5 -41.5t-61.5 -13.5z" />
    <glyph glyph-name="ibreve" unicode="&#x12d;" horiz-adv-x="228" 
d="M152 0h-76v516h76v-516zM114 596q-25 0 -45 6.5t-35 21t-26 38.5t-20 60l43 19l12 -32q10 -25 27.5 -38t43.5 -13t43.5 13t27.5 38l12 32l43 -19q-9 -36 -20 -60t-26 -38.5t-34.5 -21t-45.5 -6.5z" />
    <glyph glyph-name="Iogonek" unicode="&#x12e;" horiz-adv-x="362" 
d="M53 0v66h88v566h-88v66h256v-66h-88v-566h88v-66q-36 -26 -57 -46t-30 -37.5t-9 -36.5q0 -16 9.5 -25t26.5 -9q14 0 25.5 5.5t19.5 16.5l35 -36q-10 -15 -32.5 -27t-51.5 -12t-50.5 8.5t-33 24t-11.5 36.5q0 36 27.5 68t82.5 61l-2 9h-205z" />
    <glyph glyph-name="iogonek" unicode="&#x12f;" horiz-adv-x="228" 
d="M76 516h76v-516q-36 -26 -57 -46t-30 -37.5t-9 -36.5q0 -16 9.5 -25t26.5 -9q14 0 25.5 5.5t19.5 16.5l35 -36q-10 -15 -32.5 -27t-51.5 -12q-30 0 -51 8.5t-32.5 24t-11.5 36.5q0 24 12 46t36.5 43t61.5 40l-2 9h-25v516zM114 641q-25 0 -36 11t-11 30v16q0 20 11 30.5
t36 10.5t36 -10.5t11 -30.5v-16q0 -19 -11 -30t-36 -11z" />
    <glyph glyph-name="Idotaccent" unicode="&#x130;" horiz-adv-x="362" 
d="M309 0h-256v66h88v566h-88v66h256v-66h-88v-566h88v-66zM181 792q-25 0 -37.5 10.5t-12.5 29.5v18q0 19 12.5 29.5t37.5 10.5t37.5 -10.5t12.5 -29.5v-18q0 -19 -12.5 -29.5t-37.5 -10.5z" />
    <glyph glyph-name="dotlessi" unicode="&#x131;" horiz-adv-x="228" 
d="M152 0h-76v516h76v-516z" />
    <glyph glyph-name="IJ" unicode="&#x132;" horiz-adv-x="582" 
d="M292 -12q-93 0 -144.5 45.5t-65.5 118.5l72 18q10 -49 41.5 -80t96.5 -31q62 0 96.5 36.5t34.5 109.5v423h-132v70h212v-508q0 -62 -26.5 -107.5t-74 -70t-110.5 -24.5zM78 290v408h80v-408h-80z" />
    <glyph glyph-name="ij" unicode="&#x133;" horiz-adv-x="456" 
d="M114 641q-25 0 -36 11t-11 30v16q0 20 11 30.5t36 10.5t36 -10.5t11 -30.5v-16q0 -19 -11 -30t-36 -11zM76 0v516h76v-516h-76zM304 -133v649h76v-618q0 -51 -23.5 -74.5t-74.5 -23.5h-54v67h76zM342 641q-25 0 -36 11t-11 30v16q0 20 11 30.5t36 10.5t36 -10.5t11 -30.5
v-16q0 -19 -11 -30t-36 -11z" />
    <glyph glyph-name="Jcircumflex" unicode="&#x134;" horiz-adv-x="462" 
d="M90 698h294v-538q0 -53 -22.5 -91.5t-63.5 -59.5t-95 -21q-79 0 -123 42.5t-57 111.5l72 18q9 -44 33 -72.5t75 -28.5q48 0 74.5 29t26.5 87v453h-214v70zM193 935h92l101 -144l-41 -30l-106 118l-106 -118l-41 30z" />
    <glyph glyph-name="jcircumflex" unicode="&#x135;" horiz-adv-x="228" 
d="M0 -200v67h76v649h76v-618q0 -51 -23.5 -74.5t-74.5 -23.5h-54zM68 765h92l88 -144l-41 -30l-93 118l-93 -118l-41 30z" />
    <glyph glyph-name="Kcommaaccent" unicode="&#x136;" horiz-adv-x="574" 
d="M457 0l-203 346l-91 -114v-232h-80v698h80v-233l-6 -144h10l103 144l174 233h92l-230 -299l245 -399h-94zM304 -68q25 0 37.5 -10.5t12.5 -29.5v-18q0 -35 -17 -66t-40 -54h-54q20 23 32.5 40.5t18.5 40.5q-20 2 -30 12.5t-10 26.5v18q0 19 12.5 29.5t37.5 10.5z" />
    <glyph glyph-name="kcommaaccent" unicode="&#x137;" horiz-adv-x="477" 
d="M76 0v740h76v-380l-6 -101h8l72 97l129 160h92l-171 -205l186 -311h-91l-151 266l-68 -80v-186h-76zM265 -68q25 0 37.5 -10.5t12.5 -29.5v-18q0 -35 -17 -66t-40 -54h-54q20 23 32.5 40.5t18.5 40.5q-20 2 -30 12.5t-10 26.5v18q0 19 12.5 29.5t37.5 10.5z" />
    <glyph glyph-name="kgreenlandic" unicode="&#x138;" horiz-adv-x="477" 
d="M371 0l-151 266l-68 -80v-186h-76v516h76v-156l-6 -101h8l72 97l129 160h92l-171 -205l186 -311h-91z" />
    <glyph glyph-name="Lacute" unicode="&#x139;" horiz-adv-x="453" 
d="M428 0h-345v698h80v-628h265v-70zM227 913l-97 -158l-49 25l77 169z" />
    <glyph glyph-name="lacute" unicode="&#x13a;" horiz-adv-x="247" 
d="M217 0h-63q-40 0 -59 19t-19 59v662h76v-673h65v-67zM218 943l-97 -158l-49 25l77 169z" />
    <glyph glyph-name="Lcommaaccent" unicode="&#x13b;" horiz-adv-x="453" 
d="M428 0h-345v698h80v-628h265v-70zM267 -68q25 0 37.5 -10.5t12.5 -29.5v-18q0 -35 -17 -66t-40 -54h-54q20 23 32.5 40.5t18.5 40.5q-20 2 -30 12.5t-10 26.5v18q0 19 12.5 29.5t37.5 10.5z" />
    <glyph glyph-name="lcommaaccent" unicode="&#x13c;" horiz-adv-x="247" 
d="M217 0h-63q-40 0 -59 19t-19 59v662h76v-673h65v-67zM148 -68q25 0 37.5 -10.5t12.5 -29.5v-18q0 -35 -17 -66t-40 -54h-54q20 23 32.5 40.5t18.5 40.5q-20 2 -30 12.5t-10 26.5v18q0 19 12.5 29.5t37.5 10.5z" />
    <glyph glyph-name="Lcaron" unicode="&#x13d;" horiz-adv-x="453" 
d="M428 0h-345v698h80v-628h265v-70zM331 740l-47 -185h-51l11 185h87z" />
    <glyph glyph-name="lcaron" unicode="&#x13e;" horiz-adv-x="249" 
d="M217 0h-63q-40 0 -59 19t-19 59v662h76v-673h65v-67zM304 740l-47 -185h-51l11 185h87z" />
    <glyph glyph-name="Ldot" unicode="&#x13f;" horiz-adv-x="453" 
d="M428 0h-345v698h80v-628h265v-70zM348 291q-25 0 -37.5 10.5t-12.5 29.5v18q0 19 12.5 29.5t37.5 10.5t37.5 -10.5t12.5 -29.5v-18q0 -19 -12.5 -29.5t-37.5 -10.5z" />
    <glyph glyph-name="ldot" unicode="&#x140;" horiz-adv-x="327" 
d="M217 0h-63q-40 0 -59 19t-19 59v662h76v-673h65v-67zM277 256q-25 0 -37.5 10.5t-12.5 29.5v18q0 19 12.5 29.5t37.5 10.5t37.5 -10.5t12.5 -29.5v-18q0 -19 -12.5 -29.5t-37.5 -10.5z" />
    <glyph glyph-name="Lslash" unicode="&#x141;" horiz-adv-x="461" 
d="M436 70v-70h-345v271l-90 -32v63l90 34v362h80v-332l160 60v-68l-160 -58v-230h265z" />
    <glyph glyph-name="lslash" unicode="&#x142;" horiz-adv-x="252" 
d="M217 67v-67h-63q-40 0 -59 19t-19 59v248l-60 -22v65l60 22v349h76v-322l85 31v-65l-85 -31v-286h65z" />
    <glyph glyph-name="Nacute" unicode="&#x143;" horiz-adv-x="637" 
d="M457 0l-232 453l-61 144h-10l7 -144v-453h-78v698h98l232 -453l61 -144h10l-7 144v453h78v-698h-98zM422 913l-97 -158l-49 25l77 169z" />
    <glyph glyph-name="nacute" unicode="&#x144;" horiz-adv-x="513" 
d="M152 0h-76v516h76v-84h10q15 47 46.5 71.5t85.5 24.5q69 0 108.5 -47t39.5 -145v-336h-76v331q0 62 -25.5 95t-78.5 33q-30 0 -55 -13t-40 -36.5t-15 -57.5v-352zM364 743l-97 -158l-49 25l77 169z" />
    <glyph glyph-name="Ncommaaccent" unicode="&#x145;" horiz-adv-x="637" 
d="M457 0l-232 453l-61 144h-10l7 -144v-453h-78v698h98l232 -453l61 -144h10l-7 144v453h78v-698h-98zM318 -68q25 0 37.5 -10.5t12.5 -29.5v-18q0 -35 -17 -66t-40 -54h-54q20 23 32.5 40.5t18.5 40.5q-20 2 -30 12.5t-10 26.5v18q0 19 12.5 29.5t37.5 10.5z" />
    <glyph glyph-name="ncommaaccent" unicode="&#x146;" horiz-adv-x="513" 
d="M152 0h-76v516h76v-84h10q15 47 46.5 71.5t85.5 24.5q69 0 108.5 -47t39.5 -145v-336h-76v331q0 62 -25.5 95t-78.5 33q-30 0 -55 -13t-40 -36.5t-15 -57.5v-352zM259 -68q25 0 37.5 -10.5t12.5 -29.5v-18q0 -35 -17 -66t-40 -54h-54q20 23 32.5 40.5t18.5 40.5
q-20 2 -30 12.5t-10 26.5v18q0 19 12.5 29.5t37.5 10.5z" />
    <glyph glyph-name="Ncaron" unicode="&#x147;" horiz-adv-x="637" 
d="M457 0l-232 453l-61 144h-10l7 -144v-453h-78v698h98l232 -453l61 -144h10l-7 144v453h78v-698h-98zM364 769h-92l-101 144l41 30l106 -118l106 118l41 -30z" />
    <glyph glyph-name="ncaron" unicode="&#x148;" horiz-adv-x="513" 
d="M152 0h-76v516h76v-84h10q15 47 46.5 71.5t85.5 24.5q69 0 108.5 -47t39.5 -145v-336h-76v331q0 62 -25.5 95t-78.5 33q-30 0 -55 -13t-40 -36.5t-15 -57.5v-352zM306 599h-92l-101 144l41 30l106 -118l106 118l41 -30z" />
    <glyph glyph-name="napostrophe" unicode="&#x149;" horiz-adv-x="761" 
d="M124 745q29 0 44 -13t15 -38v-16q0 -39 -23.5 -86.5t-62.5 -84.5h-62q27 32 44.5 59.5t24.5 62.5q-19 5 -29 17t-10 32v16q0 25 15 38t44 13zM400 0h-76v516h76v-84h10q15 47 46.5 71.5t85.5 24.5q69 0 108.5 -47t39.5 -145v-336h-76v331q0 62 -25.5 95t-78.5 33
q-30 0 -55 -13t-40 -36.5t-15 -57.5v-352z" />
    <glyph glyph-name="Eng" unicode="&#x14a;" horiz-adv-x="637" 
d="M161 0h-78v698h98l232 -453l61 -144h10l-7 144v453h78v-800q0 -51 -23.5 -74.5t-74.5 -23.5h-54v68h74v132h-20l-232 453l-61 144h-10l7 -144v-453z" />
    <glyph glyph-name="eng" unicode="&#x14b;" horiz-adv-x="513" 
d="M290 -200v67h76v464q0 62 -25.5 95t-78.5 33q-30 0 -55 -13t-40 -36.5t-15 -57.5v-352h-76v516h76v-84h10q15 47 46.5 71.5t85.5 24.5q69 0 108.5 -47t39.5 -145v-438q0 -51 -23.5 -74.5t-74.5 -23.5h-54z" />
    <glyph glyph-name="Omacron" unicode="&#x14c;" horiz-adv-x="638" 
d="M319 -12q-84 0 -144 38.5t-91.5 118.5t-31.5 204q0 125 31.5 204.5t91.5 118t144 38.5q85 0 144.5 -38.5t91 -118t31.5 -204.5q0 -124 -31.5 -204t-91 -118.5t-144.5 -38.5zM319 59q58 0 98 26t61.5 74t21.5 112v156q0 65 -21.5 112.5t-61.5 73.5t-98 26q-57 0 -97.5 -26
t-62 -73.5t-21.5 -112.5v-156q0 -64 21.5 -112t62 -74t97.5 -26zM192 809v64h254v-64h-254z" />
    <glyph glyph-name="omacron" unicode="&#x14d;" horiz-adv-x="504" 
d="M252 -12q-60 0 -108 27.5t-75.5 87t-27.5 155.5t27.5 155.5t75.5 87t108 27.5q61 0 108.5 -27.5t75 -87t27.5 -155.5t-27.5 -155.5t-75 -87t-108.5 -27.5zM252 56q62 0 95.5 37t33.5 113v104q0 76 -33.5 113t-95.5 37q-61 0 -95 -37t-34 -113v-104q0 -76 34 -113t95 -37z
M125 639v64h254v-64h-254z" />
    <glyph glyph-name="Obreve" unicode="&#x14e;" horiz-adv-x="638" 
d="M319 -12q-84 0 -144 38.5t-91.5 118.5t-31.5 204q0 125 31.5 204.5t91.5 118t144 38.5q85 0 144.5 -38.5t91 -118t31.5 -204.5q0 -124 -31.5 -204t-91 -118.5t-144.5 -38.5zM319 59q58 0 98 26t61.5 74t21.5 112v156q0 65 -21.5 112.5t-61.5 73.5t-98 26q-57 0 -97.5 -26
t-62 -73.5t-21.5 -112.5v-156q0 -64 21.5 -112t62 -74t97.5 -26zM319 766q-26 0 -47.5 7.5t-39 23t-31 39t-23.5 56.5l43 21l18 -33q15 -28 33.5 -40t46.5 -12q29 0 47 12t33 40l18 33l43 -21q-13 -43 -33 -71t-46.5 -41.5t-61.5 -13.5z" />
    <glyph glyph-name="obreve" unicode="&#x14f;" horiz-adv-x="504" 
d="M252 -12q-60 0 -108 27.5t-75.5 87t-27.5 155.5t27.5 155.5t75.5 87t108 27.5q61 0 108.5 -27.5t75 -87t27.5 -155.5t-27.5 -155.5t-75 -87t-108.5 -27.5zM252 56q62 0 95.5 37t33.5 113v104q0 76 -33.5 113t-95.5 37q-61 0 -95 -37t-34 -113v-104q0 -76 34 -113t95 -37z
M252 596q-26 0 -47.5 7.5t-39 23t-31 39t-23.5 56.5l43 21l18 -33q15 -28 33.5 -40t46.5 -12q29 0 47 12t33 40l18 33l43 -21q-10 -33 -23.5 -56.5t-31 -39t-39 -23t-47.5 -7.5z" />
    <glyph glyph-name="Ohungarumlaut" unicode="&#x150;" horiz-adv-x="638" 
d="M319 -12q-84 0 -144 38.5t-91.5 118.5t-31.5 204q0 125 31.5 204.5t91.5 118t144 38.5q85 0 144.5 -38.5t91 -118t31.5 -204.5q0 -124 -31.5 -204t-91 -118.5t-144.5 -38.5zM319 59q58 0 98 26t61.5 74t21.5 112v156q0 65 -21.5 112.5t-61.5 73.5t-98 26q-57 0 -97.5 -26
t-62 -73.5t-21.5 -112.5v-156q0 -64 21.5 -112t62 -74t97.5 -26zM349 915l-97 -159l-45 24l77 170zM496 915l-97 -159l-45 24l77 170z" />
    <glyph glyph-name="ohungarumlaut" unicode="&#x151;" horiz-adv-x="504" 
d="M252 -12q-60 0 -108 27.5t-75.5 87t-27.5 155.5t27.5 155.5t75.5 87t108 27.5q61 0 108.5 -27.5t75 -87t27.5 -155.5t-27.5 -155.5t-75 -87t-108.5 -27.5zM252 56q62 0 95.5 37t33.5 113v104q0 76 -33.5 113t-95.5 37q-61 0 -95 -37t-34 -113v-104q0 -76 34 -113t95 -37z
M282 744l-97 -159l-45 24l77 170zM429 744l-97 -159l-45 24l77 170z" />
    <glyph glyph-name="OE" unicode="&#x152;" horiz-adv-x="886" 
d="M829 0h-386q-26 -6 -55.5 -9t-49.5 -3q-91 0 -155 38.5t-98 118.5t-34 204q0 125 34 204.5t98 118t155 38.5q20 0 49.5 -3t55.5 -9h386v-70h-306v-240h287v-70h-287v-248h306v-70zM338 59q28 0 55 4t50 12v548q-23 8 -50 12t-55 4q-96 0 -148.5 -57.5t-52.5 -154.5v-156
q0 -97 52.5 -154.5t148.5 -57.5z" />
    <glyph glyph-name="oe" unicode="&#x153;" horiz-adv-x="836" 
d="M252 56q62 0 95.5 37t33.5 113v104q0 76 -33.5 113t-95.5 37q-61 0 -95 -37t-34 -113v-104q0 -76 34 -113t95 -37zM463 297h250v13q0 51 -13.5 85t-40 51.5t-66.5 17.5q-41 0 -70 -17.5t-44.5 -51.5t-15.5 -85v-13zM593 -12q-42 0 -76.5 15.5t-58 42t-31.5 60.5h-10
q-12 -51 -57 -84.5t-108 -33.5q-60 0 -108 27.5t-75.5 87t-27.5 155.5t27.5 155.5t75.5 87t108 27.5q63 0 108 -33.5t57 -84.5h10q12 51 57.5 84.5t108.5 33.5q61 0 106 -27.5t70 -87t25 -155.5v-19h-331v-33q0 -76 34.5 -113.5t95.5 -37.5q52 0 85 23t52 67l52 -38
q-24 -52 -70.5 -85.5t-118.5 -33.5z" />
    <glyph glyph-name="Racute" unicode="&#x154;" horiz-adv-x="578" 
d="M163 300v-300h-80v698h257q57 0 95.5 -22t58 -66t19.5 -111q0 -85 -31 -133t-93 -61l141 -305h-90l-131 300h-146zM163 368h175q30 0 49.5 10.5t29.5 32t10 53.5v68q0 33 -10 54t-29.5 31.5t-49.5 10.5h-175v-260zM381 913l-97 -158l-49 25l77 169z" />
    <glyph glyph-name="racute" unicode="&#x155;" horiz-adv-x="332" 
d="M152 0h-76v516h76v-96h10q9 30 26 51.5t42.5 33t58.5 11.5h28v-77h-50q-36 0 -61.5 -11t-39.5 -32t-14 -53v-343zM301 743l-97 -158l-49 25l77 169z" />
    <glyph glyph-name="Rcommaaccent" unicode="&#x156;" horiz-adv-x="578" 
d="M163 300v-300h-80v698h257q57 0 95.5 -22t58 -66t19.5 -111q0 -85 -31 -133t-93 -61l141 -305h-90l-131 300h-146zM163 368h175q30 0 49.5 10.5t29.5 32t10 53.5v68q0 33 -10 54t-29.5 31.5t-49.5 10.5h-175v-260zM293 -68q25 0 37.5 -10.5t12.5 -29.5v-18q0 -35 -17 -66
t-40 -54h-54q20 23 32.5 40.5t18.5 40.5q-20 2 -30 12.5t-10 26.5v18q0 19 12.5 29.5t37.5 10.5z" />
    <glyph glyph-name="rcommaaccent" unicode="&#x157;" horiz-adv-x="332" 
d="M152 0h-76v516h76v-96h10q9 30 26 51.5t42.5 33t58.5 11.5h28v-77h-50q-36 0 -61.5 -11t-39.5 -32t-14 -53v-343zM115 -68q25 0 37.5 -10.5t12.5 -29.5v-18q0 -35 -17 -66t-40 -54h-54q20 23 32.5 40.5t18.5 40.5q-20 2 -30 12.5t-10 26.5v18q0 19 12.5 29.5t37.5 10.5z
" />
    <glyph glyph-name="Rcaron" unicode="&#x158;" horiz-adv-x="578" 
d="M163 300v-300h-80v698h257q57 0 95.5 -22t58 -66t19.5 -111q0 -85 -31 -133t-93 -61l141 -305h-90l-131 300h-146zM163 368h175q30 0 49.5 10.5t29.5 32t10 53.5v68q0 33 -10 54t-29.5 31.5t-49.5 10.5h-175v-260zM323 769h-92l-101 144l41 30l106 -118l106 118l41 -30z
" />
    <glyph glyph-name="rcaron" unicode="&#x159;" horiz-adv-x="332" 
d="M152 0h-76v516h76v-96h10q9 30 26 51.5t42.5 33t58.5 11.5h28v-77h-50q-36 0 -61.5 -11t-39.5 -32t-14 -53v-343zM243 599h-92l-101 144l41 30l106 -118l106 118l41 -30z" />
    <glyph glyph-name="Sacute" unicode="&#x15a;" horiz-adv-x="525" 
d="M261 -12q-75 0 -131 32t-93 87l58 48q32 -46 72 -72t94 -26q70 0 106 33.5t36 99.5q0 36 -11 60t-36.5 40t-68.5 26l-52 13q-61 15 -100.5 39.5t-59 62t-19.5 91.5q0 62 26.5 104t74 63t111.5 21q73 0 122.5 -27t86.5 -85l-59 -42q-27 42 -62 63.5t-91 21.5
q-64 0 -97.5 -28t-33.5 -91q0 -33 12 -56t38 -37.5t66 -24.5l52 -13q65 -16 104.5 -41t57 -63.5t17.5 -96.5q0 -65 -26.5 -110.5t-76 -68.5t-117.5 -23zM364 913l-97 -158l-49 25l77 169z" />
    <glyph glyph-name="sacute" unicode="&#x15b;" horiz-adv-x="439" 
d="M219 -12q-64 0 -109.5 26t-77.5 72l53 44q27 -38 59 -58t75 -20q45 0 71.5 22.5t26.5 64.5q0 34 -17 55t-63 29l-39 7q-49 9 -82 26.5t-49.5 47t-16.5 73.5q0 79 46 114.5t119 35.5q39 0 69 -9t54 -27t43 -44l-49 -45q-16 24 -44.5 42.5t-72.5 18.5q-46 0 -68.5 -21
t-22.5 -62q0 -37 20 -55t63 -26l39 -7q79 -14 112 -49.5t33 -94.5q0 -50 -19.5 -86t-58 -55t-94.5 -19zM319 743l-97 -158l-49 25l77 169z" />
    <glyph glyph-name="Scircumflex" unicode="&#x15c;" horiz-adv-x="525" 
d="M261 -12q-75 0 -131 32t-93 87l58 48q32 -46 72 -72t94 -26q70 0 106 33.5t36 99.5q0 36 -11 60t-36.5 40t-68.5 26l-52 13q-61 15 -100.5 39.5t-59 62t-19.5 91.5q0 62 26.5 104t74 63t111.5 21q73 0 122.5 -27t86.5 -85l-59 -42q-27 42 -62 63.5t-91 21.5
q-64 0 -97.5 -28t-33.5 -91q0 -33 12 -56t38 -37.5t66 -24.5l52 -13q65 -16 104.5 -41t57 -63.5t17.5 -96.5q0 -65 -26.5 -110.5t-76 -68.5t-117.5 -23zM214 935h92l101 -144l-41 -30l-106 118l-106 -118l-41 30z" />
    <glyph glyph-name="scircumflex" unicode="&#x15d;" horiz-adv-x="439" 
d="M219 -12q-64 0 -109.5 26t-77.5 72l53 44q27 -38 59 -58t75 -20q45 0 71.5 22.5t26.5 64.5q0 34 -17 55t-63 29l-39 7q-49 9 -82 26.5t-49.5 47t-16.5 73.5q0 79 46 114.5t119 35.5q39 0 69 -9t54 -27t43 -44l-49 -45q-16 24 -44.5 42.5t-72.5 18.5q-46 0 -68.5 -21
t-22.5 -62q0 -37 20 -55t63 -26l39 -7q79 -14 112 -49.5t33 -94.5q0 -50 -19.5 -86t-58 -55t-94.5 -19zM169 765h92l101 -144l-41 -30l-106 118l-106 -118l-41 30z" />
    <glyph glyph-name="Scedilla" unicode="&#x15e;" horiz-adv-x="525" 
d="M265 641q-64 0 -97.5 -28t-33.5 -91q0 -33 12 -56t38 -37.5t66 -24.5l52 -13q65 -16 104.5 -41t57 -63.5t17.5 -96.5q0 -93 -53.5 -144.5t-146.5 -56.5l-11 -59h8q5 7 13 11.5t23 4.5q28 0 43 -18t15 -52q0 -28 -14 -46.5t-37.5 -27.5t-50.5 -9q-37 0 -59 14t-33 27
l35 39q10 -10 23.5 -19t33.5 -9q21 0 31.5 8t10.5 26t-10.5 26t-31.5 8h-49l14 76q-65 5 -114.5 36.5t-83.5 81.5l58 48q32 -46 72 -72t94 -26q70 0 106 33.5t36 99.5q0 36 -11 60t-36.5 40t-68.5 26l-52 13q-61 15 -100.5 39.5t-59 62t-19.5 91.5q0 62 26.5 104t74 63
t111.5 21q73 0 122.5 -27t86.5 -85l-59 -42q-27 42 -62 63.5t-91 21.5z" />
    <glyph glyph-name="scedilla" unicode="&#x15f;" horiz-adv-x="439" 
d="M227 -207q-37 0 -59 14t-33 27l35 39q10 -10 23.5 -19t33.5 -9q21 0 31.5 8t10.5 26t-10.5 26t-31.5 8h-49l14 76q-53 5 -92.5 31t-67.5 66l53 44q27 -38 59 -58t75 -20q45 0 71.5 22.5t26.5 64.5q0 34 -17 55t-63 29l-39 7q-49 9 -82 26.5t-49.5 47t-16.5 73.5
q0 79 46 114.5t119 35.5q39 0 69 -9t54 -27t43 -44l-49 -45q-16 24 -44.5 42.5t-72.5 18.5q-46 0 -68.5 -21t-22.5 -62q0 -37 20 -55t63 -26l39 -7q79 -14 112 -49.5t33 -94.5q0 -70 -39 -112t-114 -47l-11 -59h8q5 7 13 11.5t23 4.5q28 0 43 -18t15 -52q0 -28 -14 -46.5
t-37.5 -27.5t-50.5 -9z" />
    <glyph glyph-name="Scaron" unicode="&#x160;" horiz-adv-x="525" 
d="M261 -12q-75 0 -131 32t-93 87l58 48q32 -46 72 -72t94 -26q70 0 106 33.5t36 99.5q0 36 -11 60t-36.5 40t-68.5 26l-52 13q-61 15 -100.5 39.5t-59 62t-19.5 91.5q0 62 26.5 104t74 63t111.5 21q73 0 122.5 -27t86.5 -85l-59 -42q-27 42 -62 63.5t-91 21.5
q-64 0 -97.5 -28t-33.5 -91q0 -33 12 -56t38 -37.5t66 -24.5l52 -13q65 -16 104.5 -41t57 -63.5t17.5 -96.5q0 -65 -26.5 -110.5t-76 -68.5t-117.5 -23zM306 769h-92l-101 144l41 30l106 -118l106 118l41 -30z" />
    <glyph glyph-name="scaron" unicode="&#x161;" horiz-adv-x="439" 
d="M219 -12q-64 0 -109.5 26t-77.5 72l53 44q27 -38 59 -58t75 -20q45 0 71.5 22.5t26.5 64.5q0 34 -17 55t-63 29l-39 7q-49 9 -82 26.5t-49.5 47t-16.5 73.5q0 79 46 114.5t119 35.5q39 0 69 -9t54 -27t43 -44l-49 -45q-16 24 -44.5 42.5t-72.5 18.5q-46 0 -68.5 -21
t-22.5 -62q0 -37 20 -55t63 -26l39 -7q79 -14 112 -49.5t33 -94.5q0 -50 -19.5 -86t-58 -55t-94.5 -19zM261 599h-92l-101 144l41 30l106 -118l106 118l41 -30z" />
    <glyph glyph-name="uni0162" unicode="&#x162;" horiz-adv-x="516" 
d="M268 -207q-37 0 -59 14t-33 27l35 39q10 -10 23.5 -19t33.5 -9q21 0 31.5 8t10.5 26t-10.5 26t-31.5 8h-49l16 87h-17v628h-197v70h474v-70h-197v-628h-17l-13 -70h8q5 7 13 11.5t23 4.5q28 0 43 -18t15 -52q0 -28 -14 -46.5t-37.5 -27.5t-50.5 -9z" />
    <glyph glyph-name="uni0163" unicode="&#x163;" horiz-adv-x="318" 
d="M203 -207q-37 0 -59 14t-33 27l35 39q10 -10 23.5 -19t33.5 -9q21 0 31.5 8t10.5 26t-10.5 26t-31.5 8h-49l22 119l13 -32h-9q-40 0 -59 19t-19 59v371h-76v67h45q23 0 30.5 12t7.5 34v96h69v-142h100v-67h-100v-382h95v-67h-57l-13 -70h8q5 7 13 11.5t23 4.5
q28 0 43 -18t15 -52q0 -28 -14 -46.5t-37.5 -27.5t-50.5 -9z" />
    <glyph glyph-name="Tcaron" unicode="&#x164;" horiz-adv-x="516" 
d="M495 628h-197v-628h-80v628h-197v70h474v-70zM304 769h-92l-101 144l41 30l106 -118l106 118l41 -30z" />
    <glyph glyph-name="tcaron" unicode="&#x165;" horiz-adv-x="318" 
d="M273 0h-93q-40 0 -59 19t-19 59v371h-76v67h45q23 0 30.5 12t7.5 34v96h69v-142h100v-67h-100v-382h95v-67zM330 751l-47 -185h-51l11 185h87z" />
    <glyph glyph-name="Tbar" unicode="&#x166;" horiz-adv-x="516" 
d="M442 342h-144v-342h-80v342h-144v60h144v226h-197v70h474v-70h-197v-226h144v-60z" />
    <glyph glyph-name="tbar" unicode="&#x167;" horiz-adv-x="323" 
d="M273 67v-67h-93q-40 0 -59 19t-19 59v175h-56v56h56v140h-76v67h45q23 0 30.5 12t7.5 34v96h69v-142h100v-67h-100v-140h85v-56h-85v-186h95z" />
    <glyph glyph-name="Utilde" unicode="&#x168;" horiz-adv-x="611" 
d="M78 698h80v-452q0 -62 14 -104t46 -62.5t87 -20.5t87 20.5t46 62.5t14 104v452h80v-436q0 -93 -22 -154t-71.5 -90.5t-133.5 -29.5t-133.5 29.5t-71.5 90.5t-22 154v436zM371 784q-16 0 -32.5 6t-41.5 20q-23 14 -37 19.5t-25 5.5q-15 0 -27 -7.5t-26 -20.5l-30 38
q16 26 37.5 39t47.5 13q17 0 33 -6t41 -20q23 -13 37.5 -19t24.5 -6q15 0 27.5 7.5t25.5 20.5l30 -38q-16 -25 -37.5 -38.5t-47.5 -13.5z" />
    <glyph glyph-name="utilde" unicode="&#x169;" horiz-adv-x="513" 
d="M361 0v84h-10q-15 -47 -46.5 -71.5t-85.5 -24.5q-69 0 -108.5 47.5t-39.5 144.5v336h76v-331q0 -61 26 -94.5t78 -33.5q31 0 55.5 13t39.5 37t15 57v352h76v-516h-76zM322 613q-16 0 -32.5 6t-41.5 20q-23 14 -37 19.5t-25 5.5q-15 0 -27 -7.5t-26 -20.5l-30 38
q16 26 37.5 39t47.5 13q17 0 33 -6t41 -20q23 -13 37.5 -19t24.5 -6q15 0 27.5 7.5t25.5 20.5l30 -38q-16 -25 -37.5 -38.5t-47.5 -13.5z" />
    <glyph glyph-name="Umacron" unicode="&#x16a;" horiz-adv-x="611" 
d="M78 698h80v-452q0 -62 14 -104t46 -62.5t87 -20.5t87 20.5t46 62.5t14 104v452h80v-436q0 -93 -22 -154t-71.5 -90.5t-133.5 -29.5t-133.5 29.5t-71.5 90.5t-22 154v436zM177 809v64h254v-64h-254z" />
    <glyph glyph-name="umacron" unicode="&#x16b;" horiz-adv-x="513" 
d="M361 0v84h-10q-15 -47 -46.5 -71.5t-85.5 -24.5q-69 0 -108.5 47.5t-39.5 144.5v336h76v-331q0 -61 26 -94.5t78 -33.5q31 0 55.5 13t39.5 37t15 57v352h76v-516h-76zM128 639v64h254v-64h-254z" />
    <glyph glyph-name="Ubreve" unicode="&#x16c;" horiz-adv-x="611" 
d="M78 698h80v-452q0 -62 14 -104t46 -62.5t87 -20.5t87 20.5t46 62.5t14 104v452h80v-436q0 -93 -22 -154t-71.5 -90.5t-133.5 -29.5t-133.5 29.5t-71.5 90.5t-22 154v436zM304 766q-26 0 -47.5 7.5t-39 23t-31 39t-23.5 56.5l43 21l18 -33q15 -28 33.5 -40t46.5 -12
q29 0 47 12t33 40l18 33l43 -21q-13 -43 -33 -71t-46.5 -41.5t-61.5 -13.5z" />
    <glyph glyph-name="ubreve" unicode="&#x16d;" horiz-adv-x="513" 
d="M361 0v84h-10q-15 -47 -46.5 -71.5t-85.5 -24.5q-69 0 -108.5 47.5t-39.5 144.5v336h76v-331q0 -61 26 -94.5t78 -33.5q31 0 55.5 13t39.5 37t15 57v352h76v-516h-76zM255 596q-26 0 -47.5 7.5t-39 23t-31 39t-23.5 56.5l43 21l18 -33q15 -28 33.5 -40t46.5 -12
q29 0 47 12t33 40l18 33l43 -21q-10 -33 -23.5 -56.5t-31 -39t-39 -23t-47.5 -7.5z" />
    <glyph glyph-name="Uring" unicode="&#x16e;" horiz-adv-x="611" 
d="M78 698h80v-452q0 -62 14 -104t46 -62.5t87 -20.5t87 20.5t46 62.5t14 104v452h80v-436q0 -93 -22 -154t-71.5 -90.5t-133.5 -29.5t-133.5 29.5t-71.5 90.5t-22 154v436zM304 746q-34 0 -58.5 15t-38 41t-13.5 59q0 34 13.5 59.5t38 40.5t58.5 15t58.5 -15t38 -40.5
t13.5 -59.5q0 -33 -13.5 -59t-38 -41t-58.5 -15zM304 793q25 0 39.5 13t14.5 38v34q0 25 -14.5 38t-39.5 13t-39.5 -13t-14.5 -38v-34q0 -25 14.5 -38t39.5 -13z" />
    <glyph glyph-name="uring" unicode="&#x16f;" horiz-adv-x="513" 
d="M361 0v84h-10q-15 -47 -46.5 -71.5t-85.5 -24.5q-69 0 -108.5 47.5t-39.5 144.5v336h76v-331q0 -61 26 -94.5t78 -33.5q31 0 55.5 13t39.5 37t15 57v352h76v-516h-76zM255 576q-34 0 -58.5 15t-38 41t-13.5 59q0 34 13.5 59.5t38 40.5t58.5 15t58.5 -15t38 -40.5
t13.5 -59.5q0 -33 -13.5 -59t-38 -41t-58.5 -15zM255 623q25 0 39.5 13t14.5 38v34q0 25 -14.5 38t-39.5 13t-39.5 -13t-14.5 -38v-34q0 -25 14.5 -38t39.5 -13z" />
    <glyph glyph-name="Uhungarumlaut" unicode="&#x170;" horiz-adv-x="611" 
d="M78 698h80v-452q0 -62 14 -104t46 -62.5t87 -20.5t87 20.5t46 62.5t14 104v452h80v-436q0 -93 -22 -154t-71.5 -90.5t-133.5 -29.5t-133.5 29.5t-71.5 90.5t-22 154v436zM334 915l-97 -159l-45 24l77 170zM481 915l-97 -159l-45 24l77 170z" />
    <glyph glyph-name="uhungarumlaut" unicode="&#x171;" horiz-adv-x="513" 
d="M361 0v84h-10q-15 -47 -46.5 -71.5t-85.5 -24.5q-69 0 -108.5 47.5t-39.5 144.5v336h76v-331q0 -61 26 -94.5t78 -33.5q31 0 55.5 13t39.5 37t15 57v352h76v-516h-76zM285 744l-97 -159l-45 24l77 170zM432 744l-97 -159l-45 24l77 170z" />
    <glyph glyph-name="Uogonek" unicode="&#x172;" horiz-adv-x="611" 
d="M78 698h80v-452q0 -62 14 -104t46 -62.5t87 -20.5t87 20.5t46 62.5t14 104v452h80v-436q0 -51 -6.5 -92.5t-21 -73.5t-37.5 -57q-51 -55 -75 -85t-31 -46t-7 -30q0 -15 9.5 -23.5t26.5 -8.5q14 0 25.5 5.5t19.5 16.5l35 -36q-10 -15 -32.5 -27t-51.5 -12
q-44 0 -69.5 18.5t-25.5 50.5q0 20 7.5 37.5t29 39.5t62.5 53l-1 6q-18 -5 -39 -7.5t-45 -2.5q-84 0 -133.5 29.5t-71.5 90.5t-22 154v436z" />
    <glyph glyph-name="uogonek" unicode="&#x173;" horiz-adv-x="513" 
d="M437 516v-516q-35 -25 -56 -45t-30.5 -37.5t-9.5 -37.5q0 -18 10.5 -26t25.5 -8q14 0 25.5 5.5t19.5 16.5l35 -36q-10 -15 -32.5 -27t-51.5 -12q-27 0 -48.5 7.5t-34 23t-12.5 38.5q0 42 32 73.5t78 55.5v9h-27v84h-10q-15 -47 -46.5 -71.5t-85.5 -24.5
q-69 0 -108.5 47.5t-39.5 144.5v336h76v-331q0 -61 26 -94.5t78 -33.5q31 0 55.5 13t39.5 37t15 57v352h76z" />
    <glyph glyph-name="Wcircumflex" unicode="&#x174;" horiz-adv-x="808" 
d="M272 0h-100l-153 698h83l94 -451l25 -167h10l25 167l95 451h108l95 -451l25 -167h10l25 167l94 451h81l-159 -698h-100l-96 451l-25 177h-10l-25 -177zM358 935h92l101 -144l-41 -30l-106 118l-106 -118l-41 30z" />
    <glyph glyph-name="wcircumflex" unicode="&#x175;" horiz-adv-x="698" 
d="M151 0l-124 516h74l50 -224l44 -225h10l51 225l52 224h88l52 -224l51 -225h10l44 225l50 224h72l-124 -516h-96l-63 250l-35 189h-10l-37 -189l-63 -250h-96zM306 765h92l101 -144l-41 -30l-106 118l-106 -118l-41 30z" />
    <glyph glyph-name="Ycircumflex" unicode="&#x176;" horiz-adv-x="534" 
d="M307 0h-80v276l-216 422h91l161 -332h10l161 332h89l-216 -422v-276zM223 935h92l101 -144l-41 -30l-106 118l-106 -118l-41 30z" />
    <glyph glyph-name="ycircumflex" unicode="&#x177;" horiz-adv-x="451" 
d="M277 256l79 260h74l-204 -648q-8 -27 -18.5 -41.5t-27.5 -20.5t-46 -6h-56v67h79l30 105l-171 544h76l79 -260l48 -189h10zM180 765h92l101 -144l-41 -30l-106 118l-106 -118l-41 30z" />
    <glyph glyph-name="Ydieresis" unicode="&#x178;" horiz-adv-x="534" 
d="M307 0h-80v276l-216 422h91l161 -332h10l161 332h89l-216 -422v-276zM183 792q-25 0 -37.5 10.5t-12.5 29.5v18q0 19 12.5 29.5t37.5 10.5t37.5 -10.5t12.5 -29.5v-18q0 -19 -12.5 -29.5t-37.5 -10.5zM355 792q-25 0 -37.5 10.5t-12.5 29.5v18q0 19 12.5 29.5t37.5 10.5
t37.5 -10.5t12.5 -29.5v-18q0 -19 -12.5 -29.5t-37.5 -10.5z" />
    <glyph glyph-name="Zacute" unicode="&#x179;" horiz-adv-x="524" 
d="M491 70v-70h-458v72l359 556h-343v70h430v-72l-359 -556h371zM372 913l-97 -158l-49 25l77 169z" />
    <glyph glyph-name="zacute" unicode="&#x17a;" horiz-adv-x="421" 
d="M391 0h-361v58l263 391h-255v67h345v-58l-263 -391h271v-67zM314 743l-97 -158l-49 25l77 169z" />
    <glyph glyph-name="Zdotaccent" unicode="&#x17b;" horiz-adv-x="524" 
d="M491 70v-70h-458v72l359 556h-343v70h430v-72l-359 -556h371zM268 792q-25 0 -37.5 10.5t-12.5 29.5v18q0 19 12.5 29.5t37.5 10.5t37.5 -10.5t12.5 -29.5v-18q0 -19 -12.5 -29.5t-37.5 -10.5z" />
    <glyph glyph-name="zdotaccent" unicode="&#x17c;" horiz-adv-x="421" 
d="M391 0h-361v58l263 391h-255v67h345v-58l-263 -391h271v-67zM210 618q-25 0 -37.5 10.5t-12.5 29.5v18q0 19 12.5 29.5t37.5 10.5t37.5 -10.5t12.5 -29.5v-18q0 -19 -12.5 -29.5t-37.5 -10.5z" />
    <glyph glyph-name="Zcaron" unicode="&#x17d;" horiz-adv-x="524" 
d="M491 70v-70h-458v72l359 556h-343v70h430v-72l-359 -556h371zM314 769h-92l-101 144l41 30l106 -118l106 118l41 -30z" />
    <glyph glyph-name="zcaron" unicode="&#x17e;" horiz-adv-x="421" 
d="M391 0h-361v58l263 391h-255v67h345v-58l-263 -391h271v-67zM256 599h-92l-101 144l41 30l106 -118l106 118l41 -30z" />
    <glyph glyph-name="uni017F" unicode="&#x17f;" horiz-adv-x="253" 
d="M101 0v449h-75v67h75v126q0 51 23.5 74.5t74.5 23.5h77v-67h-99v-673h-76z" />
    <glyph glyph-name="uni018F" unicode="&#x18f;" horiz-adv-x="638" 
d="M52 369h451v58q0 97 -49 154.5t-135 57.5q-69 0 -111 -36t-62 -101l-68 30q16 52 47.5 92t80 63t113.5 23q85 0 144.5 -38.5t91 -118t31.5 -204.5q0 -124 -31.5 -204t-91 -118.5t-144.5 -38.5q-84 0 -144 38.5t-91.5 118.5t-31.5 204v20zM135 304v-33q0 -64 22 -112
t63.5 -74t98.5 -26q58 0 99 26t63 74t22 112v33h-368z" />
    <glyph glyph-name="florin" unicode="&#x192;" horiz-adv-x="436" 
d="M-2 -134l8 67h127l33 371h-127l8 70h125l21 231q5 52 27 72.5t77 20.5h119l-8 -67h-136l-23 -257h150l-8 -70h-148l-31 -345q-4 -52 -26 -72.5t-78 -20.5h-110z" />
    <glyph glyph-name="Ohorn" unicode="&#x1a0;" horiz-adv-x="638" 
d="M525 810h66v-103q0 -36 -12 -48t-48 -12h-96v-8q54 -12 87 -47t48.5 -95t15.5 -148q0 -124 -31.5 -204t-91 -118.5t-144.5 -38.5q-84 0 -144 38.5t-91.5 118.5t-31.5 204q0 125 31.5 204.5t91.5 118t144 38.5q23 0 45.5 -3t41.5 -9h119v112zM319 59q58 0 98 26t61.5 74
t21.5 112v156q0 65 -21.5 112.5t-61.5 73.5t-98 26q-57 0 -97.5 -26t-62 -73.5t-21.5 -112.5v-156q0 -64 21.5 -112t62 -74t97.5 -26z" />
    <glyph glyph-name="ohorn" unicode="&#x1a1;" horiz-adv-x="504" 
d="M403 628h66v-103q0 -36 -12 -48t-48 -12h-56v-8q38 -8 62 -33.5t36 -67t12 -98.5q0 -96 -27.5 -155.5t-75 -87t-108.5 -27.5q-60 0 -108 27.5t-75.5 87t-27.5 155.5t27.5 155.5t75.5 87t108 27.5q20 0 39.5 -3t36.5 -9h75v112zM252 56q62 0 95.5 37t33.5 113v104
q0 76 -33.5 113t-95.5 37q-61 0 -95 -37t-34 -113v-104q0 -76 34 -113t95 -37z" />
    <glyph glyph-name="Uhorn" unicode="&#x1af;" horiz-adv-x="617" 
d="M78 698h80v-452q0 -62 14 -104t46 -62.5t87 -20.5t87 20.5t46 62.5t14 104v452h85v112h66v-103q0 -24 -5 -37t-18 -18t-37 -5h-41l30 30v-415q0 -93 -22 -154t-71.5 -90.5t-133.5 -29.5t-133.5 29.5t-71.5 90.5t-22 154v436z" />
    <glyph glyph-name="uhorn" unicode="&#x1b0;" horiz-adv-x="519" 
d="M437 0h-76v84h-10q-15 -47 -46.5 -71.5t-85.5 -24.5q-69 0 -108.5 47.5t-39.5 144.5v336h76v-331q0 -61 26 -94.5t78 -33.5q31 0 55.5 13t39.5 37t15 57v352h84v112h66v-103q0 -24 -5 -37t-18 -18t-37 -5h-44l30 30v-495z" />
    <glyph glyph-name="uni01CD" unicode="&#x1cd;" horiz-adv-x="579" 
d="M558 0h-82l-62 209h-251l-62 -209h-80l218 698h100zM396 275l-81 265l-22 87h-10l-22 -87l-79 -265h214zM337 769h-92l-101 144l41 30l106 -118l106 118l41 -30z" />
    <glyph glyph-name="uni01CE" unicode="&#x1ce;" horiz-adv-x="483" 
d="M456 0h-54q-24 0 -40.5 8.5t-25 25t-8.5 40.5v20l10 -10h-20q-13 -46 -48 -71t-82 -25q-75 0 -112 38.5t-37 111.5q0 48 21 83t64.5 54t110.5 19h93v57q0 57 -25.5 84t-80.5 27q-44 0 -72 -19.5t-48 -56.5l-45 42q20 41 64.5 70t103.5 29q87 0 133 -42.5t46 -125.5v-292
h52v-67zM328 236h-95q-60 0 -87.5 -20t-27.5 -58v-28q0 -39 24.5 -57.5t64.5 -18.5q35 0 62.5 15t43 39t15.5 50v78zM274 599h-92l-101 144l41 30l106 -118l106 118l41 -30z" />
    <glyph glyph-name="uni01CF" unicode="&#x1cf;" horiz-adv-x="362" 
d="M309 0h-256v66h88v566h-88v66h256v-66h-88v-566h88v-66zM227 769h-92l-101 144l41 30l106 -118l106 118l41 -30z" />
    <glyph glyph-name="uni01D0" unicode="&#x1d0;" horiz-adv-x="228" 
d="M152 0h-76v516h76v-516zM160 599h-92l-88 144l41 30l93 -118l93 118l41 -30z" />
    <glyph glyph-name="uni01D1" unicode="&#x1d1;" horiz-adv-x="638" 
d="M319 -12q-84 0 -144 38.5t-91.5 118.5t-31.5 204q0 125 31.5 204.5t91.5 118t144 38.5q85 0 144.5 -38.5t91 -118t31.5 -204.5q0 -124 -31.5 -204t-91 -118.5t-144.5 -38.5zM319 59q58 0 98 26t61.5 74t21.5 112v156q0 65 -21.5 112.5t-61.5 73.5t-98 26q-57 0 -97.5 -26
t-62 -73.5t-21.5 -112.5v-156q0 -64 21.5 -112t62 -74t97.5 -26zM365 769h-92l-101 144l41 30l106 -118l106 118l41 -30z" />
    <glyph glyph-name="uni01D2" unicode="&#x1d2;" horiz-adv-x="504" 
d="M252 -12q-60 0 -108 27.5t-75.5 87t-27.5 155.5t27.5 155.5t75.5 87t108 27.5q61 0 108.5 -27.5t75 -87t27.5 -155.5t-27.5 -155.5t-75 -87t-108.5 -27.5zM252 56q62 0 95.5 37t33.5 113v104q0 76 -33.5 113t-95.5 37q-61 0 -95 -37t-34 -113v-104q0 -76 34 -113t95 -37z
M298 599h-92l-101 144l41 30l106 -118l106 118l41 -30z" />
    <glyph glyph-name="uni01D3" unicode="&#x1d3;" horiz-adv-x="611" 
d="M78 698h80v-452q0 -62 14 -104t46 -62.5t87 -20.5t87 20.5t46 62.5t14 104v452h80v-436q0 -93 -22 -154t-71.5 -90.5t-133.5 -29.5t-133.5 29.5t-71.5 90.5t-22 154v436zM350 769h-92l-101 144l41 30l106 -118l106 118l41 -30z" />
    <glyph glyph-name="uni01D4" unicode="&#x1d4;" horiz-adv-x="513" 
d="M361 0v84h-10q-15 -47 -46.5 -71.5t-85.5 -24.5q-69 0 -108.5 47.5t-39.5 144.5v336h76v-331q0 -61 26 -94.5t78 -33.5q31 0 55.5 13t39.5 37t15 57v352h76v-516h-76zM301 599h-92l-101 144l41 30l106 -118l106 118l41 -30z" />
    <glyph glyph-name="uni01D5" unicode="&#x1d5;" horiz-adv-x="611" 
d="M78 698h80v-452q0 -62 14 -104t46 -62.5t87 -20.5t87 20.5t46 62.5t14 104v452h80v-436q0 -93 -22 -154t-71.5 -90.5t-133.5 -29.5t-133.5 29.5t-71.5 90.5t-22 154v436zM177 918v64h254v-64h-254zM214 767q-25 0 -37.5 10.5t-12.5 29.5v18q0 19 12.5 29.5t37.5 10.5
t37.5 -10.5t12.5 -29.5v-18q0 -19 -12.5 -29.5t-37.5 -10.5zM394 767q-25 0 -37.5 10.5t-12.5 29.5v18q0 19 12.5 29.5t37.5 10.5t37.5 -10.5t12.5 -29.5v-18q0 -19 -12.5 -29.5t-37.5 -10.5z" />
    <glyph glyph-name="uni01D6" unicode="&#x1d6;" horiz-adv-x="513" 
d="M361 0v84h-10q-15 -47 -46.5 -71.5t-85.5 -24.5q-69 0 -108.5 47.5t-39.5 144.5v336h76v-331q0 -61 26 -94.5t78 -33.5q31 0 55.5 13t39.5 37t15 57v352h76v-516h-76zM128 749v64h254v-64h-254zM165 598q-25 0 -37.5 10.5t-12.5 29.5v18q0 19 12.5 29.5t37.5 10.5
t37.5 -10.5t12.5 -29.5v-18q0 -19 -12.5 -29.5t-37.5 -10.5zM345 598q-25 0 -37.5 10.5t-12.5 29.5v18q0 19 12.5 29.5t37.5 10.5t37.5 -10.5t12.5 -29.5v-18q0 -19 -12.5 -29.5t-37.5 -10.5z" />
    <glyph glyph-name="uni01D7" unicode="&#x1d7;" horiz-adv-x="611" 
d="M78 698h80v-452q0 -62 14 -104t46 -62.5t87 -20.5t87 20.5t46 62.5t14 104v452h80v-436q0 -93 -22 -154t-71.5 -90.5t-133.5 -29.5t-133.5 29.5t-71.5 90.5t-22 154v436zM415 1025l-97 -158l-49 25l77 169zM214 767q-25 0 -37.5 10.5t-12.5 29.5v18q0 19 12.5 29.5
t37.5 10.5t37.5 -10.5t12.5 -29.5v-18q0 -19 -12.5 -29.5t-37.5 -10.5zM394 767q-25 0 -37.5 10.5t-12.5 29.5v18q0 19 12.5 29.5t37.5 10.5t37.5 -10.5t12.5 -29.5v-18q0 -19 -12.5 -29.5t-37.5 -10.5z" />
    <glyph glyph-name="uni01D8" unicode="&#x1d8;" horiz-adv-x="513" 
d="M361 0v84h-10q-15 -47 -46.5 -71.5t-85.5 -24.5q-69 0 -108.5 47.5t-39.5 144.5v336h76v-331q0 -61 26 -94.5t78 -33.5q31 0 55.5 13t39.5 37t15 57v352h76v-516h-76zM366 856l-97 -158l-49 25l77 169zM165 598q-25 0 -37.5 10.5t-12.5 29.5v18q0 19 12.5 29.5t37.5 10.5
t37.5 -10.5t12.5 -29.5v-18q0 -19 -12.5 -29.5t-37.5 -10.5zM345 598q-25 0 -37.5 10.5t-12.5 29.5v18q0 19 12.5 29.5t37.5 10.5t37.5 -10.5t12.5 -29.5v-18q0 -19 -12.5 -29.5t-37.5 -10.5z" />
    <glyph glyph-name="uni01D9" unicode="&#x1d9;" horiz-adv-x="611" 
d="M78 698h80v-452q0 -62 14 -104t46 -62.5t87 -20.5t87 20.5t46 62.5t14 104v452h80v-436q0 -93 -22 -154t-71.5 -90.5t-133.5 -29.5t-133.5 29.5t-71.5 90.5t-22 154v436zM350 894h-92l-102 134l40 30l108 -108l108 108l40 -30zM214 767q-25 0 -37.5 10.5t-12.5 29.5v18
q0 19 12.5 29.5t37.5 10.5t37.5 -10.5t12.5 -29.5v-18q0 -19 -12.5 -29.5t-37.5 -10.5zM394 767q-25 0 -37.5 10.5t-12.5 29.5v18q0 19 12.5 29.5t37.5 10.5t37.5 -10.5t12.5 -29.5v-18q0 -19 -12.5 -29.5t-37.5 -10.5z" />
    <glyph glyph-name="uni01DA" unicode="&#x1da;" horiz-adv-x="513" 
d="M361 0v84h-10q-15 -47 -46.5 -71.5t-85.5 -24.5q-69 0 -108.5 47.5t-39.5 144.5v336h76v-331q0 -61 26 -94.5t78 -33.5q31 0 55.5 13t39.5 37t15 57v352h76v-516h-76zM301 725h-92l-102 134l40 30l108 -108l108 108l40 -30zM165 598q-25 0 -37.5 10.5t-12.5 29.5v18
q0 19 12.5 29.5t37.5 10.5t37.5 -10.5t12.5 -29.5v-18q0 -19 -12.5 -29.5t-37.5 -10.5zM345 598q-25 0 -37.5 10.5t-12.5 29.5v18q0 19 12.5 29.5t37.5 10.5t37.5 -10.5t12.5 -29.5v-18q0 -19 -12.5 -29.5t-37.5 -10.5z" />
    <glyph glyph-name="uni01DB" unicode="&#x1db;" horiz-adv-x="611" 
d="M78 698h80v-452q0 -62 14 -104t46 -62.5t87 -20.5t87 20.5t46 62.5t14 104v452h80v-436q0 -93 -22 -154t-71.5 -90.5t-133.5 -29.5t-133.5 29.5t-71.5 90.5t-22 154v436zM290 867l-97 158l69 36l77 -169zM214 767q-25 0 -37.5 10.5t-12.5 29.5v18q0 19 12.5 29.5
t37.5 10.5t37.5 -10.5t12.5 -29.5v-18q0 -19 -12.5 -29.5t-37.5 -10.5zM394 767q-25 0 -37.5 10.5t-12.5 29.5v18q0 19 12.5 29.5t37.5 10.5t37.5 -10.5t12.5 -29.5v-18q0 -19 -12.5 -29.5t-37.5 -10.5z" />
    <glyph glyph-name="uni01DC" unicode="&#x1dc;" horiz-adv-x="513" 
d="M361 0v84h-10q-15 -47 -46.5 -71.5t-85.5 -24.5q-69 0 -108.5 47.5t-39.5 144.5v336h76v-331q0 -61 26 -94.5t78 -33.5q31 0 55.5 13t39.5 37t15 57v352h76v-516h-76zM241 698l-97 158l69 36l77 -169zM165 598q-25 0 -37.5 10.5t-12.5 29.5v18q0 19 12.5 29.5t37.5 10.5
t37.5 -10.5t12.5 -29.5v-18q0 -19 -12.5 -29.5t-37.5 -10.5zM345 598q-25 0 -37.5 10.5t-12.5 29.5v18q0 19 12.5 29.5t37.5 10.5t37.5 -10.5t12.5 -29.5v-18q0 -19 -12.5 -29.5t-37.5 -10.5z" />
    <glyph glyph-name="Aringacute" unicode="&#x1fa;" horiz-adv-x="579" 
d="M558 0h-82l-62 209h-251l-62 -209h-80l218 698h100zM396 275l-81 265l-22 87h-10l-22 -87l-79 -265h214zM388 1090l-88 -106l-38 26l71 116zM291 736q-51 0 -80.5 32.5t-29.5 82.5t29.5 82.5t80.5 32.5t80.5 -32.5t29.5 -82.5t-29.5 -82.5t-80.5 -32.5zM291 783
q25 0 39.5 13t14.5 38v34q0 25 -14.5 38t-39.5 13t-39.5 -13t-14.5 -38v-34q0 -25 14.5 -38t39.5 -13z" />
    <glyph glyph-name="aringacute" unicode="&#x1fb;" horiz-adv-x="483" 
d="M456 0h-54q-24 0 -40.5 8.5t-25 25t-8.5 40.5v20l10 -10h-20q-13 -46 -48 -71t-82 -25q-75 0 -112 38.5t-37 111.5q0 48 21 83t64.5 54t110.5 19h93v57q0 57 -25.5 84t-80.5 27q-44 0 -72 -19.5t-48 -56.5l-45 42q20 41 64.5 70t103.5 29q87 0 133 -42.5t46 -125.5v-292
h52v-67zM328 236h-95q-60 0 -87.5 -20t-27.5 -58v-28q0 -39 24.5 -57.5t64.5 -18.5q35 0 62.5 15t43 39t15.5 50v78zM325 920l-88 -106l-38 26l71 116zM228 566q-51 0 -80.5 32.5t-29.5 82.5t29.5 82.5t80.5 32.5t80.5 -32.5t29.5 -82.5t-29.5 -82.5t-80.5 -32.5zM228 613
q25 0 39.5 13t14.5 38v34q0 25 -14.5 38t-39.5 13t-39.5 -13t-14.5 -38v-34q0 -25 14.5 -38t39.5 -13z" />
    <glyph glyph-name="AEacute" unicode="&#x1fc;" horiz-adv-x="820" 
d="M377 0v208h-200l-92 -208h-82l320 698h440v-70h-306v-240h287v-70h-287v-248h306v-70h-386zM377 628h-13l-157 -354h170v354zM635 913l-97 -158l-49 25l77 169z" />
    <glyph glyph-name="aeacute" unicode="&#x1fd;" horiz-adv-x="782" 
d="M333 238h-100q-60 0 -87.5 -21t-27.5 -59v-28q0 -39 24.5 -57.5t64.5 -18.5q35 0 63.5 15t45.5 39t17 50v80zM409 296h250v14q0 51 -13.5 85t-40 51.5t-66.5 17.5q-41 0 -70 -17.5t-44.5 -51.5t-15.5 -85v-14zM539 55q52 0 85 23t52 67l52 -38q-24 -52 -70.5 -85.5
t-118.5 -33.5q-40 0 -74 15.5t-57.5 42t-31.5 60.5h-10q-8 -34 -33 -60.5t-62 -42t-83 -15.5q-75 0 -112 38.5t-37 111.5q0 49 21 84t64.5 54.5t110.5 19.5h98v52q0 57 -27.5 85.5t-83.5 28.5q-44 0 -72 -19.5t-48 -56.5l-45 42q20 41 64.5 70t103.5 29q40 0 70 -14.5
t49.5 -40.5t25.5 -62h10q8 34 31 60.5t56 42t72 15.5q61 0 106 -27.5t70 -87t25 -156.5v-19h-331v-32q0 -76 34.5 -113.5t95.5 -37.5zM483 743l-97 -158l-49 25l77 169z" />
    <glyph glyph-name="Oslashacute" unicode="&#x1fe;" horiz-adv-x="638" 
d="M319 -12q-47 0 -86.5 12t-71.5 36l-50 -80l-53 36l57 92q-31 44 -47 110.5t-16 154.5q0 125 31.5 204.5t91.5 118t144 38.5q47 0 87 -12t71 -36l50 80l53 -36l-57 -92q31 -44 47 -110t16 -155q0 -124 -31.5 -204t-91 -118.5t-144.5 -38.5zM319 639q-57 0 -97.5 -26
t-62 -73.5t-21.5 -112.5v-186q0 -22 5 -49t9 -41h11l156 259l119 186q-22 21 -52 32t-67 11zM319 59q58 0 98 26t61.5 74t21.5 112v186q0 23 -5 49.5t-9 40.5h-11l-156 -259l-119 -186q23 -21 52.5 -32t66.5 -11zM423 913l-97 -158l-49 25l77 169z" />
    <glyph glyph-name="oslashacute" unicode="&#x1ff;" horiz-adv-x="504" 
d="M69 -36l-44 32l58 79q-20 32 -31 77.5t-11 105.5q0 96 27.5 155.5t75.5 87t108 27.5q38 0 72 -11t60 -34l51 69l44 -32l-58 -79q20 -32 31 -77.5t11 -105.5q0 -96 -27.5 -155.5t-75 -87t-108.5 -27.5q-38 0 -72 11t-60 34zM252 56q62 0 95.5 37t33.5 113v95q1 19 1 30.5
t0.5 23t0.5 30.5h-9l-56 -81l-158 -215q16 -16 39.5 -24.5t52.5 -8.5zM252 460q-61 0 -95 -37t-34 -113v-95q0 -20 -0.5 -31t-0.5 -22t-1 -31h9l56 81l158 215q-16 16 -39.5 24.5t-52.5 8.5zM356 743l-97 -158l-49 25l77 169z" />
    <glyph glyph-name="Scommaaccent" unicode="&#x218;" horiz-adv-x="525" 
d="M261 -12q-75 0 -131 32t-93 87l58 48q32 -46 72 -72t94 -26q70 0 106 33.5t36 99.5q0 36 -11 60t-36.5 40t-68.5 26l-52 13q-61 15 -100.5 39.5t-59 62t-19.5 91.5q0 62 26.5 104t74 63t111.5 21q73 0 122.5 -27t86.5 -85l-59 -42q-27 42 -62 63.5t-91 21.5
q-64 0 -97.5 -28t-33.5 -91q0 -33 12 -56t38 -37.5t66 -24.5l52 -13q65 -16 104.5 -41t57 -63.5t17.5 -96.5q0 -65 -26.5 -110.5t-76 -68.5t-117.5 -23zM260 -68q25 0 37.5 -10.5t12.5 -29.5v-18q0 -35 -17 -66t-40 -54h-54q20 23 32.5 40.5t18.5 40.5q-20 2 -30 12.5
t-10 26.5v18q0 19 12.5 29.5t37.5 10.5z" />
    <glyph glyph-name="scommaaccent" unicode="&#x219;" horiz-adv-x="439" 
d="M219 -12q-64 0 -109.5 26t-77.5 72l53 44q27 -38 59 -58t75 -20q45 0 71.5 22.5t26.5 64.5q0 34 -17 55t-63 29l-39 7q-49 9 -82 26.5t-49.5 47t-16.5 73.5q0 79 46 114.5t119 35.5q39 0 69 -9t54 -27t43 -44l-49 -45q-16 24 -44.5 42.5t-72.5 18.5q-46 0 -68.5 -21
t-22.5 -62q0 -37 20 -55t63 -26l39 -7q79 -14 112 -49.5t33 -94.5q0 -50 -19.5 -86t-58 -55t-94.5 -19zM217 -68q25 0 37.5 -10.5t12.5 -29.5v-18q0 -35 -17 -66t-40 -54h-54q20 23 32.5 40.5t18.5 40.5q-20 2 -30 12.5t-10 26.5v18q0 19 12.5 29.5t37.5 10.5z" />
    <glyph glyph-name="uni021A" unicode="&#x21a;" horiz-adv-x="516" 
d="M495 628h-197v-628h-80v628h-197v70h474v-70zM258 -68q25 0 37.5 -10.5t12.5 -29.5v-18q0 -35 -17 -66t-40 -54h-54q20 23 32.5 40.5t18.5 40.5q-20 2 -30 12.5t-10 26.5v18q0 19 12.5 29.5t37.5 10.5z" />
    <glyph glyph-name="uni021B" unicode="&#x21b;" horiz-adv-x="318" 
d="M273 0h-93q-40 0 -59 19t-19 59v371h-76v67h45q23 0 30.5 12t7.5 34v96h69v-142h100v-67h-100v-382h95v-67zM193 -68q25 0 37.5 -10.5t12.5 -29.5v-18q0 -35 -17 -66t-40 -54h-54q20 23 32.5 40.5t18.5 40.5q-20 2 -30 12.5t-10 26.5v18q0 19 12.5 29.5t37.5 10.5z" />
    <glyph glyph-name="uni0237" unicode="&#x237;" horiz-adv-x="228" 
d="M0 -200v67h76v649h76v-618q0 -51 -23.5 -74.5t-74.5 -23.5h-54z" />
    <glyph glyph-name="uni0259" unicode="&#x259;" horiz-adv-x="495" 
d="M42 277h331v33q0 76 -34.5 113.5t-95.5 37.5q-52 0 -85 -23t-52 -67l-52 38q24 53 70.5 86t118.5 33q61 0 108.5 -27.5t75 -87t27.5 -155.5t-27.5 -155.5t-75 -87t-108.5 -27.5q-60 0 -105.5 27.5t-70.5 87t-25 155.5v19zM123 219v-13q0 -50 13.5 -84.5t40.5 -52
t66 -17.5q41 0 70 17.5t44.5 52t15.5 84.5v13h-250z" />
    <glyph glyph-name="uni02BB" unicode="&#x2bb;" 
d="M270 596q-25 0 -37.5 10.5t-12.5 29.5v18q0 35 17.5 66t39.5 54h54q-20 -22 -32.5 -40t-18.5 -41q20 -1 30 -11.5t10 -27.5v-18q0 -19 -12.5 -29.5t-37.5 -10.5z" />
    <glyph glyph-name="uni02BC" unicode="&#x2bc;" 
d="M369 740l-47 -185h-51l11 185h87z" />
    <glyph glyph-name="circumflex" unicode="&#x2c6;" 
d="M224 765h92l101 -144l-41 -30l-106 118l-106 -118l-41 30z" />
    <glyph glyph-name="caron" unicode="&#x2c7;" 
d="M316 599h-92l-101 144l41 30l106 -118l106 118l41 -30z" />
    <glyph glyph-name="breve" unicode="&#x2d8;" 
d="M270 596q-26 0 -47.5 7.5t-39 23t-31 39t-23.5 56.5l43 21l18 -33q15 -28 33.5 -40t46.5 -12q29 0 47 12t33 40l18 33l43 -21q-10 -33 -23.5 -56.5t-31 -39t-39 -23t-47.5 -7.5z" />
    <glyph glyph-name="dotaccent" unicode="&#x2d9;" 
d="M270 618q-25 0 -37.5 10.5t-12.5 29.5v18q0 19 12.5 29.5t37.5 10.5t37.5 -10.5t12.5 -29.5v-18q0 -19 -12.5 -29.5t-37.5 -10.5z" />
    <glyph glyph-name="ring" unicode="&#x2da;" 
d="M270 576q-34 0 -58.5 15t-38 41t-13.5 59q0 34 13.5 59.5t38 40.5t58.5 15t58.5 -15t38 -40.5t13.5 -59.5q0 -33 -13.5 -59t-38 -41t-58.5 -15zM270 623q25 0 39.5 13t14.5 38v34q0 25 -14.5 38t-39.5 13t-39.5 -13t-14.5 -38v-34q0 -25 14.5 -38t39.5 -13z" />
    <glyph glyph-name="ogonek" unicode="&#x2db;" 
d="M206 -207q-27 0 -48.5 7.5t-34 23t-12.5 38.5q0 42 32 73.5t78 55.5v31h40l9 -22q-35 -25 -56 -45t-30.5 -37.5t-9.5 -37.5q0 -18 10.5 -26t25.5 -8q14 0 25.5 5.5t19.5 16.5l35 -36q-10 -15 -32.5 -27t-51.5 -12z" />
    <glyph glyph-name="tilde" unicode="&#x2dc;" 
d="M337 613q-16 0 -32.5 6t-41.5 20q-23 14 -37 19.5t-25 5.5q-15 0 -27 -7.5t-26 -20.5l-30 38q16 26 37.5 39t47.5 13q17 0 33 -6t41 -20q23 -13 37.5 -19t24.5 -6q15 0 27.5 7.5t25.5 20.5l30 -38q-16 -25 -37.5 -38.5t-47.5 -13.5z" />
    <glyph glyph-name="hungarumlaut" unicode="&#x2dd;" 
d="M300 744l-97 -159l-45 24l77 170zM447 744l-97 -159l-45 24l77 170z" />
    <glyph glyph-name="uni0300" unicode="&#x300;" horiz-adv-x="0" 
d="M-7 585l-97 158l69 36l77 -169z" />
    <glyph glyph-name="uni0301" unicode="&#x301;" horiz-adv-x="0" 
d="M104 743l-97 -158l-49 25l77 169z" />
    <glyph glyph-name="uni0302" unicode="&#x302;" horiz-adv-x="0" 
d="M-46 765h92l101 -144l-41 -30l-106 118l-106 -118l-41 30z" />
    <glyph glyph-name="uni0303" unicode="&#x303;" horiz-adv-x="0" 
d="M67 613q-16 0 -32.5 6t-41.5 20q-23 14 -37 19.5t-25 5.5q-15 0 -27 -7.5t-26 -20.5l-30 38q16 26 37.5 39t47.5 13q17 0 33 -6t41 -20q23 -13 37.5 -19t24.5 -6q15 0 27.5 7.5t25.5 20.5l30 -38q-16 -25 -37.5 -38.5t-47.5 -13.5z" />
    <glyph glyph-name="uni0304" unicode="&#x304;" horiz-adv-x="0" 
d="M-127 639v64h254v-64h-254z" />
    <glyph glyph-name="uni0306" unicode="&#x306;" horiz-adv-x="0" 
d="M0 596q-26 0 -47.5 7.5t-39 23t-31 39t-23.5 56.5l43 21l18 -33q15 -28 33.5 -40t46.5 -12q29 0 47 12t33 40l18 33l43 -21q-10 -33 -23.5 -56.5t-31 -39t-39 -23t-47.5 -7.5z" />
    <glyph glyph-name="uni0307" unicode="&#x307;" horiz-adv-x="0" 
d="M0 618q-25 0 -37.5 10.5t-12.5 29.5v18q0 19 12.5 29.5t37.5 10.5t37.5 -10.5t12.5 -29.5v-18q0 -19 -12.5 -29.5t-37.5 -10.5z" />
    <glyph glyph-name="uni0308" unicode="&#x308;" horiz-adv-x="0" 
d="M-86 620q-25 0 -37.5 10.5t-12.5 29.5v18q0 19 12.5 29.5t37.5 10.5t37.5 -10.5t12.5 -29.5v-18q0 -19 -12.5 -29.5t-37.5 -10.5zM86 620q-25 0 -37.5 10.5t-12.5 29.5v18q0 19 12.5 29.5t37.5 10.5t37.5 -10.5t12.5 -29.5v-18q0 -19 -12.5 -29.5t-37.5 -10.5z" />
    <glyph glyph-name="uni0309" unicode="&#x309;" horiz-adv-x="0" 
d="M-78 703v62h106q31 0 45 -12.5t14 -39.5q0 -21 -8.5 -45.5t-28.5 -50.5l-29 -40l-43 23l50 103h-106z" />
    <glyph glyph-name="uni030A" unicode="&#x30a;" horiz-adv-x="0" 
d="M0 576q-34 0 -58.5 15t-38 41t-13.5 59q0 34 13.5 59.5t38 40.5t58.5 15t58.5 -15t38 -40.5t13.5 -59.5q0 -33 -13.5 -59t-38 -41t-58.5 -15zM0 623q25 0 39.5 13t14.5 38v34q0 25 -14.5 38t-39.5 13t-39.5 -13t-14.5 -38v-34q0 -25 14.5 -38t39.5 -13z" />
    <glyph glyph-name="uni030B" unicode="&#x30b;" horiz-adv-x="0" 
d="M30 744l-97 -159l-45 24l77 170zM177 744l-97 -159l-45 24l77 170z" />
    <glyph glyph-name="uni030C" unicode="&#x30c;" horiz-adv-x="0" 
d="M46 599h-92l-101 144l41 30l106 -118l106 118l41 -30z" />
    <glyph glyph-name="uni0312" unicode="&#x312;" horiz-adv-x="0" 
d="M0 596q-25 0 -37.5 10.5t-12.5 29.5v18q0 35 17.5 66t39.5 54h54q-20 -22 -32.5 -40t-18.5 -41q20 -1 30 -11.5t10 -27.5v-18q0 -19 -12.5 -29.5t-37.5 -10.5z" />
    <glyph glyph-name="uni0315" unicode="&#x315;" horiz-adv-x="0" 
d="M99 740l-47 -185h-51l11 185h87z" />
    <glyph glyph-name="uni031B" unicode="&#x31b;" horiz-adv-x="0" 
d="M72 628v-103q0 -36 -12 -48t-48 -12h-84v51h78v112h66z" />
    <glyph glyph-name="uni0323" unicode="&#x323;" horiz-adv-x="0" 
d="M0 -166q-25 0 -37.5 10.5t-12.5 29.5v18q0 19 12.5 29.5t37.5 10.5t37.5 -10.5t12.5 -29.5v-18q0 -19 -12.5 -29.5t-37.5 -10.5z" />
    <glyph glyph-name="uni0326" unicode="&#x326;" horiz-adv-x="0" 
d="M0 -68q25 0 37.5 -10.5t12.5 -29.5v-18q0 -35 -17 -66t-40 -54h-54q20 23 32.5 40.5t18.5 40.5q-20 2 -30 12.5t-10 26.5v18q0 19 12.5 29.5t37.5 10.5z" />
    <glyph glyph-name="uni0327" unicode="&#x327;" horiz-adv-x="0" 
d="M10 -207q-37 0 -59 14t-33 27l35 39q10 -10 23.5 -19t33.5 -9q21 0 31.5 8t10.5 26t-10.5 26t-31.5 8h-49l18 97h46l-15 -80h8q5 7 13 11.5t23 4.5q28 0 43 -18t15 -52q0 -28 -14 -46.5t-37.5 -27.5t-50.5 -9z" />
    <glyph glyph-name="uni0328" unicode="&#x328;" horiz-adv-x="0" 
d="M-64 -207q-27 0 -48.5 7.5t-34 23t-12.5 38.5q0 42 32 73.5t78 55.5v31h40l9 -22q-35 -25 -56 -45t-30.5 -37.5t-9.5 -37.5q0 -18 10.5 -26t25.5 -8q14 0 25.5 5.5t19.5 16.5l35 -36q-10 -15 -32.5 -27t-51.5 -12z" />
    <glyph glyph-name="uni037E" unicode="&#x37e;" horiz-adv-x="258" 
d="M129 106q29 0 44 -13t15 -38v-16q0 -39 -23.5 -86.5t-62.5 -84.5h-62q27 32 44.5 59.5t24.5 62.5q-19 5 -29 17t-10 32v16q0 25 15 38t44 13zM129 404q-29 0 -44 13t-15 38v16q0 25 15 38t44 13t44 -13t15 -38v-16q0 -25 -15 -38t-44 -13z" />
    <glyph glyph-name="tonos" unicode="&#x384;" 
d="M350 765l-48 -180l-54 10l27 184z" />
    <glyph glyph-name="dieresistonos" unicode="&#x385;" 
d="M378 620q-21 0 -32.5 10.5t-11.5 29.5v18q0 19 11.5 29.5t32.5 10.5t32.5 -10.5t11.5 -29.5v-18q0 -19 -11.5 -29.5t-32.5 -10.5zM165 620q-21 0 -32.5 10.5t-11.5 29.5v18q0 19 11.5 29.5t32.5 10.5t32.5 -10.5t11.5 -29.5v-18q0 -19 -11.5 -29.5t-32.5 -10.5zM328 765
l-48 -180l-50 10l27 184z" />
    <glyph glyph-name="Alphatonos" unicode="&#x386;" horiz-adv-x="579" 
d="M558 0h-82l-62 209h-251l-62 -209h-80l218 698h100zM396 275l-81 265l-22 87h-10l-22 -87l-79 -265h214zM131 765l-48 -180l-54 10l27 184z" />
    <glyph glyph-name="anoteleia" unicode="&#x387;" horiz-adv-x="258" 
d="M129 404q-29 0 -44 13t-15 38v16q0 25 15 38t44 13t44 -13t15 -38v-16q0 -25 -15 -38t-44 -13z" />
    <glyph glyph-name="Epsilontonos" unicode="&#x388;" horiz-adv-x="556" 
d="M499 0h-386v698h386v-70h-306v-240h287v-70h-287v-248h306v-70zM82 765l-48 -180l-54 10l27 184z" />
    <glyph glyph-name="Etatonos" unicode="&#x389;" horiz-adv-x="667" 
d="M504 0v318h-311v-318h-80v698h80v-310h311v310h80v-698h-80zM82 765l-48 -180l-54 10l27 184z" />
    <glyph glyph-name="Iotatonos" unicode="&#x38a;" horiz-adv-x="422" 
d="M369 0h-256v66h88v566h-88v66h256v-66h-88v-566h88v-66zM82 765l-48 -180l-54 10l27 184z" />
    <glyph glyph-name="Omicrontonos" unicode="&#x38c;" horiz-adv-x="647" 
d="M328 -12q-84 0 -144 38.5t-91.5 118.5t-31.5 204q0 125 31.5 204.5t91.5 118t144 38.5q85 0 144.5 -38.5t91 -118t31.5 -204.5q0 -124 -31.5 -204t-91 -118.5t-144.5 -38.5zM328 59q58 0 98 26t61.5 74t21.5 112v156q0 65 -21.5 112.5t-61.5 73.5t-98 26q-57 0 -97.5 -26
t-62 -73.5t-21.5 -112.5v-156q0 -64 21.5 -112t62 -74t97.5 -26zM82 765l-48 -180l-54 10l27 184z" />
    <glyph glyph-name="Upsilontonos" unicode="&#x38e;" horiz-adv-x="622" 
d="M395 0h-80v276l-216 422h91l161 -332h10l161 332h89l-216 -422v-276zM82 765l-48 -180l-54 10l27 184z" />
    <glyph glyph-name="Omegatonos" unicode="&#x38f;" horiz-adv-x="651" 
d="M82 765l-48 -180l-54 10l27 184zM58 0v66h158v9q-28 12 -55.5 32.5t-50 55.5t-35.5 89t-13 132q0 69 16 128.5t48.5 103.5t83 69t119.5 25t119.5 -25t83 -69t48.5 -103.5t16 -128.5q0 -78 -13 -132t-35 -89t-49.5 -55.5t-55.5 -32.5v-9h157v-66h-209v101q21 9 42 25.5
t39 41t28.5 57.5t10.5 75v160q0 43 -21.5 84.5t-62 68.5t-98.5 27q-57 0 -98 -27t-62.5 -68.5t-21.5 -84.5v-160q0 -42 10.5 -75t28.5 -57.5t39.5 -41t42.5 -25.5v-101h-210z" />
    <glyph glyph-name="iotadieresistonos" unicode="&#x390;" horiz-adv-x="269" 
d="M247 67v-67h-93q-40 0 -59 19t-19 59v438h76v-449h95zM231 620q-21 0 -32.5 10.5t-11.5 29.5v18q0 19 11.5 29.5t32.5 10.5t32.5 -10.5t11.5 -29.5v-18q0 -19 -11.5 -29.5t-32.5 -10.5zM18 620q-21 0 -32.5 10.5t-11.5 29.5v18q0 19 11.5 29.5t32.5 10.5t32.5 -10.5
t11.5 -29.5v-18q0 -19 -11.5 -29.5t-32.5 -10.5zM181 765l-48 -180l-50 10l27 184z" />
    <glyph glyph-name="Alpha" unicode="&#x391;" horiz-adv-x="579" 
d="M558 0h-82l-62 209h-251l-62 -209h-80l218 698h100zM396 275l-81 265l-22 87h-10l-22 -87l-79 -265h214z" />
    <glyph glyph-name="Beta" unicode="&#x392;" horiz-adv-x="589" 
d="M83 0v698h264q79 0 121.5 -44.5t42.5 -135.5q0 -55 -16.5 -86.5t-41.5 -45t-49 -15.5v-10q18 0 40.5 -8t42.5 -26t33 -48.5t13 -76.5q0 -63 -20 -108.5t-56 -69.5t-83 -24h-291zM163 326v-256h187q32 0 53.5 11t32.5 34.5t11 59.5v46q0 36 -11 59.5t-32.5 34.5t-53.5 11
h-187zM163 628v-232h174q29 0 48.5 10t30 30.5t10.5 52.5v46q0 32 -10.5 52.5t-30 30.5t-48.5 10h-174z" />
    <glyph glyph-name="Gamma" unicode="&#x393;" horiz-adv-x="461" 
d="M83 0v698h353v-70h-273v-628h-80z" />
    <glyph glyph-name="uni0394" unicode="&#x394;" horiz-adv-x="577" 
d="M44 0v68l200 630h92l200 -630v-68h-492zM452 70l-114 381l-44 177h-10l-44 -177l-114 -381h326z" />
    <glyph glyph-name="Epsilon" unicode="&#x395;" horiz-adv-x="526" 
d="M469 0h-386v698h386v-70h-306v-240h287v-70h-287v-248h306v-70z" />
    <glyph glyph-name="Zeta" unicode="&#x396;" horiz-adv-x="524" 
d="M491 70v-70h-458v72l359 556h-343v70h430v-72l-359 -556h371z" />
    <glyph glyph-name="Eta" unicode="&#x397;" horiz-adv-x="637" 
d="M474 0v318h-311v-318h-80v698h80v-310h311v310h80v-698h-80z" />
    <glyph glyph-name="Theta" unicode="&#x398;" horiz-adv-x="638" 
d="M319 -12q-84 0 -144 38.5t-91.5 118.5t-31.5 204q0 125 31.5 204.5t91.5 118t144 38.5q85 0 144.5 -38.5t91 -118t31.5 -204.5q0 -124 -31.5 -204t-91 -118.5t-144.5 -38.5zM319 59q58 0 98 26t61.5 74t21.5 112v156q0 65 -21.5 112.5t-61.5 73.5t-98 26q-57 0 -97.5 -26
t-62 -73.5t-21.5 -112.5v-156q0 -64 21.5 -112t62 -74t97.5 -26zM450 318h-262v70h262v-70z" />
    <glyph glyph-name="Iota" unicode="&#x399;" horiz-adv-x="362" 
d="M309 0h-256v66h88v566h-88v66h256v-66h-88v-566h88v-66z" />
    <glyph glyph-name="Kappa" unicode="&#x39a;" horiz-adv-x="574" 
d="M457 0l-203 346l-91 -114v-232h-80v698h80v-233l-6 -144h10l103 144l174 233h92l-230 -299l245 -399h-94z" />
    <glyph glyph-name="Lambda" unicode="&#x39b;" horiz-adv-x="554" 
d="M227 698h100l206 -698h-82l-128 451l-42 176h-10l-42 -176l-128 -451h-80z" />
    <glyph glyph-name="Mu" unicode="&#x39c;" horiz-adv-x="730" 
d="M82 0v698h106l126 -271l47 -129h8l47 129l126 271h106v-698h-78v479l7 120h-10l-52 -120l-150 -308l-150 308l-52 118h-10l7 -118v-479h-78z" />
    <glyph glyph-name="Nu" unicode="&#x39d;" horiz-adv-x="637" 
d="M457 0l-232 453l-61 144h-10l7 -144v-453h-78v698h98l232 -453l61 -144h10l-7 144v453h78v-698h-98z" />
    <glyph glyph-name="Xi" unicode="&#x39e;" horiz-adv-x="527" 
d="M57 628v70h413v-70h-413zM94 318v70h339v-70h-339zM57 0v70h413v-70h-413z" />
    <glyph glyph-name="Omicron" unicode="&#x39f;" horiz-adv-x="638" 
d="M319 -12q-84 0 -144 38.5t-91.5 118.5t-31.5 204q0 125 31.5 204.5t91.5 118t144 38.5q85 0 144.5 -38.5t91 -118t31.5 -204.5q0 -124 -31.5 -204t-91 -118.5t-144.5 -38.5zM319 59q58 0 98 26t61.5 74t21.5 112v156q0 65 -21.5 112.5t-61.5 73.5t-98 26q-57 0 -97.5 -26
t-62 -73.5t-21.5 -112.5v-156q0 -64 21.5 -112t62 -74t97.5 -26z" />
    <glyph glyph-name="Pi" unicode="&#x3a0;" horiz-adv-x="625" 
d="M83 0v698h459v-698h-80v628h-299v-628h-80z" />
    <glyph glyph-name="Rho" unicode="&#x3a1;" horiz-adv-x="548" 
d="M163 0h-80v698h257q57 0 95.5 -22t58 -66t19.5 -111t-19.5 -111t-58 -66t-95.5 -22h-177v-300zM163 628v-258h175q30 0 49.5 10.5t29.5 32t10 53.5v66q0 33 -10 54t-29.5 31.5t-49.5 10.5h-175z" />
    <glyph glyph-name="Sigma" unicode="&#x3a3;" horiz-adv-x="514" 
d="M461 0h-425v72l221 280l-214 274v72h418v-70h-324l215 -275l-223 -283h332v-70z" />
    <glyph glyph-name="Tau" unicode="&#x3a4;" horiz-adv-x="516" 
d="M495 628h-197v-628h-80v628h-197v70h474v-70z" />
    <glyph glyph-name="Upsilon" unicode="&#x3a5;" horiz-adv-x="534" 
d="M307 0h-80v276l-216 422h91l161 -332h10l161 332h89l-216 -422v-276z" />
    <glyph glyph-name="Phi" unicode="&#x3a6;" horiz-adv-x="772" 
d="M346 -29v60h-11q-93 0 -157 40.5t-97 113t-33 169.5t33 169.5t97 113t157 40.5h11v48h80v-48h11q94 0 157.5 -40.5t96.5 -113t33 -169.5t-33 -169.5t-96.5 -113t-157.5 -40.5h-11v-60h-80zM348 98v512h-13q-63 0 -108 -28t-69 -76t-24 -108v-88q0 -60 24 -108t69 -76
t108 -28h13zM424 98h13q63 0 108 28t69 76t24 108v88q0 60 -24 108t-69 76t-108 28h-13v-512z" />
    <glyph glyph-name="Chi" unicode="&#x3a7;" horiz-adv-x="555" 
d="M21 0l206 355l-199 343h93l152 -274h10l157 274h88l-201 -340l206 -358h-93l-160 288h-10l-161 -288h-88z" />
    <glyph glyph-name="Psi" unicode="&#x3a8;" horiz-adv-x="708" 
d="M314 0v203q-76 0 -133.5 28t-90 87t-32.5 151v229h80v-229q0 -74 23 -117.5t62.5 -62.5t90.5 -19v428h80v-428q51 0 91 19t62.5 62.5t22.5 117.5v229h80v-229q0 -92 -32.5 -151t-90 -87t-133.5 -28v-203h-80z" />
    <glyph glyph-name="uni03A9" unicode="&#x3a9;" horiz-adv-x="644" 
d="M51 0v66h158v9q-28 12 -55.5 32.5t-50 55.5t-35.5 89t-13 132q0 69 16 128.5t48.5 103.5t83 69t119.5 25t119.5 -25t83 -69t48.5 -103.5t16 -128.5q0 -78 -13 -132t-35 -89t-49.5 -55.5t-55.5 -32.5v-9h157v-66h-209v101q21 9 42 25.5t39 41t28.5 57.5t10.5 75v160
q0 43 -21.5 84.5t-62 68.5t-98.5 27q-57 0 -98 -27t-62.5 -68.5t-21.5 -84.5v-160q0 -42 10.5 -75t28.5 -57.5t39.5 -41t42.5 -25.5v-101h-210z" />
    <glyph glyph-name="Iotadieresis" unicode="&#x3aa;" horiz-adv-x="362" 
d="M309 0h-256v66h88v566h-88v66h256v-66h-88v-566h88v-66zM95 792q-25 0 -37.5 10.5t-12.5 29.5v18q0 19 12.5 29.5t37.5 10.5t37.5 -10.5t12.5 -29.5v-18q0 -19 -12.5 -29.5t-37.5 -10.5zM267 792q-25 0 -37.5 10.5t-12.5 29.5v18q0 19 12.5 29.5t37.5 10.5t37.5 -10.5
t12.5 -29.5v-18q0 -19 -12.5 -29.5t-37.5 -10.5z" />
    <glyph glyph-name="Upsilondieresis" unicode="&#x3ab;" horiz-adv-x="534" 
d="M307 0h-80v276l-216 422h91l161 -332h10l161 332h89l-216 -422v-276zM183 792q-25 0 -37.5 10.5t-12.5 29.5v18q0 19 12.5 29.5t37.5 10.5t37.5 -10.5t12.5 -29.5v-18q0 -19 -12.5 -29.5t-37.5 -10.5zM355 792q-25 0 -37.5 10.5t-12.5 29.5v18q0 19 12.5 29.5t37.5 10.5
t37.5 -10.5t12.5 -29.5v-18q0 -19 -12.5 -29.5t-37.5 -10.5z" />
    <glyph glyph-name="alphatonos" unicode="&#x3ac;" horiz-adv-x="579" 
d="M547 67v-67h-45q-39 0 -57 17t-23 58l-12 112h-9q-11 -67 -33 -111t-56 -66t-82 -22q-54 0 -96 28t-66 87.5t-24 154.5t24 154.5t66 87.5t96 28q47 0 82 -21.5t57.5 -65.5t32.5 -112h9l24 109l24 78h83l-99 -256l57 -193h47zM231 56q26 0 45 10t35 36t31 72l28 84l-27 84
q-15 46 -30.5 71.5t-35 36t-46.5 10.5q-46 0 -75.5 -38t-29.5 -113v-102q0 -75 29.5 -113t75.5 -38zM312 765l-48 -180l-54 10l27 184z" />
    <glyph glyph-name="epsilontonos" unicode="&#x3ad;" horiz-adv-x="466" 
d="M390 138l53 -40q-29 -55 -79 -82.5t-124 -27.5q-94 0 -140.5 41t-46.5 108q0 53 29.5 84.5t84.5 40.5v10q-49 5 -76.5 33.5t-27.5 74.5q0 64 49 106t136 42q44 0 80.5 -12t64.5 -34t45 -53l-54 -44q-12 24 -32 40.5t-46 25.5t-58 9q-55 0 -79 -22.5t-24 -50.5v-12
q0 -32 22.5 -54.5t62.5 -22.5h109v-64h-110q-46 0 -70 -21t-24 -61v-12q0 -40 28 -62t83 -22q54 0 89.5 21.5t54.5 60.5zM318 765l-48 -180l-54 10l27 184z" />
    <glyph glyph-name="etatonos" unicode="&#x3ae;" horiz-adv-x="517" 
d="M156 0h-76v449h-52v67h50q41 0 59.5 -18.5t18.5 -59.5v-12l-10 6h20q15 47 46.5 71.5t85.5 24.5q69 0 108.5 -47t39.5 -145v-536h-76v531q0 62 -25.5 95t-78.5 33q-30 0 -55 -13t-40 -36.5t-15 -57.5v-352zM300 765l-48 -180l-54 10l27 184z" />
    <glyph glyph-name="iotatonos" unicode="&#x3af;" horiz-adv-x="269" 
d="M247 67v-67h-93q-40 0 -59 19t-19 59v438h76v-449h95zM191 765l-48 -180l-54 10l27 184z" />
    <glyph glyph-name="upsilondieresistonos" unicode="&#x3b0;" horiz-adv-x="516" 
d="M148 516v-298q0 -63 11.5 -98t36 -49.5t62.5 -14.5t62.5 14.5t36 49.5t11.5 98v298h77v-287q0 -86 -21.5 -139t-63 -77.5t-102.5 -24.5t-102.5 24.5t-63 77.5t-21.5 139v287h77zM368 620q-21 0 -32.5 10.5t-11.5 29.5v18q0 19 11.5 29.5t32.5 10.5t32.5 -10.5t11.5 -29.5
v-18q0 -19 -11.5 -29.5t-32.5 -10.5zM155 620q-21 0 -32.5 10.5t-11.5 29.5v18q0 19 11.5 29.5t32.5 10.5t32.5 -10.5t11.5 -29.5v-18q0 -19 -11.5 -29.5t-32.5 -10.5zM318 765l-48 -180l-50 10l27 184z" />
    <glyph glyph-name="alpha" unicode="&#x3b1;" horiz-adv-x="579" 
d="M547 67v-67h-45q-39 0 -57 17t-23 58l-12 112h-9q-11 -67 -33 -111t-56 -66t-82 -22q-54 0 -96 28t-66 87.5t-24 154.5t24 154.5t66 87.5t96 28q47 0 82 -21.5t57.5 -65.5t32.5 -112h9l24 109l24 78h83l-99 -256l57 -193h47zM231 56q26 0 45 10t35 36t31 72l28 84l-27 84
q-15 46 -30.5 71.5t-35 36t-46.5 10.5q-46 0 -75.5 -38t-29.5 -113v-102q0 -75 29.5 -113t75.5 -38z" />
    <glyph glyph-name="beta" unicode="&#x3b2;" horiz-adv-x="528" 
d="M76 -200v737q0 102 48.5 158.5t142.5 56.5q54 0 95 -21t64 -61.5t22 -97.5q0 -49 -17.5 -83.5t-45 -54t-57.5 -24.5v-10q39 -4 74 -24.5t56.5 -61t21.5 -104.5t-23 -114t-66 -79t-103 -29q-43 0 -74.5 18t-51.5 55h-10v-261h-76zM223 369v67h40q33 0 56 13.5t35.5 38
t12.5 57.5v37q0 31 -11.5 54t-34.5 35.5t-58 12.5q-56 0 -83.5 -33.5t-27.5 -107.5v-415q0 -24 15 -40t41.5 -24t59.5 -8q43 0 72 15.5t43.5 46t14.5 74.5v41q0 64 -36 100t-95 36h-44z" />
    <glyph glyph-name="gamma" unicode="&#x3b3;" horiz-adv-x="455" 
d="M192 -200v200l-137 449h-47v67h41q36 0 52.5 -11.5t24.5 -41.5l59 -206l41 -172h10l49 172l81 259h74l-172 -516v-200h-76z" />
    <glyph glyph-name="delta" unicode="&#x3b4;" horiz-adv-x="504" 
d="M288 492q-46 -4 -83.5 -31t-59.5 -74t-22 -111v-68q0 -51 15 -85t44 -50.5t70 -16.5t70 16.5t44 50.5t15 85v38q0 38 -6 71.5t-20 64.5t-37.5 61.5t-59.5 63.5l-157 145v88h318v-67h-179l-66 8v-10l132 -116q44 -39 74.5 -74.5t48.5 -71.5t26 -73t8 -79
q0 -95 -27.5 -154.5t-75 -87t-108.5 -27.5q-60 0 -108 27t-75.5 85t-27.5 150q0 85 28 144t73.5 90.5t95.5 31.5v21z" />
    <glyph glyph-name="epsilon" unicode="&#x3b5;" horiz-adv-x="466" 
d="M390 138l53 -40q-29 -55 -79 -82.5t-124 -27.5q-94 0 -140.5 41t-46.5 108q0 53 29.5 84.5t84.5 40.5v10q-49 5 -76.5 33.5t-27.5 74.5q0 64 49 106t136 42q44 0 80.5 -12t64.5 -34t45 -53l-54 -44q-12 24 -32 40.5t-46 25.5t-58 9q-55 0 -79 -22.5t-24 -50.5v-12
q0 -32 22.5 -54.5t62.5 -22.5h109v-64h-110q-46 0 -70 -21t-24 -61v-12q0 -40 28 -62t83 -22q54 0 89.5 21.5t54.5 60.5z" />
    <glyph glyph-name="zeta" unicode="&#x3b6;" horiz-adv-x="385" 
d="M57 673v67h318v-58l-158 -224q-55 -79 -74.5 -131.5t-19.5 -93.5v-26q0 -32 12 -57t37 -43.5t63 -29.5l65 -19q33 -10 47 -26t14 -40q0 -10 -1.5 -20.5t-4.5 -22.5l-29 -108l-73 19l34 127l-65 19q-62 18 -102 47.5t-59.5 71t-19.5 95.5q0 36 9 72t33 81.5t68 108.5
l135 191v10l-60 -10h-169z" />
    <glyph glyph-name="eta" unicode="&#x3b7;" horiz-adv-x="517" 
d="M156 0h-76v449h-52v67h50q41 0 59.5 -18.5t18.5 -59.5v-12l-10 6h20q15 47 46.5 71.5t85.5 24.5q69 0 108.5 -47t39.5 -145v-536h-76v531q0 62 -25.5 95t-78.5 33q-30 0 -55 -13t-40 -36.5t-15 -57.5v-352z" />
    <glyph glyph-name="theta" unicode="&#x3b8;" horiz-adv-x="512" 
d="M134 483v-79h244v79q0 74 -13 118.5t-40 64.5t-69 20t-69 -20t-40 -64.5t-13 -118.5zM256 752q47 0 85 -16.5t64.5 -57.5t40.5 -116t14 -192t-14 -192t-40.5 -116t-64.5 -57.5t-85 -16.5t-85 16.5t-64.5 57.5t-40.5 116t-14 192t14 192t40.5 116t64.5 57.5t85 16.5z
M256 54q42 0 69 20t40 64.5t13 118.5v80h-244v-80q0 -74 13 -118.5t40 -64.5t69 -20z" />
    <glyph glyph-name="iota" unicode="&#x3b9;" horiz-adv-x="269" 
d="M247 67v-67h-93q-40 0 -59 19t-19 59v438h76v-449h95z" />
    <glyph glyph-name="kappa" unicode="&#x3ba;" horiz-adv-x="478" 
d="M369 0l-155 249l-62 -78v-171h-76v516h76v-258h10l44 62l129 164q14 19 27.5 25.5t35.5 6.5h44v-67h-52l-122 -155l192 -294h-91z" />
    <glyph glyph-name="lambda" unicode="&#x3bb;" horiz-adv-x="457" 
d="M191 516l-45 157h-92v67h86q35 0 51.5 -11t25.5 -43l177 -619h58v-67h-50q-36 0 -52.5 11.5t-24.5 41.5l-59 207l-38 185h-10l-52 -185l-89 -260h-74z" />
    <glyph glyph-name="uni03BC" unicode="&#x3bc;" horiz-adv-x="522" 
d="M152 -200h-76v716h76v-331q0 -61 26.5 -94.5t78.5 -33.5q30 0 55 13t39.5 37.5t14.5 58.5v350h76v-449h52v-67h-50q-40 0 -59 19t-19 59v12l10 -6h-20q-12 -46 -40 -71t-69 -25q-42 0 -69.5 24t-39.5 72h-10l24 -149v-135z" />
    <glyph glyph-name="nu" unicode="&#x3bd;" horiz-adv-x="463" 
d="M279 0h-90l-134 449h-47v67h41q36 0 52.5 -11.5t24.5 -41.5l59 -206l45 -186h10l53 186l81 259h74z" />
    <glyph glyph-name="xi" unicode="&#x3be;" horiz-adv-x="411" 
d="M386 673h-109q-35 0 -61.5 -15t-41 -42.5t-14.5 -65.5v-26q0 -49 27.5 -77t76.5 -28h71v-67h-75q-45 0 -74 -15t-42.5 -43.5t-13.5 -67.5v-26q0 -28 12.5 -52t37.5 -41.5t63 -28.5l69 -20q33 -10 47 -26t14 -40q0 -10 -1.5 -20.5t-4.5 -22.5l-29 -108l-73 19l34 127
l-69 20q-63 18 -103 47t-59.5 70t-19.5 93q0 65 38 111t102 53v10q-57 15 -83.5 53t-26.5 93q0 47 24 80t66 46v10h-128v67h346v-67z" />
    <glyph glyph-name="omicron" unicode="&#x3bf;" horiz-adv-x="504" 
d="M252 -12q-60 0 -108 27.5t-75.5 87t-27.5 155.5t27.5 155.5t75.5 87t108 27.5q61 0 108.5 -27.5t75 -87t27.5 -155.5t-27.5 -155.5t-75 -87t-108.5 -27.5zM252 56q62 0 95.5 37t33.5 113v104q0 76 -33.5 113t-95.5 37q-61 0 -95 -37t-34 -113v-104q0 -76 34 -113t95 -37z
" />
    <glyph glyph-name="pi" unicode="&#x3c0;" horiz-adv-x="563" 
d="M450 449v-382h78v-67h-76q-40 0 -59 19t-19 59v371h-194v-449h-76v449h-78v67h502v-67h-78z" />
    <glyph glyph-name="rho" unicode="&#x3c1;" horiz-adv-x="499" 
d="M52 -200v511q0 63 23 112t68.5 77t111.5 28q102 0 151 -68.5t49 -197.5q0 -130 -48 -202t-143 -72q-43 0 -75.5 19t-50.5 53h-10v-260h-76zM245 56q67 0 97.5 38.5t30.5 111.5v104q0 75 -31.5 112.5t-90.5 37.5t-91 -37.5t-32 -112.5v-182q0 -24 15.5 -40t42 -24t59.5 -8
z" />
    <glyph glyph-name="sigma1" unicode="&#x3c2;" horiz-adv-x="436" 
d="M272 -140l34 127l-105 32q-52 16 -87.5 47t-54 79t-18.5 116q0 97 24 155.5t68 85t103 26.5q65 0 107.5 -31.5t64.5 -87.5l-63 -32q-13 40 -40 61.5t-71 21.5q-35 0 -60 -16t-38 -49.5t-13 -84.5v-75q0 -61 26.5 -97t87.5 -55l82 -25q33 -10 47 -26t14 -40
q0 -10 -1.5 -20.5t-4.5 -22.5l-29 -108z" />
    <glyph glyph-name="sigma" unicode="&#x3c3;" horiz-adv-x="525" 
d="M503 449h-122v-10q39 -25 60.5 -67.5t21.5 -119.5q0 -93 -27.5 -151t-75 -85.5t-108.5 -27.5q-60 0 -108 27.5t-75.5 85.5t-27.5 151t26.5 151t76 85.5t118.5 27.5h241v-67zM324 449h-62q-69 0 -104 -37.5t-35 -113.5v-92q0 -76 34 -113t95 -37q62 0 95.5 37t33.5 113v92
q0 48 -13.5 84.5t-43.5 66.5z" />
    <glyph glyph-name="tau" unicode="&#x3c4;" horiz-adv-x="432" 
d="M346 0h-101q-40 0 -59 19t-19 59v371h-149v67h384v-67h-159v-382h103v-67z" />
    <glyph glyph-name="upsilon" unicode="&#x3c5;" horiz-adv-x="516" 
d="M148 516v-298q0 -63 11.5 -98t36 -49.5t62.5 -14.5t62.5 14.5t36 49.5t11.5 98v298h77v-287q0 -86 -21.5 -139t-63 -77.5t-102.5 -24.5t-102.5 24.5t-63 77.5t-21.5 139v287h77z" />
    <glyph glyph-name="phi" unicode="&#x3c6;" horiz-adv-x="647" 
d="M277 -200v188q-73 0 -125 31.5t-79.5 90.5t-27.5 140q0 108 34.5 176t100.5 102l42 -55q-49 -25 -72 -73t-23 -110v-72q0 -54 18 -90.5t51.5 -55t80.5 -18.5v229q0 131 41 188t118 57q55 0 91.5 -25t55 -79.5t18.5 -144.5q0 -97 -27.5 -162t-82.5 -97t-138 -32v-188h-76z
M353 312v-258q80 0 123 40t43 124v94q0 84 -21 116t-62 32q-40 0 -61.5 -32t-21.5 -116z" />
    <glyph glyph-name="chi" unicode="&#x3c7;" horiz-adv-x="448" 
d="M10 516h54q36 0 51.5 -11t27.5 -44l80 -218h10l115 273h83l-160 -344l113 -305h62v-67h-54q-36 0 -51.5 11t-27.5 44l-85 240h-10l-120 -295h-84l166 367l-108 282h-62v67z" />
    <glyph glyph-name="psi" unicode="&#x3c8;" horiz-adv-x="656" 
d="M290 -200v188q-71 0 -120 27t-74 83t-25 143v275h77v-298q0 -60 15 -96t46.5 -52t80.5 -16v656h76v-656q49 0 80.5 16t46.5 52t15 96v298h77v-275q0 -87 -25 -143t-74 -83t-120 -27v-188h-76z" />
    <glyph glyph-name="omega" unicode="&#x3c9;" horiz-adv-x="664" 
d="M370 349v-153q0 -53 9.5 -83.5t28 -43.5t45.5 -13q41 0 62 30.5t21 109.5v94q0 59 -24 109t-71 74l42 55q45 -23 75 -60t45 -92.5t15 -133.5q0 -87 -20 -143.5t-54.5 -83.5t-80.5 -27q-55 0 -86.5 34t-39.5 94h-10q-7 -60 -39 -94t-87 -34q-45 0 -80 27t-55 83.5
t-20 143.5q0 76 15.5 131.5t45.5 93.5t74 61l42 -55q-49 -25 -72 -73t-23 -110v-94q0 -79 21.5 -109.5t61.5 -30.5q27 0 45.5 13t28 43.5t9.5 83.5v153h76z" />
    <glyph glyph-name="iotadieresis" unicode="&#x3ca;" horiz-adv-x="269" 
d="M247 67v-67h-93q-40 0 -59 19t-19 59v438h76v-449h95zM35 620q-25 0 -37.5 10.5t-12.5 29.5v18q0 19 12.5 29.5t37.5 10.5t37.5 -10.5t12.5 -29.5v-18q0 -19 -12.5 -29.5t-37.5 -10.5zM207 620q-25 0 -37.5 10.5t-12.5 29.5v18q0 19 12.5 29.5t37.5 10.5t37.5 -10.5
t12.5 -29.5v-18q0 -19 -12.5 -29.5t-37.5 -10.5z" />
    <glyph glyph-name="upsilondieresis" unicode="&#x3cb;" horiz-adv-x="516" 
d="M148 516v-298q0 -63 11.5 -98t36 -49.5t62.5 -14.5t62.5 14.5t36 49.5t11.5 98v298h77v-287q0 -86 -21.5 -139t-63 -77.5t-102.5 -24.5t-102.5 24.5t-63 77.5t-21.5 139v287h77zM172 620q-25 0 -37.5 10.5t-12.5 29.5v18q0 19 12.5 29.5t37.5 10.5t37.5 -10.5t12.5 -29.5
v-18q0 -19 -12.5 -29.5t-37.5 -10.5zM344 620q-25 0 -37.5 10.5t-12.5 29.5v18q0 19 12.5 29.5t37.5 10.5t37.5 -10.5t12.5 -29.5v-18q0 -19 -12.5 -29.5t-37.5 -10.5z" />
    <glyph glyph-name="omicrontonos" unicode="&#x3cc;" horiz-adv-x="504" 
d="M252 -12q-60 0 -108 27.5t-75.5 87t-27.5 155.5t27.5 155.5t75.5 87t108 27.5q61 0 108.5 -27.5t75 -87t27.5 -155.5t-27.5 -155.5t-75 -87t-108.5 -27.5zM252 56q62 0 95.5 37t33.5 113v104q0 76 -33.5 113t-95.5 37q-61 0 -95 -37t-34 -113v-104q0 -76 34 -113t95 -37z
M322 765l-48 -180l-54 10l27 184z" />
    <glyph glyph-name="upsilontonos" unicode="&#x3cd;" horiz-adv-x="516" 
d="M148 516v-298q0 -63 11.5 -98t36 -49.5t62.5 -14.5t62.5 14.5t36 49.5t11.5 98v298h77v-287q0 -86 -21.5 -139t-63 -77.5t-102.5 -24.5t-102.5 24.5t-63 77.5t-21.5 139v287h77zM328 765l-48 -180l-54 10l27 184z" />
    <glyph glyph-name="omegatonos" unicode="&#x3ce;" horiz-adv-x="664" 
d="M370 349v-153q0 -53 9.5 -83.5t28 -43.5t45.5 -13q41 0 62 30.5t21 109.5v94q0 59 -24 109t-71 74l42 55q45 -23 75 -60t45 -92.5t15 -133.5q0 -87 -20 -143.5t-54.5 -83.5t-80.5 -27q-55 0 -86.5 34t-39.5 94h-10q-7 -60 -39 -94t-87 -34q-45 0 -80 27t-55 83.5
t-20 143.5q0 76 15.5 131.5t45.5 93.5t74 61l42 -55q-49 -25 -72 -73t-23 -110v-94q0 -79 21.5 -109.5t61.5 -30.5q27 0 45.5 13t28 43.5t9.5 83.5v153h76zM402 765l-48 -180l-54 10l27 184z" />
    <glyph glyph-name="uni0400" unicode="&#x400;" horiz-adv-x="526" 
d="M469 0h-386v698h386v-70h-306v-240h287v-70h-287v-248h306v-70zM267 755l-97 158l69 36l77 -169z" />
    <glyph glyph-name="uni0401" unicode="&#x401;" horiz-adv-x="526" 
d="M469 0h-386v698h386v-70h-306v-240h287v-70h-287v-248h306v-70zM188 792q-25 0 -37.5 10.5t-12.5 29.5v18q0 19 12.5 29.5t37.5 10.5t37.5 -10.5t12.5 -29.5v-18q0 -19 -12.5 -29.5t-37.5 -10.5zM360 792q-25 0 -37.5 10.5t-12.5 29.5v18q0 19 12.5 29.5t37.5 10.5
t37.5 -10.5t12.5 -29.5v-18q0 -19 -12.5 -29.5t-37.5 -10.5z" />
    <glyph glyph-name="uni0402" unicode="&#x402;" horiz-adv-x="707" 
d="M452 -164v70h77q23 20 34.5 55.5t11.5 99.5v149q0 81 -36.5 117.5t-108.5 36.5q-37 0 -70 -6t-62 -18v-340h-80v628h-197v70h474v-70h-197v-218h10q29 12 61.5 18t66.5 6q110 0 164.5 -55.5t54.5 -168.5v-149q0 -80 -20 -129.5t-56.5 -72.5t-84.5 -23h-42z" />
    <glyph glyph-name="uni0403" unicode="&#x403;" horiz-adv-x="461" 
d="M83 0v698h353v-70h-273v-628h-80zM363 913l-97 -158l-49 25l77 169z" />
    <glyph glyph-name="uni0404" unicode="&#x404;" horiz-adv-x="571" 
d="M310 -12q-81 0 -139 38.5t-88.5 118.5t-30.5 204q0 125 30.5 204.5t88.5 118t139 38.5q59 0 102 -16.5t73 -49t50 -82.5l-64 -39q-19 56 -56 86t-105 30q-55 0 -93.5 -26t-58.5 -73.5t-20 -112.5v-58l-40 19h300v-70h-300l40 19v-66q0 -97 44.5 -154.5t127.5 -57.5
q71 0 109 31.5t57 91.5l64 -40q-30 -75 -85.5 -114.5t-144.5 -39.5z" />
    <glyph glyph-name="uni0405" unicode="&#x405;" horiz-adv-x="525" 
d="M261 -12q-75 0 -131 32t-93 87l58 48q32 -46 72 -72t94 -26q70 0 106 33.5t36 99.5q0 36 -11 60t-36.5 40t-68.5 26l-52 13q-61 15 -100.5 39.5t-59 62t-19.5 91.5q0 62 26.5 104t74 63t111.5 21q73 0 122.5 -27t86.5 -85l-59 -42q-27 42 -62 63.5t-91 21.5
q-64 0 -97.5 -28t-33.5 -91q0 -33 12 -56t38 -37.5t66 -24.5l52 -13q65 -16 104.5 -41t57 -63.5t17.5 -96.5q0 -65 -26.5 -110.5t-76 -68.5t-117.5 -23z" />
    <glyph glyph-name="uni0406" unicode="&#x406;" horiz-adv-x="362" 
d="M309 0h-256v66h88v566h-88v66h256v-66h-88v-566h88v-66z" />
    <glyph glyph-name="uni0407" unicode="&#x407;" horiz-adv-x="362" 
d="M309 0h-256v66h88v566h-88v66h256v-66h-88v-566h88v-66zM95 792q-25 0 -37.5 10.5t-12.5 29.5v18q0 19 12.5 29.5t37.5 10.5t37.5 -10.5t12.5 -29.5v-18q0 -19 -12.5 -29.5t-37.5 -10.5zM267 792q-25 0 -37.5 10.5t-12.5 29.5v18q0 19 12.5 29.5t37.5 10.5t37.5 -10.5
t12.5 -29.5v-18q0 -19 -12.5 -29.5t-37.5 -10.5z" />
    <glyph glyph-name="uni0408" unicode="&#x408;" horiz-adv-x="462" 
d="M90 698h294v-538q0 -53 -22.5 -91.5t-63.5 -59.5t-95 -21q-79 0 -123 42.5t-57 111.5l72 18q9 -44 33 -72.5t75 -28.5q48 0 74.5 29t26.5 87v453h-214v70z" />
    <glyph glyph-name="uni0409" unicode="&#x409;" horiz-adv-x="913" 
d="M10 0v70h64q19 19 33 47.5t23 74.5t13.5 115t4.5 168v223h370v-280h180q58 0 98 -24.5t61 -71t21 -113.5t-21 -113.5t-61 -71t-98 -24.5h-260v628h-214v-158q0 -98 -5 -170.5t-15 -123.5t-25.5 -84.5t-35.5 -53.5t-43 -29t-56 -9h-34zM518 70h178q31 0 52 13t32.5 37
t11.5 56v66q0 33 -11.5 56.5t-32.5 36.5t-52 13h-178v-278z" />
    <glyph glyph-name="uni040A" unicode="&#x40a;" horiz-adv-x="931" 
d="M83 0v698h80v-310h293v310h80v-280h180q58 0 98 -24.5t61 -71t21 -113.5t-21 -113.5t-61 -71t-98 -24.5h-260v318h-293v-318h-80zM536 70h178q31 0 52 13t32.5 37t11.5 56v66q0 33 -11.5 56.5t-32.5 36.5t-52 13h-178v-278z" />
    <glyph glyph-name="uni040B" unicode="&#x40b;" horiz-adv-x="717" 
d="M218 0v628h-197v70h474v-70h-197v-218h10q29 12 62 18t70 6q114 0 169.5 -54.5t55.5 -169.5v-210h-80v210q0 83 -37 118.5t-114 35.5q-40 0 -73.5 -6t-62.5 -18v-340h-80z" />
    <glyph glyph-name="uni040C" unicode="&#x40c;" horiz-adv-x="597" 
d="M83 0v698h80v-311h119l124 243q18 35 39 51.5t52 16.5h42v-70h-54l-110 -215q-14 -27 -25.5 -38t-28.5 -16v-10q20 -2 34.5 -14t31.5 -45l117 -220h55v-70h-57q-23 0 -43.5 13t-40.5 50l-136 256h-119v-319h-80zM402 913l-97 -158l-49 25l77 169z" />
    <glyph glyph-name="uni040D" unicode="&#x40d;" horiz-adv-x="639" 
d="M83 0v698h78v-446l-10 -142h8l59 131l264 457h73v-698h-78v446l10 142h-8l-58 -130l-265 -458h-73zM310 755l-97 158l69 36l77 -169z" />
    <glyph glyph-name="uni040E" unicode="&#x40e;" horiz-adv-x="539" 
d="M128 0v70h92l33 92l-235 536h87l133 -315l46 -120h10l38 120l107 315h82l-220 -613q-12 -34 -27 -52.5t-37 -25.5t-56 -7h-53zM274 754q-45 0 -74 19.5t-48 58.5l-18 38l62 31l32 -83q11 -3 23.5 -4.5t22.5 -1.5q11 0 23.5 1.5t22.5 4.5l32 83l62 -31l-18 -38
q-19 -39 -48 -58.5t-74 -19.5z" />
    <glyph glyph-name="uni040F" unicode="&#x40f;" horiz-adv-x="625" 
d="M276 -150v150h-193v698h80v-628h299v628h80v-698h-193v-150h-73z" />
    <glyph glyph-name="uni0410" unicode="&#x410;" horiz-adv-x="579" 
d="M558 0h-82l-62 209h-251l-62 -209h-80l218 698h100zM396 275l-81 265l-22 87h-10l-22 -87l-79 -265h214z" />
    <glyph glyph-name="uni0411" unicode="&#x411;" horiz-adv-x="574" 
d="M83 0v698h388v-70h-308v-210h180q58 0 98 -24.5t61 -71t21 -113.5t-21 -113.5t-61 -71t-98 -24.5h-260zM163 70h178q31 0 52 13t32.5 37t11.5 56v66q0 33 -11.5 56.5t-32.5 36.5t-52 13h-178v-278z" />
    <glyph glyph-name="uni0412" unicode="&#x412;" horiz-adv-x="589" 
d="M83 0v698h264q79 0 121.5 -44.5t42.5 -135.5q0 -55 -16.5 -86.5t-41.5 -45t-49 -15.5v-10q18 0 40.5 -8t42.5 -26t33 -48.5t13 -76.5q0 -63 -20 -108.5t-56 -69.5t-83 -24h-291zM163 326v-256h187q32 0 53.5 11t32.5 34.5t11 59.5v46q0 36 -11 59.5t-32.5 34.5t-53.5 11
h-187zM163 628v-232h174q29 0 48.5 10t30 30.5t10.5 52.5v46q0 32 -10.5 52.5t-30 30.5t-48.5 10h-174z" />
    <glyph glyph-name="uni0413" unicode="&#x413;" horiz-adv-x="461" 
d="M83 0v698h353v-70h-273v-628h-80z" />
    <glyph glyph-name="uni0414" unicode="&#x414;" horiz-adv-x="659" 
d="M10 -150v220h66q26 42 43.5 98t26 135t8.5 191v204h389v-628h88v-220h-73v150h-475v-150h-73zM169 70h294v558h-233v-140q0 -108 -7 -187t-20.5 -134.5t-33.5 -91.5v-5z" />
    <glyph glyph-name="uni0415" unicode="&#x415;" horiz-adv-x="526" 
d="M469 0h-386v698h386v-70h-306v-240h287v-70h-287v-248h306v-70z" />
    <glyph glyph-name="uni0416" unicode="&#x416;" horiz-adv-x="882" 
d="M38 0v70h57l96 215q14 32 29 46t34 18v10q-15 5 -28.5 18t-25.5 43l-85 208h-59v70h46q32 0 53.5 -16.5t36.5 -52.5l99 -242h110v311h80v-311h110l100 242q15 36 36.5 52.5t52.5 16.5h46v-70h-59l-86 -208q-13 -30 -25.5 -43t-27.5 -18v-10q20 -4 35 -18t29 -46l95 -215
h57v-70h-59q-27 0 -47 15.5t-37 54.5l-110 249h-110v-319h-80v319h-110l-111 -249q-17 -39 -36.5 -54.5t-46.5 -15.5h-59z" />
    <glyph glyph-name="uni0417" unicode="&#x417;" horiz-adv-x="536" 
d="M253 -12q-78 0 -130 32.5t-90 90.5l58 47q29 -51 68.5 -75t93.5 -24q45 0 76.5 14.5t48 43t16.5 70.5v14q0 55 -31.5 87.5t-99.5 32.5h-96v70h90q42 0 70 13.5t41.5 40.5t13.5 67v19q0 56 -32 82t-94 26q-51 0 -85.5 -20t-58.5 -62l-60 40q33 57 82 85t122 28
q102 0 156.5 -48.5t53.5 -134.5q0 -70 -33.5 -111t-89.5 -53v-10q38 -4 69 -22t49.5 -52t18.5 -86q0 -61 -27.5 -107t-78.5 -72t-121 -26z" />
    <glyph glyph-name="uni0418" unicode="&#x418;" horiz-adv-x="638" 
d="M83 0v698h78v-446l-10 -142h8l59 131l264 457h73v-698h-78v446l10 142h-8l-58 -130l-265 -458h-73z" />
    <glyph glyph-name="uni0419" unicode="&#x419;" horiz-adv-x="639" 
d="M83 0v698h78v-446l-10 -142h8l59 131l264 457h73v-698h-78v446l10 142h-8l-58 -130l-265 -458h-73zM317 754q-45 0 -74 19.5t-48 58.5l-18 38l62 31l32 -83q11 -3 23.5 -4.5t22.5 -1.5q11 0 23.5 1.5t22.5 4.5l32 83l62 -31l-18 -38q-19 -39 -48 -58.5t-74 -19.5z" />
    <glyph glyph-name="uni041A" unicode="&#x41a;" horiz-adv-x="597" 
d="M83 0v698h80v-311h119l124 243q18 35 39 51.5t52 16.5h42v-70h-54l-110 -215q-14 -27 -25.5 -38t-28.5 -16v-10q20 -2 34.5 -14t31.5 -45l117 -220h55v-70h-57q-23 0 -43.5 13t-40.5 50l-136 256h-119v-319h-80z" />
    <glyph glyph-name="uni041B" unicode="&#x41b;" horiz-adv-x="620" 
d="M10 0v70h64q19 19 33 47.5t23 74.5t13.5 115t4.5 168v223h389v-698h-80v628h-233v-158q0 -98 -5 -170.5t-15 -123.5t-25.5 -84.5t-35.5 -53.5t-43 -29t-56 -9h-34z" />
    <glyph glyph-name="uni041C" unicode="&#x41c;" horiz-adv-x="730" 
d="M82 0v698h106l126 -271l47 -129h8l47 129l126 271h106v-698h-78v479l7 120h-10l-52 -120l-150 -308l-150 308l-52 118h-10l7 -118v-479h-78z" />
    <glyph glyph-name="uni041D" unicode="&#x41d;" horiz-adv-x="637" 
d="M474 0v318h-311v-318h-80v698h80v-310h311v310h80v-698h-80z" />
    <glyph glyph-name="uni041E" unicode="&#x41e;" horiz-adv-x="638" 
d="M319 -12q-84 0 -144 38.5t-91.5 118.5t-31.5 204q0 125 31.5 204.5t91.5 118t144 38.5q85 0 144.5 -38.5t91 -118t31.5 -204.5q0 -124 -31.5 -204t-91 -118.5t-144.5 -38.5zM319 59q58 0 98 26t61.5 74t21.5 112v156q0 65 -21.5 112.5t-61.5 73.5t-98 26q-57 0 -97.5 -26
t-62 -73.5t-21.5 -112.5v-156q0 -64 21.5 -112t62 -74t97.5 -26z" />
    <glyph glyph-name="uni041F" unicode="&#x41f;" horiz-adv-x="625" 
d="M83 0v698h459v-698h-80v628h-299v-628h-80z" />
    <glyph glyph-name="uni0420" unicode="&#x420;" horiz-adv-x="548" 
d="M163 0h-80v698h257q57 0 95.5 -22t58 -66t19.5 -111t-19.5 -111t-58 -66t-95.5 -22h-177v-300zM163 628v-258h175q30 0 49.5 10.5t29.5 32t10 53.5v66q0 33 -10 54t-29.5 31.5t-49.5 10.5h-175z" />
    <glyph glyph-name="uni0421" unicode="&#x421;" horiz-adv-x="561" 
d="M305 -12q-79 0 -135.5 38.5t-87 118.5t-30.5 204q0 125 30.5 204.5t87 118t135.5 38.5q86 0 138 -37t82 -111l-64 -39q-19 56 -55 86t-101 30q-79 0 -123 -57.5t-44 -154.5v-156q0 -97 44 -154.5t123 -57.5q68 0 105 31.5t56 91.5l64 -40q-30 -75 -84.5 -114.5
t-140.5 -39.5z" />
    <glyph glyph-name="uni0422" unicode="&#x422;" horiz-adv-x="516" 
d="M495 628h-197v-628h-80v628h-197v70h474v-70z" />
    <glyph glyph-name="uni0423" unicode="&#x423;" horiz-adv-x="539" 
d="M128 0v70h92l33 92l-235 536h87l133 -315l46 -120h10l38 120l107 315h82l-220 -613q-12 -34 -27 -52.5t-37 -25.5t-56 -7h-53z" />
    <glyph glyph-name="uni0424" unicode="&#x424;" horiz-adv-x="764" 
d="M342 -29v90h-21q-88 0 -150 35.5t-94.5 100t-32.5 151.5t32.5 151.5t94.5 100t150 35.5h21v90h80v-90h21q90 0 151.5 -35.5t93.5 -100t32 -151.5t-33 -151.5t-94.5 -100t-149.5 -35.5h-21v-90h-80zM321 128h23v440h-23q-45 0 -80 -13.5t-60 -37.5t-38 -56t-13 -69v-88
q0 -37 13 -69.5t38 -56t60.5 -37t79.5 -13.5zM420 128h23q44 0 79 13.5t60 37.5t38.5 56t13.5 69v88q0 38 -13 70t-37.5 55.5t-60 37t-80.5 13.5h-23v-440z" />
    <glyph glyph-name="uni0425" unicode="&#x425;" horiz-adv-x="555" 
d="M21 0l206 355l-199 343h93l152 -274h10l157 274h88l-201 -340l206 -358h-93l-160 288h-10l-161 -288h-88z" />
    <glyph glyph-name="uni0426" unicode="&#x426;" horiz-adv-x="658" 
d="M557 -150v150h-474v698h80v-628h299v628h80v-628h88v-220h-73z" />
    <glyph glyph-name="uni0427" unicode="&#x427;" horiz-adv-x="582" 
d="M419 0v280h-10q-28 -12 -61 -18t-71 -6q-114 0 -169.5 54.5t-55.5 169.5v218h80v-218q0 -82 37.5 -118t113.5 -36q41 0 74.5 6t61.5 18v348h80v-698h-80z" />
    <glyph glyph-name="uni0428" unicode="&#x428;" horiz-adv-x="866" 
d="M83 0v698h80v-628h230v628h80v-628h230v628h80v-698h-700z" />
    <glyph glyph-name="uni0429" unicode="&#x429;" horiz-adv-x="899" 
d="M798 -150v150h-715v698h80v-628h230v628h80v-628h230v628h80v-628h88v-220h-73z" />
    <glyph glyph-name="uni042A" unicode="&#x42a;" horiz-adv-x="673" 
d="M188 0v628h-167v70h247v-280h190q58 0 98 -24.5t61 -71t21 -113.5t-21 -113.5t-61 -71t-98 -24.5h-270zM268 70h188q31 0 52 13t32.5 37t11.5 56v66q0 33 -11.5 56.5t-32.5 36.5t-52 13h-188v-278z" />
    <glyph glyph-name="uni042B" unicode="&#x42b;" horiz-adv-x="788" 
d="M83 0v698h80v-280h182q58 0 98 -24.5t61 -71t21 -113.5t-21 -113.5t-61 -71t-98 -24.5h-262zM163 70h180q31 0 52 13t32.5 37t11.5 56v66q0 33 -11.5 56.5t-32.5 36.5t-52 13h-180v-278zM625 0v698h80v-698h-80z" />
    <glyph glyph-name="uni042C" unicode="&#x42c;" horiz-adv-x="568" 
d="M83 0v698h80v-280h190q58 0 98 -24.5t61 -71t21 -113.5t-21 -113.5t-61 -71t-98 -24.5h-270zM163 70h188q31 0 52 13t32.5 37t11.5 56v66q0 33 -11.5 56.5t-32.5 36.5t-52 13h-188v-278z" />
    <glyph glyph-name="uni042D" unicode="&#x42d;" horiz-adv-x="571" 
d="M173 318v70h301l-41 -24v63q0 97 -44.5 154.5t-127.5 57.5q-65 0 -104 -30.5t-59 -86.5l-64 39q22 48 52.5 81.5t73.5 50.5t101 17q82 0 139.5 -38t88 -117t30.5 -202q0 -126 -30.5 -207t-88.5 -119.5t-140 -38.5q-88 0 -142 39t-87 118l63 39q23 -62 63 -93.5t103 -31.5
q84 0 128.5 57.5t44.5 154.5v69l41 -22h-301z" />
    <glyph glyph-name="uni042E" unicode="&#x42e;" horiz-adv-x="869" 
d="M558 -12q-79 0 -135 36.5t-86.5 109.5t-35.5 184h-138v-318h-80v698h80v-310h139q4 106 34.5 177.5t86.5 108t135 36.5q81 0 139 -38t89 -117.5t31 -205.5t-31 -205.5t-89 -117.5t-139 -38zM558 59q80 0 126.5 57t46.5 155v156q0 98 -46.5 155t-126.5 57q-79 0 -125 -57
t-46 -155v-156q0 -98 46 -155t125 -57z" />
    <glyph glyph-name="uni042F" unicode="&#x42f;" horiz-adv-x="578" 
d="M37 0v70h54l78 173q15 33 27.5 46t30.5 17v23l36 -13h-28q-86 0 -128 50t-42 133q0 65 21 109.5t61 67t96 22.5h252v-698h-80v302h-134l-106 -235q-18 -39 -37 -53t-45 -14h-56zM245 370h170v258h-170q-30 0 -51 -12.5t-32 -35t-11 -53.5v-56q0 -31 11 -53.5t32 -35
t51 -12.5z" />
    <glyph glyph-name="uni0430" unicode="&#x430;" horiz-adv-x="483" 
d="M456 0h-54q-24 0 -40.5 8.5t-25 25t-8.5 40.5v20l10 -10h-20q-13 -46 -48 -71t-82 -25q-75 0 -112 38.5t-37 111.5q0 48 21 83t64.5 54t110.5 19h93v57q0 57 -25.5 84t-80.5 27q-44 0 -72 -19.5t-48 -56.5l-45 42q20 41 64.5 70t103.5 29q87 0 133 -42.5t46 -125.5v-292
h52v-67zM328 236h-95q-60 0 -87.5 -20t-27.5 -58v-28q0 -39 24.5 -57.5t64.5 -18.5q35 0 62.5 15t43 39t15.5 50v78z" />
    <glyph glyph-name="uni0431" unicode="&#x431;" horiz-adv-x="508" 
d="M256 -12q-69 0 -113.5 29t-72.5 97q-14 36 -19.5 81.5t-5.5 111.5q0 113 15 191.5t46 128.5t79 76t114 32l131 13v-78l-138 -14q-43 -4 -72.5 -18.5t-48 -42t-29.5 -73t-16 -113.5h10q12 53 46 80t86 27q59 0 103.5 -25.5t70 -83.5t25.5 -156q0 -92 -27.5 -150t-75 -85.5
t-108.5 -27.5zM258 56q60 0 93.5 37t33.5 109v91q0 79 -33.5 117t-99.5 38q-63 0 -94 -33.5t-31 -91.5v-112q0 -78 35 -116.5t96 -38.5z" />
    <glyph glyph-name="uni0432" unicode="&#x432;" horiz-adv-x="505" 
d="M76 0v516h237q57 0 89.5 -35.5t32.5 -94.5q0 -48 -23 -75.5t-68 -32.5v-10q54 -2 81 -34t27 -81q0 -41 -15.5 -76t-44 -56t-68.5 -21h-248zM152 64h150q31 0 49.5 19.5t18.5 54.5v23q0 36 -18.5 55.5t-49.5 19.5h-150v-172zM152 298h140q29 0 45 18t16 49v23q0 31 -16 48
t-45 17h-140v-155z" />
    <glyph glyph-name="uni0433" unicode="&#x433;" horiz-adv-x="392" 
d="M76 0v516h295v-67h-219v-449h-76z" />
    <glyph glyph-name="uni0434" unicode="&#x434;" horiz-adv-x="541" 
d="M7 -140v207h54q18 34 32 78.5t21.5 100t7.5 120.5v150h318v-449h78v-207h-71v140h-369v-140h-71zM143 67h221v382h-169v-86q0 -104 -15.5 -177t-36.5 -119z" />
    <glyph glyph-name="uni0435" unicode="&#x435;" horiz-adv-x="495" 
d="M252 -12q-60 0 -108 27.5t-75.5 87t-27.5 155.5t27.5 155.5t75.5 87t108 27.5q61 0 106 -27.5t70 -87t25 -155.5v-19h-331v-33q0 -76 34.5 -113.5t95.5 -37.5q52 0 85 23t52 67l52 -38q-24 -52 -70.5 -85.5t-118.5 -33.5zM252 464q-41 0 -70 -17.5t-44.5 -51.5t-15.5 -85
v-13h250v13q0 51 -13.5 85t-40 51.5t-66.5 17.5z" />
    <glyph glyph-name="uni0436" unicode="&#x436;" horiz-adv-x="716" 
d="M45 0v67h53l53 142q11 27 25 39.5t32 13.5v10q-16 2 -27 12t-24 40l-54 125h-52v67h41q29 0 47.5 -14t32.5 -47l68 -157h80v218h76v-218h80l68 157q14 33 33 47t47 14h41v-67h-52l-54 -125q-13 -30 -24 -40t-27 -12v-10q18 -1 32.5 -13.5t24.5 -39.5l53 -142h53v-67h-52
q-25 0 -46 14t-35 53l-62 166h-80v-233h-76v233h-80l-62 -166q-14 -39 -35 -53t-46 -14h-52z" />
    <glyph glyph-name="uni0437" unicode="&#x437;" horiz-adv-x="452" 
d="M208 -12q-70 0 -113.5 27.5t-71.5 76.5l56 46q18 -38 51 -60t78 -22q54 0 81.5 23.5t27.5 60.5v12q0 40 -23 61t-65 21h-100v64h91q41 0 64 20t23 55v13q0 33 -23.5 53t-73.5 20q-48 0 -78.5 -21t-48.5 -56l-50 44q23 45 67 73t114 28q86 0 130.5 -36.5t44.5 -101.5
q0 -48 -22.5 -74.5t-67.5 -38.5v-10q54 -10 77 -40t23 -77q0 -73 -52 -117t-139 -44z" />
    <glyph glyph-name="uni0438" unicode="&#x438;" horiz-adv-x="532" 
d="M76 0v516h74v-293l-11 -121h10l54 110l181 304h72v-516h-74v293l11 121h-10l-54 -110l-181 -304h-72z" />
    <glyph glyph-name="uni0439" unicode="&#x439;" horiz-adv-x="532" 
d="M76 0v516h74v-293l-11 -121h10l54 110l181 304h72v-516h-74v293l11 121h-10l-54 -110l-181 -304h-72zM264 596q-45 0 -76 20.5t-48 57.5l-18 38l62 31l34 -83q11 -3 23.5 -4.5t22.5 -1.5q11 0 23.5 1.5t22.5 4.5l34 83l62 -31l-18 -38q-17 -37 -48 -57.5t-76 -20.5z" />
    <glyph glyph-name="uni043A" unicode="&#x43a;" horiz-adv-x="507" 
d="M76 0v516h76v-218h91l88 162q20 35 37.5 45.5t42.5 10.5h43v-67h-54l-72 -132q-13 -25 -23 -34t-27 -11v-10q19 -1 32.5 -11.5t27.5 -39.5l70 -144h54v-67h-53q-24 0 -44.5 13t-37.5 48l-84 172h-91v-233h-76z" />
    <glyph glyph-name="uni043B" unicode="&#x43b;" horiz-adv-x="513" 
d="M8 0v67h61q16 25 27 62.5t17 95t6 143.5v148h318v-516h-76v449h-169v-83q0 -100 -8.5 -167t-23 -107t-33.5 -59q-18 -18 -39.5 -25.5t-50.5 -7.5h-29z" />
    <glyph glyph-name="uni043C" unicode="&#x43c;" horiz-adv-x="632" 
d="M76 0v516h101l103 -201l32 -80h8l32 80l103 201h101v-516h-74v358l3 65h-10l-26 -56l-133 -259l-133 259l-26 56h-10l3 -65v-358h-74z" />
    <glyph glyph-name="uni043D" unicode="&#x43d;" horiz-adv-x="528" 
d="M76 0v516h76v-217h224v217h76v-516h-76v232h-224v-232h-76z" />
    <glyph glyph-name="uni043E" unicode="&#x43e;" horiz-adv-x="504" 
d="M252 -12q-60 0 -108 27.5t-75.5 87t-27.5 155.5t27.5 155.5t75.5 87t108 27.5q61 0 108.5 -27.5t75 -87t27.5 -155.5t-27.5 -155.5t-75 -87t-108.5 -27.5zM252 56q62 0 95.5 37t33.5 113v104q0 76 -33.5 113t-95.5 37q-61 0 -95 -37t-34 -113v-104q0 -76 34 -113t95 -37z
" />
    <glyph glyph-name="uni043F" unicode="&#x43f;" horiz-adv-x="518" 
d="M76 0v516h366v-516h-76v449h-214v-449h-76z" />
    <glyph glyph-name="uni0440" unicode="&#x440;" horiz-adv-x="524" 
d="M76 -200v716h76v-84h10q15 50 48.5 73t81.5 23q62 0 103.5 -33t63 -93.5t21.5 -143.5t-21.5 -143.5t-63 -93.5t-103.5 -33q-48 0 -81.5 23t-48.5 73h-10v-284h-76zM269 56q63 0 96 40t33 110v104q0 71 -33 110.5t-96 39.5q-32 0 -58.5 -12.5t-42.5 -34.5t-16 -51v-208
q0 -29 16 -51t42.5 -34.5t58.5 -12.5z" />
    <glyph glyph-name="uni0441" unicode="&#x441;" horiz-adv-x="454" 
d="M246 -12q-96 0 -150.5 63t-54.5 207t54.5 207t150.5 63q73 0 116.5 -33.5t63.5 -85.5l-63 -32q-13 40 -41 61.5t-76 21.5q-63 0 -93 -37t-30 -113v-104q0 -76 30 -113t93 -37q50 0 80.5 22.5t48.5 66.5l56 -39q-23 -53 -69.5 -85.5t-115.5 -32.5z" />
    <glyph glyph-name="uni0442" unicode="&#x442;" horiz-adv-x="426" 
d="M175 0v449h-157v67h390v-67h-157v-449h-76z" />
    <glyph glyph-name="uni0443" unicode="&#x443;" horiz-adv-x="451" 
d="M277 256l79 260h74l-204 -648q-8 -27 -18.5 -41.5t-27.5 -20.5t-46 -6h-56v67h79l30 105l-171 544h76l79 -260l48 -189h10z" />
    <glyph glyph-name="uni0444" unicode="&#x444;" horiz-adv-x="676" 
d="M300 -200v254h-9q-9 -30 -33.5 -48t-63.5 -18q-44 0 -78 25.5t-53 84.5t-19 159q0 101 19 160t53 84.5t78 25.5q39 0 63.5 -18t33.5 -48h9v249h76v-249h9q9 30 33.5 48t63.5 18q44 0 78 -25.5t53 -84.5t19 -160q0 -100 -19 -159t-53 -84.5t-78 -25.5q-39 0 -63.5 18
t-33.5 48h-9v-254h-76zM219 56q27 0 45.5 8t27.5 25t9 43v251q0 26 -9 43t-27.5 25t-45.5 8q-45 0 -69 -31t-24 -110v-121q0 -79 24 -110t69 -31zM457 56q45 0 69 31t24 110v121q0 79 -24 110t-69 31q-27 0 -45 -8t-27.5 -25t-9.5 -43v-251q0 -26 9.5 -43t27.5 -25t45 -8z
" />
    <glyph glyph-name="uni0445" unicode="&#x445;" horiz-adv-x="459" 
d="M19 0l170 263l-163 253h86l115 -188h10l117 188h83l-162 -250l167 -266h-86l-119 202h-10l-125 -202h-83z" />
    <glyph glyph-name="uni0446" unicode="&#x446;" horiz-adv-x="543" 
d="M449 -140v140h-373v516h76v-449h214v449h76v-449h78v-207h-71z" />
    <glyph glyph-name="uni0447" unicode="&#x447;" horiz-adv-x="486" 
d="M334 0v239h-13q-15 -27 -45 -44.5t-81 -17.5q-70 0 -110 39.5t-40 118.5v181h76v-174q0 -48 24.5 -72.5t73.5 -24.5q50 0 82.5 17t32.5 50v204h76v-516h-76z" />
    <glyph glyph-name="uni0448" unicode="&#x448;" horiz-adv-x="720" 
d="M76 0v516h76v-449h170v449h76v-449h170v449h76v-516h-568z" />
    <glyph glyph-name="uni0449" unicode="&#x449;" horiz-adv-x="745" 
d="M651 -140v140h-575v516h76v-449h170v449h76v-449h170v449h76v-449h78v-207h-71z" />
    <glyph glyph-name="uni044A" unicode="&#x44a;" horiz-adv-x="552" 
d="M147 0v449h-129v67h205v-185h138q48 0 82 -20t52.5 -57t18.5 -88q0 -50 -18.5 -87.5t-52.5 -58t-82 -20.5h-214zM223 67h126q39 0 61 18.5t22 58.5v43q0 40 -22 58.5t-61 18.5h-126v-197z" />
    <glyph glyph-name="uni044B" unicode="&#x44b;" horiz-adv-x="659" 
d="M76 0v516h76v-185h128q48 0 82 -20t52.5 -57t18.5 -88q0 -50 -18.5 -87.5t-52.5 -58t-82 -20.5h-204zM152 67h116q39 0 61 18.5t22 58.5v43q0 40 -22 58.5t-61 18.5h-116v-197zM507 0v516h76v-516h-76z" />
    <glyph glyph-name="uni044C" unicode="&#x44c;" horiz-adv-x="481" 
d="M76 0v516h76v-185h138q48 0 82 -20t52.5 -57t18.5 -88q0 -50 -18.5 -87.5t-52.5 -58t-82 -20.5h-214zM152 67h126q39 0 61 18.5t22 58.5v43q0 40 -22 58.5t-61 18.5h-126v-197z" />
    <glyph glyph-name="uni044D" unicode="&#x44d;" horiz-adv-x="458" 
d="M137 228v65h198v17q0 76 -30 113t-95 37q-51 0 -82 -22.5t-49 -66.5l-56 39q23 53 70 85.5t117 32.5q98 0 152.5 -63t54.5 -207t-54.5 -207t-152.5 -63q-74 0 -118 33.5t-64 85.5l63 32q13 -40 41.5 -61.5t77.5 -21.5q65 0 95 37t30 113v22h-198z" />
    <glyph glyph-name="uni044E" unicode="&#x44e;" horiz-adv-x="705" 
d="M460 -12q-91 0 -145.5 62t-59.5 183h-103v-233h-76v516h76v-218h104q8 110 60.5 170t143.5 60q57 0 103.5 -27.5t73.5 -87t27 -155.5t-27 -155.5t-73.5 -87t-103.5 -27.5zM460 56q56 0 89 37t33 113v104q0 76 -33 113t-89 37q-58 0 -91 -37t-33 -113v-104q0 -76 33 -113
t91 -37z" />
    <glyph glyph-name="uni044F" unicode="&#x44f;" horiz-adv-x="500" 
d="M50 0v67h51l32 82q10 26 23.5 36.5t31.5 13.5v10q-63 5 -96 45t-33 106q0 48 18.5 83t53 54t81.5 19h212v-516h-76v199h-115l-51 -131q-14 -36 -33 -52t-48 -16h-51zM224 264h124v185h-124q-39 0 -61 -17.5t-22 -57.5v-35q0 -40 22 -57.5t61 -17.5z" />
    <glyph glyph-name="uni0450" unicode="&#x450;" horiz-adv-x="495" 
d="M252 -12q-60 0 -108 27.5t-75.5 87t-27.5 155.5t27.5 155.5t75.5 87t108 27.5q61 0 106 -27.5t70 -87t25 -155.5v-19h-331v-33q0 -76 34.5 -113.5t95.5 -37.5q52 0 85 23t52 67l52 -38q-24 -52 -70.5 -85.5t-118.5 -33.5zM252 464q-41 0 -70 -17.5t-44.5 -51.5t-15.5 -85
v-13h250v13q0 51 -13.5 85t-40 51.5t-66.5 17.5zM245 585l-97 158l69 36l77 -169z" />
    <glyph glyph-name="uni0451" unicode="&#x451;" horiz-adv-x="495" 
d="M252 -12q-60 0 -108 27.5t-75.5 87t-27.5 155.5t27.5 155.5t75.5 87t108 27.5q61 0 106 -27.5t70 -87t25 -155.5v-19h-331v-33q0 -76 34.5 -113.5t95.5 -37.5q52 0 85 23t52 67l52 -38q-24 -52 -70.5 -85.5t-118.5 -33.5zM252 464q-41 0 -70 -17.5t-44.5 -51.5t-15.5 -85
v-13h250v13q0 51 -13.5 85t-40 51.5t-66.5 17.5zM166 620q-25 0 -37.5 10.5t-12.5 29.5v18q0 19 12.5 29.5t37.5 10.5t37.5 -10.5t12.5 -29.5v-18q0 -19 -12.5 -29.5t-37.5 -10.5zM338 620q-25 0 -37.5 10.5t-12.5 29.5v18q0 19 12.5 29.5t37.5 10.5t37.5 -10.5t12.5 -29.5
v-18q0 -19 -12.5 -29.5t-37.5 -10.5z" />
    <glyph glyph-name="uni0452" unicode="&#x452;" horiz-adv-x="511" 
d="M288 -200v67h76v464q0 62 -25.5 95t-78.5 33q-30 0 -55 -13t-40 -36.5t-15 -57.5v-352h-76v609h-58v60h58v71h76v-71h135v-60h-135v-177h10q15 47 46.5 71.5t85.5 24.5q69 0 108.5 -47t39.5 -145v-438q0 -51 -23.5 -74.5t-74.5 -23.5h-54z" />
    <glyph glyph-name="uni0453" unicode="&#x453;" horiz-adv-x="392" 
d="M76 0v516h295v-67h-219v-449h-76zM327 743l-97 -158l-49 25l77 169z" />
    <glyph glyph-name="uni0454" unicode="&#x454;" horiz-adv-x="458" 
d="M248 -12q-97 0 -152 63t-55 207t55 207t152 63q74 0 118 -33.5t64 -85.5l-63 -32q-13 40 -41 61.5t-78 21.5q-64 0 -94.5 -37t-30.5 -113v-17h198v-65h-198v-22q0 -76 30.5 -113t94.5 -37q51 0 82 22.5t49 66.5l56 -39q-23 -53 -69.5 -85.5t-117.5 -32.5z" />
    <glyph glyph-name="uni0455" unicode="&#x455;" horiz-adv-x="439" 
d="M219 -12q-64 0 -109.5 26t-77.5 72l53 44q27 -38 59 -58t75 -20q45 0 71.5 22.5t26.5 64.5q0 34 -17 55t-63 29l-39 7q-49 9 -82 26.5t-49.5 47t-16.5 73.5q0 79 46 114.5t119 35.5q39 0 69 -9t54 -27t43 -44l-49 -45q-16 24 -44.5 42.5t-72.5 18.5q-46 0 -68.5 -21
t-22.5 -62q0 -37 20 -55t63 -26l39 -7q79 -14 112 -49.5t33 -94.5q0 -50 -19.5 -86t-58 -55t-94.5 -19z" />
    <glyph glyph-name="uni0456" unicode="&#x456;" horiz-adv-x="228" 
d="M114 641q-25 0 -36 11t-11 30v16q0 20 11 30.5t36 10.5t36 -10.5t11 -30.5v-16q0 -19 -11 -30t-36 -11zM76 0v516h76v-516h-76z" />
    <glyph glyph-name="uni0457" unicode="&#x457;" horiz-adv-x="228" 
d="M152 0h-76v516h76v-516zM28 620q-25 0 -37.5 10.5t-12.5 29.5v18q0 19 12.5 29.5t37.5 10.5t37.5 -10.5t12.5 -29.5v-18q0 -19 -12.5 -29.5t-37.5 -10.5zM200 620q-25 0 -37.5 10.5t-12.5 29.5v18q0 19 12.5 29.5t37.5 10.5t37.5 -10.5t12.5 -29.5v-18q0 -19 -12.5 -29.5
t-37.5 -10.5z" />
    <glyph glyph-name="uni0458" unicode="&#x458;" horiz-adv-x="228" 
d="M76 -133v649h76v-618q0 -51 -23.5 -74.5t-74.5 -23.5h-54v67h76zM114 641q-25 0 -36 11t-11 30v16q0 20 11 30.5t36 10.5t36 -10.5t11 -30.5v-16q0 -19 -11 -30t-36 -11z" />
    <glyph glyph-name="uni0459" unicode="&#x459;" horiz-adv-x="744" 
d="M8 0v67h61q16 25 27 62.5t17 95t6 143.5v148h306v-185h128q48 0 82 -20t52.5 -57t18.5 -88q0 -50 -18.5 -87.5t-52.5 -58t-82 -20.5h-204v449h-157v-83q0 -100 -8.5 -167t-23 -107t-33.5 -59q-18 -18 -39.5 -25.5t-50.5 -7.5h-29zM425 67h116q39 0 61 18.5t22 58.5v43
q0 40 -22 58.5t-61 18.5h-116v-197z" />
    <glyph glyph-name="uni045A" unicode="&#x45a;" horiz-adv-x="761" 
d="M76 0v516h76v-217h214v217h76v-185h128q48 0 82 -20t52.5 -57t18.5 -88q0 -50 -18.5 -87.5t-52.5 -58t-82 -20.5h-204v232h-214v-232h-76zM442 67h116q39 0 61 18.5t22 58.5v43q0 40 -22 58.5t-61 18.5h-116v-197z" />
    <glyph glyph-name="uni045B" unicode="&#x45b;" horiz-adv-x="513" 
d="M152 0h-76v614h-60v56h60v70h76v-70h135v-56h-135v-182h10q15 47 46.5 71.5t85.5 24.5q69 0 108.5 -47t39.5 -145v-336h-76v331q0 62 -25.5 95t-78.5 33q-30 0 -55 -13t-40 -36.5t-15 -57.5v-352z" />
    <glyph glyph-name="uni045C" unicode="&#x45c;" horiz-adv-x="507" 
d="M76 0v516h76v-218h91l88 162q20 35 37.5 45.5t42.5 10.5h43v-67h-54l-72 -132q-13 -25 -23 -34t-27 -11v-10q19 -1 32.5 -11.5t27.5 -39.5l70 -144h54v-67h-53q-24 0 -44.5 13t-37.5 48l-84 172h-91v-233h-76zM356 743l-97 -158l-49 25l77 169z" />
    <glyph glyph-name="uni045D" unicode="&#x45d;" horiz-adv-x="532" 
d="M76 0v516h74v-293l-11 -121h10l54 110l181 304h72v-516h-74v293l11 121h-10l-54 -110l-181 -304h-72zM257 585l-97 158l69 36l77 -169z" />
    <glyph glyph-name="uni045E" unicode="&#x45e;" horiz-adv-x="451" 
d="M277 256l79 260h74l-204 -648q-8 -27 -18.5 -41.5t-27.5 -20.5t-46 -6h-56v67h79l30 105l-171 544h76l79 -260l48 -189h10zM226 596q-45 0 -76 20.5t-48 57.5l-18 38l62 31l34 -83q11 -3 23.5 -4.5t22.5 -1.5q11 0 23.5 1.5t22.5 4.5l34 83l62 -31l-18 -38
q-17 -37 -48 -57.5t-76 -20.5z" />
    <glyph glyph-name="uni045F" unicode="&#x45f;" horiz-adv-x="517" 
d="M223 -140v140h-147v516h76v-449h213v449h76v-516h-147v-140h-71z" />
    <glyph glyph-name="uni0462" unicode="&#x462;" horiz-adv-x="606" 
d="M121 0v538h-97v70h97v90h80v-90h176v-70h-176v-120h190q58 0 98 -24.5t61 -71t21 -113.5t-21 -113.5t-61 -71t-98 -24.5h-270zM201 70h188q31 0 52 13t32.5 37t11.5 56v66q0 33 -11.5 56.5t-32.5 36.5t-52 13h-188v-278z" />
    <glyph glyph-name="uni0463" unicode="&#x463;" horiz-adv-x="505" 
d="M100 0v449h-76v67h76v194h76v-194h142v-67h-142v-118h138q48 0 82 -20t52.5 -57t18.5 -88q0 -50 -18.5 -87.5t-52.5 -58t-82 -20.5h-214zM176 67h126q39 0 61 18.5t22 58.5v43q0 40 -22 58.5t-61 18.5h-126v-197z" />
    <glyph glyph-name="uni046A" unicode="&#x46a;" horiz-adv-x="831" 
d="M18 0l131 283q16 34 31.5 48t38.5 20v10l-144 269v68h681v-68l-145 -269v-10q23 -7 39.5 -21.5t31.5 -46.5l131 -283h-87l-148 317h-123v-317h-80v317h-123l-148 -317h-86zM290 385h252l124 235v10h-500v-10z" />
    <glyph glyph-name="uni046B" unicode="&#x46b;" horiz-adv-x="645" 
d="M17 0l97 204q11 23 29.5 37.5t38.5 17.5v4l-124 185v68h529v-68l-123 -185v-4q20 -3 38 -17t29 -38l97 -204h-83l-109 227h-76v-227h-76v227h-76l-109 -227h-82zM248 292h151l101 153v6h-353v-6z" />
    <glyph glyph-name="uni0472" unicode="&#x472;" horiz-adv-x="638" 
d="M319 -12q-84 0 -144 38.5t-91.5 118.5t-31.5 204q0 125 31.5 204.5t91.5 118t144 38.5q85 0 144.5 -38.5t91 -118t31.5 -204.5q0 -124 -31.5 -204t-91 -118.5t-144.5 -38.5zM319 59q58 0 98 26t61.5 74t21.5 112v73l16 -6q-15 -19 -41 -33.5t-58 -14.5q-28 0 -52 8
t-56 26q-25 15 -46.5 22t-47.5 7q-27 0 -51 -14t-53 -49l27 42v-61q1 -64 22 -112t61.5 -74t97.5 -26zM319 639q-57 0 -97.5 -26t-62 -73.5t-21.5 -112.5v-65l-16 6q15 20 41.5 34t57.5 14q29 0 53 -8t55 -26q26 -15 47.5 -22t46.5 -7q27 0 51.5 14.5t52.5 48.5l-27 -42v53
q0 65 -21.5 112.5t-61.5 73.5t-98 26z" />
    <glyph glyph-name="uni0473" unicode="&#x473;" horiz-adv-x="504" 
d="M252 -12q-60 0 -108 27.5t-75.5 87t-27.5 155.5t27.5 155.5t75.5 87t108 27.5q61 0 108.5 -27.5t75 -87t27.5 -155.5t-27.5 -155.5t-75 -87t-108.5 -27.5zM252 56q62 0 96.5 37t34.5 113v26q-8 -10 -26 -17t-34 -7q-23 0 -40 7t-39 20q-17 11 -33 16.5t-31 5.5
q-14 0 -29 -5t-30 -21v-25q0 -76 35 -113t96 -37zM121 310v-19q8 10 26 17t34 7q23 0 40 -7t39 -20q17 -10 33 -16t31 -6q14 0 29 5t30 21v18q0 76 -34.5 113t-96.5 37q-61 0 -96 -37t-35 -113z" />
    <glyph glyph-name="uni0474" unicode="&#x474;" horiz-adv-x="617" 
d="M324 0h-100l-205 698h84l132 -451l35 -177h10l35 177l108 394q8 29 28 43t53 14h83v-70h-85z" />
    <glyph glyph-name="uni0475" unicode="&#x475;" horiz-adv-x="485" 
d="M268 0h-90l-162 516h76l79 -260l48 -189h10l43 189l51 199q9 34 27.5 47.5t51.5 13.5h59v-67h-66z" />
    <glyph glyph-name="uni0490" unicode="&#x490;" horiz-adv-x="461" 
d="M83 0v698h280v150h73v-220h-273v-628h-80z" />
    <glyph glyph-name="uni0491" unicode="&#x491;" horiz-adv-x="392" 
d="M76 0v516h224v140h71v-207h-219v-449h-76z" />
    <glyph glyph-name="uni0492" unicode="&#x492;" horiz-adv-x="478" 
d="M100 0v338h-88v60h88v300h353v-70h-273v-230h177v-60h-177v-338h-80z" />
    <glyph glyph-name="uni0493" unicode="&#x493;" horiz-adv-x="408" 
d="M92 0v231h-66v60h66v225h295v-67h-219v-158h144v-60h-144v-231h-76z" />
    <glyph glyph-name="uni0494" unicode="&#x494;" horiz-adv-x="572" 
d="M305 -164v70h77q27 20 42.5 63.5t15.5 112.5v72q0 92 -36 134.5t-107 42.5q-39 0 -72 -6t-62 -18v-307h-80v698h353v-70h-273v-251h10q29 12 61.5 18t66.5 6q113 0 166 -61t53 -186v-72q0 -81 -21.5 -135.5t-60.5 -82.5t-91 -28h-42z" />
    <glyph glyph-name="uni0495" unicode="&#x495;" horiz-adv-x="487" 
d="M260 -200v67h78q14 20 21 52t7 77v114q0 67 -23 93t-76 26q-49 0 -82 -17t-33 -50v-162h-76v516h295v-67h-219v-214h10q17 27 47.5 45t81.5 18q74 0 112.5 -41.5t38.5 -139.5v-127q0 -95 -35.5 -142.5t-98.5 -47.5h-48z" />
    <glyph glyph-name="uni0496" unicode="&#x496;" horiz-adv-x="889" 
d="M803 -150v172l22 -22h-40q-27 0 -47 15.5t-37 54.5l-110 249h-110v-319h-80v319h-110l-111 -249q-17 -39 -36.5 -54.5t-46.5 -15.5h-59v70h57l96 215q14 32 29 46t34 18v10q-15 5 -28.5 18t-25.5 43l-85 208h-59v70h46q32 0 53.5 -16.5t36.5 -52.5l99 -242h110v311h80
v-311h110l100 242q15 36 36.5 52.5t52.5 16.5h46v-70h-59l-86 -208q-13 -30 -25.5 -43t-27.5 -18v-10q20 -4 35 -18t29 -46l95 -215h91v-220h-75z" />
    <glyph glyph-name="uni0497" unicode="&#x497;" horiz-adv-x="722" 
d="M623 -140v183l49 -43h-53q-25 0 -46 14t-35 53l-62 166h-80v-233h-76v233h-80l-62 -166q-14 -39 -35 -53t-46 -14h-52v67h53l53 142q11 27 25 39.5t32 13.5v10q-16 2 -27 12t-24 40l-54 125h-52v67h41q29 0 47.5 -14t32.5 -47l68 -157h80v218h76v-218h80l68 157
q14 33 33 47t47 14h41v-67h-52l-54 -125q-13 -30 -24 -40t-27 -12v-10q18 -1 32.5 -13.5t24.5 -39.5l53 -142h76v-207h-71z" />
    <glyph glyph-name="uni0498" unicode="&#x498;" horiz-adv-x="536" 
d="M220 -150v140q-60 6 -105.5 35.5t-81.5 85.5l58 47q29 -51 68.5 -75t93.5 -24q45 0 76.5 14.5t48 43t16.5 70.5v14q0 55 -31.5 87.5t-99.5 32.5h-96v70h90q42 0 70 13.5t41.5 40.5t13.5 67v19q0 56 -32 82t-94 26q-51 0 -85.5 -20t-58.5 -62l-60 40q33 57 82 85t122 28
q102 0 156.5 -48.5t53.5 -134.5q0 -70 -33.5 -111t-89.5 -53v-10q38 -4 69 -22t49.5 -52t18.5 -86q0 -85 -52 -139t-135 -64v-140h-73z" />
    <glyph glyph-name="uni0499" unicode="&#x499;" horiz-adv-x="452" 
d="M173 -140v130q-54 6 -90.5 33t-59.5 69l56 46q18 -38 51 -60t78 -22q54 0 81.5 23.5t27.5 60.5v12q0 40 -23 61t-65 21h-100v64h91q41 0 64 20t23 55v13q0 33 -23.5 53t-73.5 20q-48 0 -78.5 -21t-48.5 -56l-50 44q23 45 67 73t114 28q86 0 130.5 -36.5t44.5 -101.5
q0 -48 -22.5 -74.5t-67.5 -38.5v-10q54 -10 77 -40t23 -77q0 -63 -40 -105.5t-115 -53.5v-130h-71z" />
    <glyph glyph-name="uni049A" unicode="&#x49a;" horiz-adv-x="605" 
d="M521 -150v193l33 -43h-52q-23 0 -43.5 13t-40.5 50l-136 256h-119v-319h-80v698h80v-311h119l124 243q18 35 39 51.5t52 16.5h42v-70h-54l-110 -215q-14 -27 -25.5 -38t-28.5 -16v-10q20 -2 34.5 -14t31.5 -45l117 -220h90v-220h-73z" />
    <glyph glyph-name="uni049B" unicode="&#x49b;" horiz-adv-x="513" 
d="M414 -140v183l49 -43h-54q-24 0 -44.5 13t-37.5 48l-84 172h-91v-233h-76v516h76v-218h91l88 162q20 35 37.5 45.5t42.5 10.5h43v-67h-54l-72 -132q-13 -25 -23 -34t-27 -11v-10q19 -1 32.5 -11.5t27.5 -39.5l70 -144h77v-207h-71z" />
    <glyph glyph-name="uni049C" unicode="&#x49c;" horiz-adv-x="628" 
d="M83 0v698h80v-311h54v156h61v-156h43l115 242q17 36 39 52.5t53 16.5h42v-70h-54l-102 -215q-13 -28 -25 -38.5t-29 -15.5v-10q20 -2 34.5 -14t30.5 -45l110 -220h55v-70h-57q-23 0 -44 12.5t-40 50.5l-128 256h-43v-155h-61v155h-54v-319h-80z" />
    <glyph glyph-name="uni049D" unicode="&#x49d;" horiz-adv-x="539" 
d="M76 0v516h77v-218h42v119h58v-119h31l80 162q17 34 35.5 45t43.5 11h43v-67h-54l-65 -132q-12 -25 -22.5 -34t-25.5 -11v-10q20 -1 32.5 -11.5t25.5 -39.5l63 -144h54v-67h-53q-24 0 -45 12.5t-37 48.5l-75 172h-31v-117h-58v117h-42v-233h-77z" />
    <glyph glyph-name="uni049E" unicode="&#x49e;" horiz-adv-x="634" 
d="M121 0v556h-97v60h97v82h80v-82h136v-60h-136v-169h118l124 243q18 35 39 51.5t52 16.5h42v-70h-54l-110 -215q-14 -27 -25.5 -38t-28.5 -16v-10q20 -2 34.5 -14t31.5 -45l117 -220h55v-70h-57q-23 0 -43.5 13t-40.5 50l-136 256h-118v-319h-80z" />
    <glyph glyph-name="uni049F" unicode="&#x49f;" horiz-adv-x="505" 
d="M74 0v556h-58v60h58v124h76v-124h135v-60h-135v-258h91l88 162q20 35 37.5 45.5t42.5 10.5h43v-67h-54l-72 -132q-13 -25 -23 -34t-27 -11v-10q19 -1 32.5 -11.5t27.5 -39.5l70 -144h54v-67h-53q-24 0 -44.5 13t-37.5 48l-84 172h-91v-233h-76z" />
    <glyph glyph-name="uni04A0" unicode="&#x4a0;" horiz-adv-x="702" 
d="M188 0v628h-167v70h247v-311h119l124 243q18 35 39 51.5t52 16.5h42v-70h-54l-110 -215q-14 -27 -25.5 -38t-28.5 -16v-10q20 -2 34.5 -14t31.5 -45l117 -220h55v-70h-57q-23 0 -43.5 13t-40.5 50l-136 256h-119v-319h-80z" />
    <glyph glyph-name="uni04A1" unicode="&#x4a1;" horiz-adv-x="578" 
d="M147 0v449h-129v67h205v-218h91l88 162q20 35 37.5 45.5t42.5 10.5h43v-67h-54l-72 -132q-13 -25 -23 -34t-27 -11v-10q19 -1 32.5 -11.5t27.5 -39.5l70 -144h54v-67h-53q-24 0 -44.5 13t-37.5 48l-84 172h-91v-233h-76z" />
    <glyph glyph-name="uni04A2" unicode="&#x4a2;" horiz-adv-x="670" 
d="M569 -150v150h-95v318h-311v-318h-80v698h80v-310h311v310h80v-628h88v-220h-73z" />
    <glyph glyph-name="uni04A3" unicode="&#x4a3;" horiz-adv-x="553" 
d="M459 -140v140h-83v232h-224v-232h-76v516h76v-217h224v217h76v-449h78v-207h-71z" />
    <glyph glyph-name="uni04A4" unicode="&#x4a4;" horiz-adv-x="829" 
d="M83 0v698h80v-310h293v310h348v-70h-268v-628h-80v318h-293v-318h-80z" />
    <glyph glyph-name="uni04A5" unicode="&#x4a5;" horiz-adv-x="680" 
d="M76 0v516h76v-217h212v217h295v-67h-219v-449h-76v232h-212v-232h-76z" />
    <glyph glyph-name="uni04A6" unicode="&#x4a6;" horiz-adv-x="917" 
d="M650 -164v70h77q27 20 42.5 63.5t15.5 112.5v72q0 92 -35 135t-100 42q-32 1 -64 -5.5t-61 -18.5v-307h-80v628h-282v-628h-80v698h442v-321h10q29 12 60 18t59 6q107 0 159 -61t52 -186v-72q0 -81 -21.5 -135.5t-60.5 -82.5t-91 -28h-42z" />
    <glyph glyph-name="uni04A7" unicode="&#x4a7;" horiz-adv-x="752" 
d="M525 -200v67h78q14 20 21 52t7 77v114q0 67 -22.5 93t-71.5 26q-46 0 -78 -17t-32 -50v-162h-76v449h-199v-449h-76v516h351v-281h10q17 27 47 45t77 18q71 0 108.5 -41.5t37.5 -139.5v-127q0 -95 -35.5 -142.5t-98.5 -47.5h-48z" />
    <glyph glyph-name="uni04A8" unicode="&#x4a8;" horiz-adv-x="791" 
d="M749 27v-70h-50q-60 0 -110.5 14.5t-86.5 36.5q-25 -10 -55.5 -15t-62.5 -5q-107 0 -181 43.5t-112.5 127.5t-38.5 207q0 116 30.5 192.5t87 114t134.5 37.5q12 0 25.5 -1t22.5 -3l-8 -71q-10 2 -22.5 3t-18.5 1q-52 0 -89 -25t-56.5 -71.5t-19.5 -111.5v-128
q0 -74 29.5 -129.5t85 -85.5t131.5 -30q14 0 29 1.5l25 2.5q-52 39 -85.5 118.5t-33.5 186.5q0 97 24.5 158.5t71 91.5t111.5 30q66 0 112 -30t70.5 -91.5t24.5 -158.5q0 -106 -35.5 -188t-106.5 -130q21 -10 49 -16t59 -6h50zM401 422v-98q0 -76 29.5 -136t87.5 -101
q60 29 96.5 93.5t36.5 143.5v98q0 73 -32.5 113.5t-92.5 40.5t-92.5 -40.5t-32.5 -113.5z" />
    <glyph glyph-name="uni04A9" unicode="&#x4a9;" horiz-adv-x="605" 
d="M585 24v-67h-42q-40 0 -82 11t-77 32q-17 -5 -40.5 -8.5t-44.5 -3.5q-81 0 -139 33t-88.5 96.5t-30.5 153.5q0 85 24 142t68.5 86t104.5 29q11 0 19 -0.5t17 -2.5l-7 -63q-7 2 -15.5 2.5t-17.5 0.5q-49 0 -82 -41t-33 -115v-76q0 -57 20.5 -98t60.5 -63.5t99 -22.5
q5 0 12 0.5t13 1.5q-37 38 -56 91.5t-19 129.5q0 106 42 157.5t119 51.5t119 -51.5t42 -157.5q0 -76 -27 -138t-82 -97q17 -6 38 -9.5t43 -3.5h42zM327 302v-60q0 -54 17.5 -95.5t56.5 -74.5q44 23 68 69t24 101v60q0 57 -23 87.5t-60 30.5t-60 -30.5t-23 -87.5z" />
    <glyph glyph-name="uni04AA" unicode="&#x4aa;" horiz-adv-x="561" 
d="M305 -12q-79 0 -135.5 38.5t-87 118.5t-30.5 204q0 125 30.5 204.5t87 118t135.5 38.5q86 0 138 -37t82 -111l-64 -39q-19 56 -55 86t-101 30q-79 0 -123 -57.5t-44 -154.5v-156q0 -97 44 -154.5t123 -57.5q68 0 105 31.5t56 91.5l64 -40q-30 -75 -84.5 -114.5
t-140.5 -39.5zM314 -207q-37 0 -59 14t-33 27l35 39q10 -10 23.5 -19t33.5 -9q21 0 31.5 8t10.5 26t-10.5 26t-31.5 8h-49l18 97h46l-15 -80h8q5 7 13 11.5t23 4.5q28 0 43 -18t15 -52q0 -28 -14 -46.5t-37.5 -27.5t-50.5 -9z" />
    <glyph glyph-name="uni04AB" unicode="&#x4ab;" horiz-adv-x="454" 
d="M246 -12q-96 0 -150.5 63t-54.5 207t54.5 207t150.5 63q73 0 116.5 -33.5t63.5 -85.5l-63 -32q-13 40 -41 61.5t-76 21.5q-63 0 -93 -37t-30 -113v-104q0 -76 30 -113t93 -37q50 0 80.5 22.5t48.5 66.5l56 -39q-23 -53 -69.5 -85.5t-115.5 -32.5zM258 -207q-37 0 -59 14
t-33 27l35 39q10 -10 23.5 -19t33.5 -9q21 0 31.5 8t10.5 26t-10.5 26t-31.5 8h-49l18 97h46l-15 -80h8q5 7 13 11.5t23 4.5q28 0 43 -18t15 -52q0 -28 -14 -46.5t-37.5 -27.5t-50.5 -9z" />
    <glyph glyph-name="uni04AC" unicode="&#x4ac;" horiz-adv-x="516" 
d="M495 628h-197v-558h88v-220h-73v150h-95v628h-197v70h474v-70z" />
    <glyph glyph-name="uni04AD" unicode="&#x4ad;" horiz-adv-x="426" 
d="M175 0v449h-157v67h390v-67h-157v-382h78v-207h-71v140h-83z" />
    <glyph glyph-name="uni04AE" unicode="&#x4ae;" horiz-adv-x="534" 
d="M307 0h-80v276l-216 422h91l161 -332h10l161 332h89l-216 -422v-276z" />
    <glyph glyph-name="uni04AF" unicode="&#x4af;" horiz-adv-x="445" 
d="M185 -200v200l-169 516h76l83 -264l45 -162h10l45 162l81 264h74l-169 -516v-200h-76z" />
    <glyph glyph-name="uni04B0" unicode="&#x4b0;" horiz-adv-x="534" 
d="M227 0v216h-147v60h147l-216 422h91l161 -332h10l161 332h89l-216 -422h146v-60h-146v-216h-80z" />
    <glyph glyph-name="uni04B1" unicode="&#x4b1;" horiz-adv-x="445" 
d="M185 -200v140h-111v60h111l-169 516h76l83 -264l45 -162h10l45 162l81 264h74l-169 -516h111v-60h-111v-140h-76z" />
    <glyph glyph-name="uni04B2" unicode="&#x4b2;" horiz-adv-x="583" 
d="M505 -150v150h-65l-160 288h-10l-161 -288h-88l206 355l-199 343h93l152 -274h10l157 274h89l-202 -340l166 -288h85v-220h-73z" />
    <glyph glyph-name="uni04B3" unicode="&#x4b3;" horiz-adv-x="484" 
d="M405 -140v140h-49l-119 202h-10l-125 -202h-83l170 263l-163 253h86l115 -188h10l116 188h85l-163 -251l125 -198h76v-207h-71z" />
    <glyph glyph-name="uni04B4" unicode="&#x4b4;" horiz-adv-x="784" 
d="M683 -150v150h-474v628h-188v70h456v-70h-188v-558h299v628h80v-628h88v-220h-73z" />
    <glyph glyph-name="uni04B5" unicode="&#x4b5;" horiz-adv-x="641" 
d="M547 -140v140h-382v449h-147v67h370v-67h-147v-382h223v449h76v-449h78v-207h-71z" />
    <glyph glyph-name="uni04B6" unicode="&#x4b6;" horiz-adv-x="615" 
d="M514 -150v150h-95v280h-10q-28 -12 -61 -18t-71 -6q-114 0 -169.5 54.5t-55.5 169.5v218h80v-218q0 -82 37.5 -118t113.5 -36q41 0 74.5 6t61.5 18v348h80v-628h88v-220h-73z" />
    <glyph glyph-name="uni04B7" unicode="&#x4b7;" horiz-adv-x="511" 
d="M417 -140v140h-83v239h-13q-15 -27 -45 -44.5t-81 -17.5q-70 0 -110 39.5t-40 118.5v181h76v-174q0 -48 24.5 -72.5t73.5 -24.5q50 0 82.5 17t32.5 50v204h76v-449h78v-207h-71z" />
    <glyph glyph-name="uni04B8" unicode="&#x4b8;" horiz-adv-x="582" 
d="M419 0v280h-10q-24 -10 -48.5 -15.5t-50.5 -7.5v-145h-62v145q-96 7 -146 59.5t-50 163.5v218h80v-218q0 -79 31 -111.5t85 -40.5v164h62v-166q32 2 58.5 8t50.5 16v348h80v-698h-80z" />
    <glyph glyph-name="uni04B9" unicode="&#x4b9;" horiz-adv-x="486" 
d="M334 0v237h-12q-10 -17 -27.5 -31.5t-37.5 -22.5v-94h-58v88q-75 0 -114.5 39.5t-39.5 118.5v181h76v-174q0 -44 19.5 -67.5t58.5 -28.5v145h58v-145q35 2 56 20.5t21 45.5v204h76v-516h-76z" />
    <glyph glyph-name="uni04BA" unicode="&#x4ba;" horiz-adv-x="582" 
d="M83 0v698h80v-280h10q29 12 62 18t70 6q114 0 169.5 -54.5t55.5 -169.5v-218h-80v218q0 83 -37 118.5t-114 35.5q-40 0 -73.5 -6t-62.5 -18v-348h-80z" />
    <glyph glyph-name="uni04BB" unicode="&#x4bb;" horiz-adv-x="513" 
d="M76 0v740h76v-308h10q15 47 46.5 71.5t85.5 24.5q69 0 108.5 -47t39.5 -145v-336h-76v331q0 62 -25.5 95t-78.5 33q-30 0 -55 -13t-40 -36.5t-15 -57.5v-352h-76z" />
    <glyph glyph-name="uni04BC" unicode="&#x4bc;" horiz-adv-x="724" 
d="M689 349v-20h-489l38 16v-74q0 -64 22.5 -112t64.5 -74t99 -26q71 0 113.5 36t61.5 101l68 -30q-15 -52 -47 -92t-81 -63t-115 -23q-84 0 -143.5 38t-91.5 114t-34 189h-76q-32 0 -46 16.5t-14 43.5v118h68v-113h69q6 102 37 172.5t88 107t141 36.5q85 0 144.5 -38.5
t91 -118t31.5 -204.5zM422 639q-57 0 -98.5 -26t-63.5 -73.5t-22 -112.5v-53l-38 20h431l-25 -32v65q0 65 -22 112.5t-63 73.5t-99 26z" />
    <glyph glyph-name="uni04BD" unicode="&#x4bd;" horiz-adv-x="594" 
d="M351 -12q-60 0 -106.5 26.5t-74 82.5t-30.5 142h-61q-33 0 -45 17.5t-12 43.5v108h69v-111h50q9 116 64 173.5t146 57.5q61 0 106 -27.5t70 -87t25 -155.5v-19h-331v-33q0 -76 34.5 -113.5t95.5 -37.5q52 0 85 23t52 67l52 -38q-24 -52 -70.5 -85.5t-118.5 -33.5z
M351 464q-41 0 -70 -17.5t-44.5 -51.5t-15.5 -85v-13h250v13q0 51 -13.5 85t-40 51.5t-66.5 17.5z" />
    <glyph glyph-name="uni04BE" unicode="&#x4be;" horiz-adv-x="724" 
d="M689 349v-20h-489l38 16v-74q0 -64 22.5 -112t64.5 -74t99 -26q71 0 113.5 36t61.5 101l68 -30q-16 -53 -45.5 -90t-70 -58.5t-88.5 -27.5v-140h-73v140q-69 8 -121.5 45.5t-82 109.5t-31.5 184h-76q-32 0 -46 16.5t-14 43.5v118h68v-113h69q6 102 37 172.5t88 107
t141 36.5q85 0 144.5 -38.5t91 -118t31.5 -204.5zM422 639q-57 0 -98.5 -26t-63.5 -73.5t-22 -112.5v-53l-38 20h431l-26 -32l1 65q1 65 -21 112.5t-63.5 73.5t-99.5 26z" />
    <glyph glyph-name="uni04BF" unicode="&#x4bf;" horiz-adv-x="594" 
d="M387 -10v-130h-71v130q-73 11 -122 69.5t-54 179.5h-61q-33 0 -45 17.5t-12 43.5v108h69v-111h50q9 116 64 173.5t146 57.5q61 0 106 -27.5t70 -87t25 -155.5v-19h-331v-33q0 -76 34.5 -113.5t95.5 -37.5q52 0 85 23t52 67l52 -38q-24 -52 -62 -80t-91 -37zM351 464
q-41 0 -70 -17.5t-44.5 -51.5t-15.5 -85v-13h250v13q0 51 -13.5 85t-40 51.5t-66.5 17.5z" />
    <glyph glyph-name="uni04C0" unicode="&#x4c0;" horiz-adv-x="362" 
d="M309 0h-256v66h88v566h-88v66h256v-66h-88v-566h88v-66z" />
    <glyph glyph-name="uni04C1" unicode="&#x4c1;" horiz-adv-x="882" 
d="M38 0v70h57l96 215q14 32 29 46t34 18v10q-15 5 -28.5 18t-25.5 43l-85 208h-59v70h46q32 0 53.5 -16.5t36.5 -52.5l99 -242h110v311h80v-311h110l100 242q15 36 36.5 52.5t52.5 16.5h46v-70h-59l-86 -208q-13 -30 -25.5 -43t-27.5 -18v-10q20 -4 35 -18t29 -46l95 -215
h57v-70h-59q-27 0 -47 15.5t-37 54.5l-110 249h-110v-319h-80v319h-110l-111 -249q-17 -39 -36.5 -54.5t-46.5 -15.5h-59zM441 754q-45 0 -74 19.5t-48 58.5l-18 38l62 31l32 -83q11 -3 23.5 -4.5t22.5 -1.5q11 0 23.5 1.5t22.5 4.5l32 83l62 -31l-18 -38q-19 -39 -48 -58.5
t-74 -19.5z" />
    <glyph glyph-name="uni04C2" unicode="&#x4c2;" horiz-adv-x="716" 
d="M45 0v67h53l53 142q11 27 25 39.5t32 13.5v10q-16 2 -27 12t-24 40l-54 125h-52v67h41q29 0 47.5 -14t32.5 -47l68 -157h80v218h76v-218h80l68 157q14 33 33 47t47 14h41v-67h-52l-54 -125q-13 -30 -24 -40t-27 -12v-10q18 -1 32.5 -13.5t24.5 -39.5l53 -142h53v-67h-52
q-25 0 -46 14t-35 53l-62 166h-80v-233h-76v233h-80l-62 -166q-14 -39 -35 -53t-46 -14h-52zM358 596q-45 0 -76 20.5t-48 57.5l-18 38l62 31l34 -83q11 -3 23.5 -4.5t22.5 -1.5q11 0 23.5 1.5t22.5 4.5l34 83l62 -31l-18 -38q-17 -37 -48 -57.5t-76 -20.5z" />
    <glyph glyph-name="uni04CF" unicode="&#x4cf;" horiz-adv-x="228" 
d="M76 0v740h76v-740h-76z" />
    <glyph glyph-name="uni04D0" unicode="&#x4d0;" horiz-adv-x="579" 
d="M558 0h-82l-62 209h-251l-62 -209h-80l218 698h100zM396 275l-81 265l-22 87h-10l-22 -87l-79 -265h214zM291 754q-45 0 -74 19.5t-48 58.5l-18 38l62 31l32 -83q11 -3 23.5 -4.5t22.5 -1.5q11 0 23.5 1.5t22.5 4.5l32 83l62 -31l-18 -38q-19 -39 -48 -58.5t-74 -19.5z
" />
    <glyph glyph-name="uni04D1" unicode="&#x4d1;" horiz-adv-x="483" 
d="M456 0h-54q-24 0 -40.5 8.5t-25 25t-8.5 40.5v20l10 -10h-20q-13 -46 -48 -71t-82 -25q-75 0 -112 38.5t-37 111.5q0 48 21 83t64.5 54t110.5 19h93v57q0 57 -25.5 84t-80.5 27q-44 0 -72 -19.5t-48 -56.5l-45 42q20 41 64.5 70t103.5 29q87 0 133 -42.5t46 -125.5v-292
h52v-67zM328 236h-95q-60 0 -87.5 -20t-27.5 -58v-28q0 -39 24.5 -57.5t64.5 -18.5q35 0 62.5 15t43 39t15.5 50v78zM228 596q-45 0 -76 20.5t-48 57.5l-18 38l62 31l34 -83q11 -3 23.5 -4.5t22.5 -1.5q11 0 23.5 1.5t22.5 4.5l34 83l62 -31l-18 -38q-17 -37 -48 -57.5
t-76 -20.5z" />
    <glyph glyph-name="uni04D2" unicode="&#x4d2;" horiz-adv-x="579" 
d="M558 0h-82l-62 209h-251l-62 -209h-80l218 698h100zM396 275l-81 265l-22 87h-10l-22 -87l-79 -265h214zM205 792q-25 0 -37.5 10.5t-12.5 29.5v18q0 19 12.5 29.5t37.5 10.5t37.5 -10.5t12.5 -29.5v-18q0 -19 -12.5 -29.5t-37.5 -10.5zM377 792q-25 0 -37.5 10.5
t-12.5 29.5v18q0 19 12.5 29.5t37.5 10.5t37.5 -10.5t12.5 -29.5v-18q0 -19 -12.5 -29.5t-37.5 -10.5z" />
    <glyph glyph-name="uni04D3" unicode="&#x4d3;" horiz-adv-x="483" 
d="M456 0h-54q-24 0 -40.5 8.5t-25 25t-8.5 40.5v20l10 -10h-20q-13 -46 -48 -71t-82 -25q-75 0 -112 38.5t-37 111.5q0 48 21 83t64.5 54t110.5 19h93v57q0 57 -25.5 84t-80.5 27q-44 0 -72 -19.5t-48 -56.5l-45 42q20 41 64.5 70t103.5 29q87 0 133 -42.5t46 -125.5v-292
h52v-67zM328 236h-95q-60 0 -87.5 -20t-27.5 -58v-28q0 -39 24.5 -57.5t64.5 -18.5q35 0 62.5 15t43 39t15.5 50v78zM142 620q-25 0 -37.5 10.5t-12.5 29.5v18q0 19 12.5 29.5t37.5 10.5t37.5 -10.5t12.5 -29.5v-18q0 -19 -12.5 -29.5t-37.5 -10.5zM314 620
q-25 0 -37.5 10.5t-12.5 29.5v18q0 19 12.5 29.5t37.5 10.5t37.5 -10.5t12.5 -29.5v-18q0 -19 -12.5 -29.5t-37.5 -10.5z" />
    <glyph glyph-name="uni04D4" unicode="&#x4d4;" horiz-adv-x="820" 
d="M377 0v208h-200l-92 -208h-82l320 698h440v-70h-306v-240h287v-70h-287v-248h306v-70h-386zM377 628h-13l-157 -354h170v354z" />
    <glyph glyph-name="uni04D5" unicode="&#x4d5;" horiz-adv-x="782" 
d="M333 238h-100q-60 0 -87.5 -21t-27.5 -59v-28q0 -39 24.5 -57.5t64.5 -18.5q35 0 63.5 15t45.5 39t17 50v80zM409 296h250v14q0 51 -13.5 85t-40 51.5t-66.5 17.5q-41 0 -70 -17.5t-44.5 -51.5t-15.5 -85v-14zM539 55q52 0 85 23t52 67l52 -38q-24 -52 -70.5 -85.5
t-118.5 -33.5q-40 0 -74 15.5t-57.5 42t-31.5 60.5h-10q-8 -34 -33 -60.5t-62 -42t-83 -15.5q-75 0 -112 38.5t-37 111.5q0 49 21 84t64.5 54.5t110.5 19.5h98v52q0 57 -27.5 85.5t-83.5 28.5q-44 0 -72 -19.5t-48 -56.5l-45 42q20 41 64.5 70t103.5 29q40 0 70 -14.5
t49.5 -40.5t25.5 -62h10q8 34 31 60.5t56 42t72 15.5q61 0 106 -27.5t70 -87t25 -156.5v-19h-331v-32q0 -76 34.5 -113.5t95.5 -37.5z" />
    <glyph glyph-name="uni04D6" unicode="&#x4d6;" horiz-adv-x="526" 
d="M469 0h-386v698h386v-70h-306v-240h287v-70h-287v-248h306v-70zM274 754q-45 0 -74 19.5t-48 58.5l-18 38l62 31l32 -83q11 -3 23.5 -4.5t22.5 -1.5q11 0 23.5 1.5t22.5 4.5l32 83l62 -31l-18 -38q-19 -39 -48 -58.5t-74 -19.5z" />
    <glyph glyph-name="uni04D7" unicode="&#x4d7;" horiz-adv-x="495" 
d="M252 -12q-60 0 -108 27.5t-75.5 87t-27.5 155.5t27.5 155.5t75.5 87t108 27.5q61 0 106 -27.5t70 -87t25 -155.5v-19h-331v-33q0 -76 34.5 -113.5t95.5 -37.5q52 0 85 23t52 67l52 -38q-24 -52 -70.5 -85.5t-118.5 -33.5zM252 464q-41 0 -70 -17.5t-44.5 -51.5t-15.5 -85
v-13h250v13q0 51 -13.5 85t-40 51.5t-66.5 17.5zM252 596q-45 0 -76 20.5t-48 57.5l-18 38l62 31l34 -83q11 -3 23.5 -4.5t22.5 -1.5q11 0 23.5 1.5t22.5 4.5l34 83l62 -31l-18 -38q-17 -37 -48 -57.5t-76 -20.5z" />
    <glyph glyph-name="uni04D8" unicode="&#x4d8;" horiz-adv-x="638" 
d="M52 369h451v58q0 97 -49 154.5t-135 57.5q-69 0 -111 -36t-62 -101l-68 30q16 52 47.5 92t80 63t113.5 23q85 0 144.5 -38.5t91 -118t31.5 -204.5q0 -124 -31.5 -204t-91 -118.5t-144.5 -38.5q-84 0 -144 38.5t-91.5 118.5t-31.5 204v20zM135 304v-33q0 -64 22 -112
t63.5 -74t98.5 -26q58 0 99 26t63 74t22 112v33h-368z" />
    <glyph glyph-name="uni04D9" unicode="&#x4d9;" horiz-adv-x="495" 
d="M42 277h331v33q0 76 -34.5 113.5t-95.5 37.5q-52 0 -85 -23t-52 -67l-52 38q24 53 70.5 86t118.5 33q61 0 108.5 -27.5t75 -87t27.5 -155.5t-27.5 -155.5t-75 -87t-108.5 -27.5q-60 0 -105.5 27.5t-70.5 87t-25 155.5v19zM123 219v-13q0 -50 13.5 -84.5t40.5 -52
t66 -17.5q41 0 70 17.5t44.5 52t15.5 84.5v13h-250z" />
    <glyph glyph-name="uni04DC" unicode="&#x4dc;" horiz-adv-x="882" 
d="M38 0v70h57l96 215q14 32 29 46t34 18v10q-15 5 -28.5 18t-25.5 43l-85 208h-59v70h46q32 0 53.5 -16.5t36.5 -52.5l99 -242h110v311h80v-311h110l100 242q15 36 36.5 52.5t52.5 16.5h46v-70h-59l-86 -208q-13 -30 -25.5 -43t-27.5 -18v-10q20 -4 35 -18t29 -46l95 -215
h57v-70h-59q-27 0 -47 15.5t-37 54.5l-110 249h-110v-319h-80v319h-110l-111 -249q-17 -39 -36.5 -54.5t-46.5 -15.5h-59zM355 792q-25 0 -37.5 10.5t-12.5 29.5v18q0 19 12.5 29.5t37.5 10.5t37.5 -10.5t12.5 -29.5v-18q0 -19 -12.5 -29.5t-37.5 -10.5zM527 792
q-25 0 -37.5 10.5t-12.5 29.5v18q0 19 12.5 29.5t37.5 10.5t37.5 -10.5t12.5 -29.5v-18q0 -19 -12.5 -29.5t-37.5 -10.5z" />
    <glyph glyph-name="uni04DD" unicode="&#x4dd;" horiz-adv-x="716" 
d="M45 0v67h53l53 142q11 27 25 39.5t32 13.5v10q-16 2 -27 12t-24 40l-54 125h-52v67h41q29 0 47.5 -14t32.5 -47l68 -157h80v218h76v-218h80l68 157q14 33 33 47t47 14h41v-67h-52l-54 -125q-13 -30 -24 -40t-27 -12v-10q18 -1 32.5 -13.5t24.5 -39.5l53 -142h53v-67h-52
q-25 0 -46 14t-35 53l-62 166h-80v-233h-76v233h-80l-62 -166q-14 -39 -35 -53t-46 -14h-52zM272 620q-25 0 -37.5 10.5t-12.5 29.5v18q0 19 12.5 29.5t37.5 10.5t37.5 -10.5t12.5 -29.5v-18q0 -19 -12.5 -29.5t-37.5 -10.5zM444 620q-25 0 -37.5 10.5t-12.5 29.5v18
q0 19 12.5 29.5t37.5 10.5t37.5 -10.5t12.5 -29.5v-18q0 -19 -12.5 -29.5t-37.5 -10.5z" />
    <glyph glyph-name="uni04DE" unicode="&#x4de;" horiz-adv-x="536" 
d="M253 -12q-78 0 -130 32.5t-90 90.5l58 47q29 -51 68.5 -75t93.5 -24q45 0 76.5 14.5t48 43t16.5 70.5v14q0 55 -31.5 87.5t-99.5 32.5h-96v70h90q42 0 70 13.5t41.5 40.5t13.5 67v19q0 56 -32 82t-94 26q-51 0 -85.5 -20t-58.5 -62l-60 40q33 57 82 85t122 28
q102 0 156.5 -48.5t53.5 -134.5q0 -70 -33.5 -111t-89.5 -53v-10q38 -4 69 -22t49.5 -52t18.5 -86q0 -61 -27.5 -107t-78.5 -72t-121 -26zM174 792q-25 0 -37.5 10.5t-12.5 29.5v18q0 19 12.5 29.5t37.5 10.5t37.5 -10.5t12.5 -29.5v-18q0 -19 -12.5 -29.5t-37.5 -10.5z
M346 792q-25 0 -37.5 10.5t-12.5 29.5v18q0 19 12.5 29.5t37.5 10.5t37.5 -10.5t12.5 -29.5v-18q0 -19 -12.5 -29.5t-37.5 -10.5z" />
    <glyph glyph-name="uni04DF" unicode="&#x4df;" horiz-adv-x="452" 
d="M208 -12q-70 0 -113.5 27.5t-71.5 76.5l56 46q18 -38 51 -60t78 -22q54 0 81.5 23.5t27.5 60.5v12q0 40 -23 61t-65 21h-100v64h91q41 0 64 20t23 55v13q0 33 -23.5 53t-73.5 20q-48 0 -78.5 -21t-48.5 -56l-50 44q23 45 67 73t114 28q86 0 130.5 -36.5t44.5 -101.5
q0 -48 -22.5 -74.5t-67.5 -38.5v-10q54 -10 77 -40t23 -77q0 -73 -52 -117t-139 -44zM128 620q-25 0 -37.5 10.5t-12.5 29.5v18q0 19 12.5 29.5t37.5 10.5t37.5 -10.5t12.5 -29.5v-18q0 -19 -12.5 -29.5t-37.5 -10.5zM300 620q-25 0 -37.5 10.5t-12.5 29.5v18
q0 19 12.5 29.5t37.5 10.5t37.5 -10.5t12.5 -29.5v-18q0 -19 -12.5 -29.5t-37.5 -10.5z" />
    <glyph glyph-name="uni04E0" unicode="&#x4e0;" horiz-adv-x="536" 
d="M253 -12q-78 0 -130 32.5t-90 90.5l58 47q29 -51 68.5 -75t93.5 -24q45 0 76.5 15t48 44.5t16.5 73.5v27q0 43 -18 71.5t-49.5 43.5t-74.5 15h-96v71l217 205v10l-92 -7h-210v70h381v-97l-189 -180v-31l-30 25h28q60 0 109.5 -21t79.5 -66t30 -116t-27.5 -121
t-78.5 -76.5t-121 -26.5z" />
    <glyph glyph-name="uni04E1" unicode="&#x4e1;" horiz-adv-x="450" 
d="M201 -200q-64 0 -107.5 27t-72.5 81l59 43q15 -40 45 -61.5t76 -21.5q38 0 63.5 16t38.5 45t13 66v35q0 59 -32 90.5t-90 31.5h-76v65l169 230v10l-65 -7h-164v66h312v-68l-166 -226v-47l-32 38h32q60 0 103.5 -22.5t67 -66.5t23.5 -109q0 -63 -23.5 -111.5t-67.5 -76
t-106 -27.5z" />
    <glyph glyph-name="uni04E2" unicode="&#x4e2;" horiz-adv-x="639" 
d="M83 0v698h78v-446l-10 -142h8l59 131l264 457h73v-698h-78v446l10 142h-8l-58 -130l-265 -458h-73zM190 809v64h254v-64h-254z" />
    <glyph glyph-name="uni04E3" unicode="&#x4e3;" horiz-adv-x="532" 
d="M76 0v516h74v-293l-11 -121h10l54 110l181 304h72v-516h-74v293l11 121h-10l-54 -110l-181 -304h-72zM137 639v64h254v-64h-254z" />
    <glyph glyph-name="uni04E4" unicode="&#x4e4;" horiz-adv-x="639" 
d="M83 0v698h78v-446l-10 -142h8l59 131l264 457h73v-698h-78v446l10 142h-8l-58 -130l-265 -458h-73zM231 792q-25 0 -37.5 10.5t-12.5 29.5v18q0 19 12.5 29.5t37.5 10.5t37.5 -10.5t12.5 -29.5v-18q0 -19 -12.5 -29.5t-37.5 -10.5zM403 792q-25 0 -37.5 10.5t-12.5 29.5
v18q0 19 12.5 29.5t37.5 10.5t37.5 -10.5t12.5 -29.5v-18q0 -19 -12.5 -29.5t-37.5 -10.5z" />
    <glyph glyph-name="uni04E5" unicode="&#x4e5;" horiz-adv-x="532" 
d="M76 0v516h74v-293l-11 -121h10l54 110l181 304h72v-516h-74v293l11 121h-10l-54 -110l-181 -304h-72zM178 620q-25 0 -37.5 10.5t-12.5 29.5v18q0 19 12.5 29.5t37.5 10.5t37.5 -10.5t12.5 -29.5v-18q0 -19 -12.5 -29.5t-37.5 -10.5zM350 620q-25 0 -37.5 10.5
t-12.5 29.5v18q0 19 12.5 29.5t37.5 10.5t37.5 -10.5t12.5 -29.5v-18q0 -19 -12.5 -29.5t-37.5 -10.5z" />
    <glyph glyph-name="uni04E6" unicode="&#x4e6;" horiz-adv-x="638" 
d="M319 -12q-84 0 -144 38.5t-91.5 118.5t-31.5 204q0 125 31.5 204.5t91.5 118t144 38.5q85 0 144.5 -38.5t91 -118t31.5 -204.5q0 -124 -31.5 -204t-91 -118.5t-144.5 -38.5zM319 59q58 0 98 26t61.5 74t21.5 112v156q0 65 -21.5 112.5t-61.5 73.5t-98 26q-57 0 -97.5 -26
t-62 -73.5t-21.5 -112.5v-156q0 -64 21.5 -112t62 -74t97.5 -26zM233 792q-25 0 -37.5 10.5t-12.5 29.5v18q0 19 12.5 29.5t37.5 10.5t37.5 -10.5t12.5 -29.5v-18q0 -19 -12.5 -29.5t-37.5 -10.5zM405 792q-25 0 -37.5 10.5t-12.5 29.5v18q0 19 12.5 29.5t37.5 10.5
t37.5 -10.5t12.5 -29.5v-18q0 -19 -12.5 -29.5t-37.5 -10.5z" />
    <glyph glyph-name="uni04E7" unicode="&#x4e7;" horiz-adv-x="504" 
d="M252 -12q-60 0 -108 27.5t-75.5 87t-27.5 155.5t27.5 155.5t75.5 87t108 27.5q61 0 108.5 -27.5t75 -87t27.5 -155.5t-27.5 -155.5t-75 -87t-108.5 -27.5zM252 56q62 0 95.5 37t33.5 113v104q0 76 -33.5 113t-95.5 37q-61 0 -95 -37t-34 -113v-104q0 -76 34 -113t95 -37z
M166 620q-25 0 -37.5 10.5t-12.5 29.5v18q0 19 12.5 29.5t37.5 10.5t37.5 -10.5t12.5 -29.5v-18q0 -19 -12.5 -29.5t-37.5 -10.5zM338 620q-25 0 -37.5 10.5t-12.5 29.5v18q0 19 12.5 29.5t37.5 10.5t37.5 -10.5t12.5 -29.5v-18q0 -19 -12.5 -29.5t-37.5 -10.5z" />
    <glyph glyph-name="uni04E8" unicode="&#x4e8;" horiz-adv-x="638" 
d="M319 -12q-84 0 -144 38.5t-91.5 118.5t-31.5 204q0 125 31.5 204.5t91.5 118t144 38.5q85 0 144.5 -38.5t91 -118t31.5 -204.5q0 -124 -31.5 -204t-91 -118.5t-144.5 -38.5zM319 59q58 0 98 26t61.5 74t21.5 112v70l31 -25h-424l31 25v-70q0 -64 21.5 -112t62 -74
t97.5 -26zM319 639q-57 0 -97.5 -26t-62 -73.5t-21.5 -112.5v-55l-31 16h424l-31 -24v63q0 65 -21.5 112.5t-61.5 73.5t-98 26z" />
    <glyph glyph-name="uni04E9" unicode="&#x4e9;" horiz-adv-x="504" 
d="M252 -12q-60 0 -108 27.5t-75.5 87t-27.5 155.5t27.5 155.5t75.5 87t108 27.5q61 0 108.5 -27.5t75 -87t27.5 -155.5t-27.5 -155.5t-75 -87t-108.5 -27.5zM252 56q62 0 95.5 37t33.5 113v26h-258v-26q0 -76 34 -113t95 -37zM123 310v-18h258v18q0 76 -33.5 113t-95.5 37
q-61 0 -95 -37t-34 -113z" />
    <glyph glyph-name="uni04EE" unicode="&#x4ee;" horiz-adv-x="539" 
d="M128 0v70h92l33 92l-235 536h87l133 -315l46 -120h10l38 120l107 315h82l-220 -613q-12 -34 -27 -52.5t-37 -25.5t-56 -7h-53zM147 809v64h254v-64h-254z" />
    <glyph glyph-name="uni04EF" unicode="&#x4ef;" horiz-adv-x="451" 
d="M277 256l79 260h74l-204 -648q-8 -27 -18.5 -41.5t-27.5 -20.5t-46 -6h-56v67h79l30 105l-171 544h76l79 -260l48 -189h10zM99 639v64h254v-64h-254z" />
    <glyph glyph-name="uni04F0" unicode="&#x4f0;" horiz-adv-x="539" 
d="M128 0v70h92l33 92l-235 536h87l133 -315l46 -120h10l38 120l107 315h82l-220 -613q-12 -34 -27 -52.5t-37 -25.5t-56 -7h-53zM188 792q-25 0 -37.5 10.5t-12.5 29.5v18q0 19 12.5 29.5t37.5 10.5t37.5 -10.5t12.5 -29.5v-18q0 -19 -12.5 -29.5t-37.5 -10.5zM360 792
q-25 0 -37.5 10.5t-12.5 29.5v18q0 19 12.5 29.5t37.5 10.5t37.5 -10.5t12.5 -29.5v-18q0 -19 -12.5 -29.5t-37.5 -10.5z" />
    <glyph glyph-name="uni04F1" unicode="&#x4f1;" horiz-adv-x="451" 
d="M277 256l79 260h74l-204 -648q-8 -27 -18.5 -41.5t-27.5 -20.5t-46 -6h-56v67h79l30 105l-171 544h76l79 -260l48 -189h10zM140 620q-25 0 -37.5 10.5t-12.5 29.5v18q0 19 12.5 29.5t37.5 10.5t37.5 -10.5t12.5 -29.5v-18q0 -19 -12.5 -29.5t-37.5 -10.5zM312 620
q-25 0 -37.5 10.5t-12.5 29.5v18q0 19 12.5 29.5t37.5 10.5t37.5 -10.5t12.5 -29.5v-18q0 -19 -12.5 -29.5t-37.5 -10.5z" />
    <glyph glyph-name="uni04F2" unicode="&#x4f2;" horiz-adv-x="539" 
d="M128 0v70h92l33 92l-235 536h87l133 -315l46 -120h10l38 120l107 315h82l-220 -613q-12 -34 -27 -52.5t-37 -25.5t-56 -7h-53zM304 915l-97 -159l-45 24l77 170zM451 915l-97 -159l-45 24l77 170z" />
    <glyph glyph-name="uni04F3" unicode="&#x4f3;" horiz-adv-x="451" 
d="M277 256l79 260h74l-204 -648q-8 -27 -18.5 -41.5t-27.5 -20.5t-46 -6h-56v67h79l30 105l-171 544h76l79 -260l48 -189h10zM256 744l-97 -159l-45 24l77 170zM403 744l-97 -159l-45 24l77 170z" />
    <glyph glyph-name="uni04F4" unicode="&#x4f4;" horiz-adv-x="582" 
d="M419 0v280h-10q-28 -12 -61 -18t-71 -6q-114 0 -169.5 54.5t-55.5 169.5v218h80v-218q0 -82 37.5 -118t113.5 -36q41 0 74.5 6t61.5 18v348h80v-698h-80zM189 792q-25 0 -37.5 10.5t-12.5 29.5v18q0 19 12.5 29.5t37.5 10.5t37.5 -10.5t12.5 -29.5v-18q0 -19 -12.5 -29.5
t-37.5 -10.5zM361 792q-25 0 -37.5 10.5t-12.5 29.5v18q0 19 12.5 29.5t37.5 10.5t37.5 -10.5t12.5 -29.5v-18q0 -19 -12.5 -29.5t-37.5 -10.5z" />
    <glyph glyph-name="uni04F5" unicode="&#x4f5;" horiz-adv-x="486" 
d="M334 0v239h-13q-15 -27 -45 -44.5t-81 -17.5q-70 0 -110 39.5t-40 118.5v181h76v-174q0 -48 24.5 -72.5t73.5 -24.5q50 0 82.5 17t32.5 50v204h76v-516h-76zM141 620q-25 0 -37.5 10.5t-12.5 29.5v18q0 19 12.5 29.5t37.5 10.5t37.5 -10.5t12.5 -29.5v-18
q0 -19 -12.5 -29.5t-37.5 -10.5zM313 620q-25 0 -37.5 10.5t-12.5 29.5v18q0 19 12.5 29.5t37.5 10.5t37.5 -10.5t12.5 -29.5v-18q0 -19 -12.5 -29.5t-37.5 -10.5z" />
    <glyph glyph-name="uni04F6" unicode="&#x4f6;" horiz-adv-x="461" 
d="M83 0v698h353v-70h-273v-558h88v-220h-73v150h-95z" />
    <glyph glyph-name="uni04F7" unicode="&#x4f7;" horiz-adv-x="392" 
d="M76 0v516h295v-67h-219v-382h78v-207h-71v140h-83z" />
    <glyph glyph-name="uni04F8" unicode="&#x4f8;" horiz-adv-x="788" 
d="M83 0v698h80v-280h182q58 0 98 -24.5t61 -71t21 -113.5t-21 -113.5t-61 -71t-98 -24.5h-262zM163 70h180q31 0 52 13t32.5 37t11.5 56v66q0 33 -11.5 56.5t-32.5 36.5t-52 13h-180v-278zM625 0v698h80v-698h-80zM308 792q-25 0 -37.5 10.5t-12.5 29.5v18q0 19 12.5 29.5
t37.5 10.5t37.5 -10.5t12.5 -29.5v-18q0 -19 -12.5 -29.5t-37.5 -10.5zM480 792q-25 0 -37.5 10.5t-12.5 29.5v18q0 19 12.5 29.5t37.5 10.5t37.5 -10.5t12.5 -29.5v-18q0 -19 -12.5 -29.5t-37.5 -10.5z" />
    </font>
</defs>
</svg>
